<?xml version="1.0" encoding="UTF-8"?>
<svg width="16px" height="16px" viewBox="0 0 16 16" version="1.1" xmlns="http://www.w3.org/2000/svg" xmlns:xlink="http://www.w3.org/1999/xlink">
    <defs></defs>
    <g id="Page-1" stroke="none" stroke-width="1" fill="none" fill-rule="evenodd">
        <g id="B5X---Add-Your-Account" transform="translate(-474.000000, -216.000000)">
            <g id="for-Chrome" transform="translate(428.000000, 211.000000)">
                <g id="Group" transform="translate(46.000000, 5.000000)">
                    <ellipse id="center" fill="#48A1DC" fill-rule="nonzero" cx="8.00092956" cy="7.99549397" rx="3.00259829" ry="3"></ellipse>
                    <path d="M4.74236552,9.75849397 L1.27882891,3.75749397 L1.27482944,3.75099397 C1.23783439,3.81449397 1.00136603,4.13149397 0.966870643,4.19599397 C0.89088081,4.33649397 0.815890843,4.47699397 0.748899805,4.62199397 C0.695906895,4.73599397 0.648913183,4.85049397 0.601419537,4.96599397 C0.551926158,5.08599397 0.503432646,5.20549397 0.459938465,5.32849397 C0.411444953,5.46549397 0.368950638,5.60349397 0.327956123,5.74149397 C0.296460337,5.84749397 0.265964417,5.95299397 0.238968029,6.05999397 C0.201972978,6.20849397 0.170477192,6.35699397 0.141981004,6.50649397 C0.12198368,6.61149397 0.102486288,6.71599397 0.0869883619,6.82149397 C0.065491238,6.96749397 0.0484935121,7.11349397 0.034995318,7.25949397 C0.0239967895,7.37549397 0.0144980603,7.49149397 0.00899879606,7.60749397 C0.00249966557,7.74049397 0,7.87299397 0,8.00599397 C0,8.13899397 0.00249966557,8.27049397 0.00899879606,8.40399397 C0.0149979934,8.52049397 0.0239967895,8.63649397 0.034995318,8.75249397 C0.0484935121,8.89899397 0.065491238,9.04449397 0.0869883619,9.19049397 C0.102486288,9.29599397 0.12198368,9.40099397 0.141981004,9.50549397 C0.170477192,9.65499397 0.201972978,9.80299397 0.238968029,9.95199397 C0.265964417,10.058994 0.296460337,10.164494 0.327956123,10.270494 C0.368950638,10.408494 0.411444953,10.546494 0.459938465,10.683494 C0.503432646,10.805994 0.552426091,10.925494 0.601419537,11.045994 C0.648913183,11.160994 0.695406962,11.276494 0.748899805,11.389994 C0.816390776,11.534994 0.89088081,11.675494 0.967370576,11.816494 C1.00186596,11.880994 1.02986222,11.947494 1.06685727,12.011494 C1.08135533,12.035994 1.09835305,12.057994 1.11285111,12.082994 C1.20083934,12.232494 1.29782637,12.376994 1.39631319,12.520994 C1.44880617,12.598494 1.49929941,12.677994 1.55379212,12.752994 C1.64877941,12.881994 1.75176563,13.005494 1.85525179,13.129494 C1.92424256,13.212494 1.99073366,13.297994 2.06272403,13.377494 C2.15221206,13.476994 2.24969901,13.570494 2.34468631,13.665494 C2.4396736,13.760494 2.53316109,13.857494 2.63214785,13.946994 C2.71163721,14.019494 2.79762571,14.084994 2.88061461,14.154494 C3.00459802,14.257494 3.1280815,14.360994 3.25656431,14.455994 C3.33155427,14.510994 3.41104364,14.561494 3.48853327,14.613994 C3.63251401,14.711994 3.77699468,14.808994 3.92647468,14.896994 C3.9509714,14.911494 3.97296846,14.928494 3.99746518,14.943494 C4.06145662,14.979994 4.12794773,15.008494 4.1924391,15.042994 C4.3329203,15.118994 4.47390144,15.193994 4.61838211,15.260994 C4.63238024,15.267494 4.64587843,15.275494 4.65987656,15.282494 C4.7268676,15.313494 4.79535843,15.338994 4.8628494,15.365994 C5.40427697,15.596494 5.96970132,15.759494 6.54662413,15.866494 L8.83281827,11.905494 C7.18103926,12.256994 6.00669637,11.853494 4.74236552,9.75849397 Z" id="left" fill="#87BF56"></path>
                    <path d="M15.9808619,7.44999397 C15.9778623,7.40549397 15.9748627,7.36199397 15.9708633,7.31799397 C15.9138709,6.64999397 15.7193969,5.64099397 15.4914274,4.99099397 L10.4920963,4.99099397 C10.6720722,5.19249397 10.7610603,5.30299397 10.9045411,5.54499397 C11.6289442,6.76349397 11.80942,8.80149397 11.1195123,9.99949397 L11.1340104,10.007994 L7.67447324,16.001494 C8.66434081,16.001494 9.99716249,15.822994 10.9555343,15.440494 C10.9660329,15.435494 10.9775313,15.433494 10.98753,15.429494 C11.0050276,15.422494 11.0215254,15.415494 11.0385232,15.407994 C11.3654794,15.272994 11.6889361,15.124494 12.0033941,14.942494 C12.2848564,14.779494 12.5488211,14.598494 12.8032871,14.407994 C12.8082864,14.403994 12.8132857,14.399494 12.8182851,14.395994 C13.0632523,14.211494 13.2932215,14.012994 13.5121922,13.805994 C13.5231907,13.795494 13.5356891,13.786994 13.5461877,13.775994 C13.5841826,13.739994 13.6196778,13.701994 13.6566729,13.663994 C14.1411081,13.179994 14.5570524,12.644494 14.8960071,12.066994 C14.9080055,12.047494 14.9230035,12.030494 14.9345019,12.010494 C14.9609984,11.964494 14.978996,11.916494 15.0044926,11.870494 C15.113478,11.671994 15.2144645,11.469494 15.3064522,11.263494 C15.3479466,11.171494 15.3879413,11.079994 15.4249363,10.986994 C15.5029259,10.791494 15.5714167,10.593494 15.6339084,10.393494 C15.6609047,10.306994 15.6924005,10.221494 15.7163973,10.134994 C15.7928871,9.85649397 15.8553787,9.57549397 15.9018725,9.29099397 C15.9108713,9.23699397 15.913371,9.18299397 15.9213699,9.12949397 C15.9563652,8.88499397 15.980362,8.63949397 15.9928603,8.39149397 C15.9958599,8.32549397 15.9958599,8.25999397 15.9973597,8.19349397 C16.0038589,7.94649397 15.9983596,7.69849397 15.9808619,7.44999397 Z" id="right" fill="#FFCC66"></path>
                    <path d="M14.3800761,3.17449397 C14.3590789,3.14699397 14.3365819,3.12149397 14.3155847,3.09399397 C14.1386084,2.86549397 13.9506336,2.64899397 13.75266,2.44449397 C13.7086659,2.39799397 13.6641719,2.35249397 13.618678,2.30749397 C13.4012071,2.09299397 13.1757372,1.89099397 12.9387689,1.70499397 C12.9207713,1.69099397 12.9047735,1.67499397 12.8867759,1.66099397 C12.6228112,1.45849397 12.3468481,1.27549397 12.0623862,1.10799397 C12.0423889,1.09649397 12.0253911,1.08149397 12.0053938,1.06999397 C11.9339034,1.02899397 11.8604132,0.99699397 11.7884228,0.95799397 C11.6634396,0.89099397 11.5384563,0.82249397 11.4104734,0.76249397 C11.2869899,0.70449397 11.1620066,0.65399397 11.0375233,0.60249397 C10.9330373,0.56049397 10.8295511,0.51499397 10.7240652,0.47749397 C10.5720856,0.42249397 10.419606,0.37599397 10.2656266,0.33049397 C10.1806379,0.30499397 10.0961492,0.27799397 10.0101607,0.25549397 C9.84268316,0.21249397 9.67470563,0.17849397 9.50622817,0.14599397 C9.42673881,0.13099397 9.34824931,0.11299397 9.26826001,0.0994939704 C9.10378201,0.0729939704 8.93980395,0.0564939704 8.77532596,0.0409939704 C8.685338,0.0319939704 8.59584997,0.0194939704 8.50536208,0.0139939704 C8.363881,0.00499397037 8.22289987,0.00499397037 8.08141879,0.00399397037 C7.96593425,0.00249397037 7.8504497,-0.00250602963 7.73446521,0.00149397037 C7.64397732,0.00449397037 7.55448929,0.0154939704 7.46450133,0.0214939704 C6.86658133,0.0614939704 6.26966119,0.16749397 5.68273971,0.34549397 C5.64224513,0.35699397 5.60125061,0.36649397 5.56125596,0.37899397 C5.4122759,0.42699397 5.26579549,0.48549397 5.11881516,0.54249397 C5.0243278,0.57849397 4.92884058,0.61299397 4.83585302,0.65299397 C4.71386934,0.70599397 4.59438532,0.76549397 4.47440137,0.82449397 C4.35791696,0.88249397 4.24143254,0.93949397 4.12744779,1.00249397 C4.08445354,1.02649397 4.0399595,1.04449397 3.99746518,1.06949397 C3.93047415,1.10799397 3.87048217,1.15349397 3.80549087,1.19349397 C3.69150612,1.26349397 3.57902117,1.33549397 3.46853595,1.41099397 C3.35955053,1.48599397 3.25356471,1.56299397 3.14907869,1.64249397 C3.0555912,1.71399397 2.96460337,1.78699397 2.87461541,1.86249397 C2.76063066,1.95699397 2.64964551,2.05299397 2.54265982,2.15299397 C2.47316912,2.21849397 2.40567815,2.28549397 2.33818718,2.35349397 C2.21970303,2.47199397 2.10371855,2.59249397 1.99373326,2.71749397 C1.96773674,2.74699397 1.94324002,2.77749397 1.91874329,2.80749397 L4.20743709,6.77299397 C4.50239763,5.86449397 5.1073167,5.05349397 5.99919737,4.53799397 C6.63111283,4.17299397 7.32052059,4.01699397 8.00092956,4.01799397 L8.00092956,4.00099397 L14.9355018,4.00099397 C14.7670243,3.70899397 14.5780496,3.43649397 14.3800761,3.17449397 Z" id="top" fill="#EE7261"></path>
                </g>
            </g>
        </g>
    </g>
</svg>