<svg xmlns="http://www.w3.org/2000/svg" viewBox="173 173 154 154"><linearGradient id="a" gradientUnits="userSpaceOnUse" x1="199.802" y1="299.209" x2="300.214" y2="198.797" gradientTransform="matrix(1 0 0 -1 0 500)"><stop offset="0" stop-color="#9dd12e"/><stop offset="1" stop-color="#41c780"/></linearGradient><path d="M250 180c-39.2 0-71 31.8-71 71s31.8 71 71 71 71-31.8 71-71-31.8-71-71-71z" fill="url(#a)"/><path d="M242.6 231.7h-13.9V267h13.9v5.4c-3.4 3.4-6.2 7.3-9.7 10.7v-10.7h-9.7v-46h19.3c.1 1.8.1 3.6.1 5.3zm35.3-2.7v43.5h-17.1v-5.3h11.8v-21.6c.1-4.6 0-9.2 0-13.8h-11.8v-5.4H278c-.1.8-.1 1.7-.1 2.6z" fill="#fff"/></svg>