<svg xmlns="http://www.w3.org/2000/svg" viewBox="0 0 64 64"><path fill="#E73B2B" d="M59.7 32.9c-2.7-2.7-6.1-4.1-9.6-4.2h-8.4c0 3.6 2.9 6.6 6.6 6.6h2.1c1.7.2 3.4.9 4.7 2.2 3.1 3.1 3.1 8 0 11.1-3.1 3.1-8 3.1-11.1 0-1.3-1.3-2.1-3-2.2-4.7V28.7h-6.5v6.6h-6.5V21.6c0-4.4-1.2-7.8-4.2-10.8-5.6-5.6-14.7-5.6-20.4 0-5.6 5.6-5.6 14.7 0 20.3 2.7 2.7 6.1 4.1 9.6 4.2h7.7c-4.4 0-7.8 1.2-10.8 4.2-5.6 5.6-5.6 14.7 0 20.3 5.6 5.6 14.7 5.6 20.3 0 2.7-2.7 4.1-6.1 4.2-9.6v-7.7c0 4.4 1.2 7.8 4.2 10.8 5.6 5.6 14.7 5.6 20.3 0 5.7-5.7 5.7-14.8 0-20.4zm-9.3 2.4zm-36.8-6.6zm2 0h-2.1c-1.7-.2-3.4-.9-4.7-2.2-3.1-3.1-3.1-8 0-11.1 3.1-3.1 8-3.1 11.1 0 1.3 1.3 2.1 3 2.2 4.7v15.2c.1-3.6-2.8-6.6-6.5-6.6zm13.1 21.8zm0-2.1v2.1c-.2 1.7-.9 3.4-2.2 4.7-3.1 3.1-8 3.1-11.1 0-3.1-3.1-3.1-8 0-11.1 1.3-1.3 3-2.1 4.7-2.2h15.2c-3.7-.1-6.6 2.9-6.6 6.5z"/><path fill="#47403D" d="M53.3 4.2c-5.6-5.6-14.7-5.6-20.3 0-2.7 2.7-4.1 6.1-4.2 9.6v8.3c3.6 0 6.6-2.9 6.6-6.6v-2.1c.2-1.7.9-3.4 2.2-4.7 3.1-3.1 8-3.1 11.1 0 3.1 3.1 3.1 8 0 11.1-1.3 1.3-3 2.1-4.7 2.2H28.8v6.6h13.7c4.4 0 7.8-1.2 10.8-4.2 5.5-5.5 5.5-14.6 0-20.2zm-18 9.3z"/><linearGradient id="a" gradientUnits="userSpaceOnUse" x1="5182.542" y1="5829.516" x2="5182.542" y2="5838.934" gradientTransform="translate(-5157.075 -5801.053)"><stop offset="0" stop-color="#47403d" stop-opacity="0"/><stop offset=".122" stop-color="#4f4946" stop-opacity=".122"/><stop offset=".322" stop-color="#66615e" stop-opacity=".322"/><stop offset=".573" stop-color="#8c8886" stop-opacity=".573"/><stop offset=".864" stop-color="#c0bdbc" stop-opacity=".864"/><stop offset="1" stop-color="#dad9d8"/></linearGradient><path fill="url(#a)" d="M22.2 28.7h6.6v6.6h-6.6z"/><linearGradient id="b" gradientUnits="userSpaceOnUse" x1="5038.576" y1="5994.685" x2="5038.576" y2="6004.103" gradientTransform="rotate(-90 -444.556 5521.693)"><stop offset="0" stop-color="#47403d" stop-opacity="0"/><stop offset=".122" stop-color="#4f4946" stop-opacity=".122"/><stop offset=".322" stop-color="#66615e" stop-opacity=".322"/><stop offset=".573" stop-color="#8c8886" stop-opacity=".573"/><stop offset=".864" stop-color="#c0bdbc" stop-opacity=".864"/><stop offset="1" stop-color="#dad9d8"/></linearGradient><path fill="url(#b)" d="M28.7 35.3h6.6v6.6h-6.6z"/><linearGradient id="c" gradientUnits="userSpaceOnUse" x1="4884.031" y1="5866.076" x2="4884.031" y2="5875.494" gradientTransform="rotate(180 2461.278 2950.804)"><stop offset="0" stop-color="#47403d" stop-opacity="0"/><stop offset=".122" stop-color="#4f4946" stop-opacity=".122"/><stop offset=".322" stop-color="#66615e" stop-opacity=".322"/><stop offset=".573" stop-color="#8c8886" stop-opacity=".573"/><stop offset=".864" stop-color="#c0bdbc" stop-opacity=".864"/><stop offset="1" stop-color="#dad9d8"/></linearGradient><path fill="url(#c)" d="M35.3 28.7h6.5v6.6h-6.5z"/></svg>