<svg xmlns="http://www.w3.org/2000/svg" viewBox="0 0 500 500"><path d="M250 9.55C117.144 9.55 9.55 117.144 9.55 250S117.144 490.45 250 490.45 490.45 382.856 490.45 250 382.856 9.55 250 9.55zm119.624 202.09c-.535 2.272-1.871 5.48-3.609 9.356l-.267.401c-10.693 22.722-38.627 67.363-38.627 67.363s0-.134-.134-.267l-8.153 14.168h39.295l-74.982 99.308 16.974-67.497h-30.875l10.693-44.642c-8.688 2.138-18.979 4.945-31.142 8.821 0 0-16.44 9.623-47.448-18.445 0 0-20.851-18.311-8.821-22.855 5.079-2.005 24.994-4.411 40.632-6.549 21.118-2.807 34.083-4.277 34.083-4.277s-64.958.936-80.462-1.47c-15.371-2.406-35.018-28.068-39.162-50.523 0 0-6.416-12.297 13.9-6.549 20.316 5.881 104.387 22.722 104.387 22.722s-109.332-33.414-116.549-41.434c-7.218-8.153-21.385-44.374-19.514-66.695 0 0 .802-5.614 6.549-4.01 0 0 80.863 36.756 136.063 56.804 55.334 20.049 103.45 30.207 97.169 56.27z" fill="#038eef"/></svg>