<svg xmlns="http://www.w3.org/2000/svg" viewBox="0 0 64 64"><path fill="#7289DA" d="M26.2 26.9c-1.8 0-3.2 1.6-3.2 3.5s1.5 3.5 3.2 3.5c1.8 0 3.2-1.6 3.2-3.5.1-1.9-1.3-3.5-3.2-3.5zm11.7 0c-1.8 0-3.2 1.6-3.2 3.5s1.5 3.5 3.2 3.5c1.8 0 3.2-1.6 3.2-3.5s-1.4-3.5-3.2-3.5z"/><path fill="#7289DA" d="M53.3.2H10.7C7.1.2 4.2 3.1 4.2 6.8v43c0 3.6 2.9 6.6 6.5 6.6h36.1l-1.7-5.9 4.1 3.8 3.8 3.6 6.8 6V6.7c0-3.6-2.9-6.5-6.5-6.5zM41 41.7s-1.1-1.4-2.1-2.6c4.2-1.2 5.8-3.8 5.8-3.8-1.3.9-2.5 1.5-3.7 1.9-1.6.7-3.1 1.1-4.6 1.4-3.1.6-5.9.4-8.2 0-1.8-.3-3.4-.9-4.7-1.4-.7-.3-1.5-.6-2.3-1.1-.1 0-.2-.1-.3-.1-.1 0-.1-.1-.1-.1-.6-.3-.9-.5-.9-.5s1.5 2.5 5.6 3.8c-1 1.2-2.1 2.6-2.1 2.6-7-.2-9.7-4.8-9.7-4.8 0-10.2 4.6-18.5 4.6-18.5 4.6-3.4 8.9-3.3 8.9-3.3l.3.4c-5.7 1.7-8.4 4.2-8.4 4.2s.7-.4 1.9-.9c3.4-1.5 6.1-1.9 7.2-2 .2 0 .3-.1.5-.1 1.9-.3 4.1-.3 6.4-.1 3 .3 6.3 1.2 9.6 3.1 0 0-2.5-2.4-7.9-4l.4-.5s4.4-.1 8.9 3.3c0 0 4.6 8.3 4.6 18.5.1-.2-2.6 4.4-9.7 4.6z"/></svg>