<svg width="200" height="200" viewBox="0 0 200 200" xmlns="http://www.w3.org/2000/svg"><path d="M193.6 172.1c-5.8-4.3-13-10.1-13.7-20.3-.4-5.3 1.2-11.1 2.7-15.6 1-2.1 1.9-4.3 2.7-6.6l.2-.4-.1.1c3.3-9.2 5.1-19.2 5.1-29.5 0-50-42.2-90.5-94.3-90.5-52.1 0-94.3 40.6-94.3 90.6 0 50 42.2 90.5 94.3 90.5 18 0 34.9-4.9 49.2-13.3 3.3-1.8 6.5-3.2 8.1-2.6 18.7 8.1 35.6 4.7 37.9 4.3 2.2-.3 8-2.4 2.2-6.7" fill="#0abe51"/><path d="M131.9 79.2H66.1c-4.1 0-7.4-3.3-7.4-7.5v-6.1c0-4.1 3.3-7.5 7.4-7.5h65.8c4.1 0 7.4 3.3 7.4 7.5v6.1c0 4.1-3.3 7.5-7.4 7.5zm-22.4 30.6H66.1c-4.1 0-7.4-3.3-7.4-7.5v-6.1c0-4.1 3.3-7.5 7.4-7.5h43.4c4.1 0 7.4 3.3 7.4 7.5v6.1c0 4.2-3.3 7.5-7.4 7.5zM78 140.5H66.2c-4.2 0-7.5-3.3-7.5-7.4v-6c0-4.1 3.4-7.4 7.5-7.4H78c4.2 0 7.5 3.3 7.5 7.4v6c0 4.1-3.3 7.4-7.5 7.4z" fill="#fff"/></svg>