<svg xmlns="http://www.w3.org/2000/svg" viewBox="0 0 1000 1000"><path fill="#F89E2C" d="M653.2 657.5v102.4c0 56.5-.3 113 .3 169.5.1 12.5-3.8 17.8-15.9 21.2-232.9 65.4-488.9-71.7-560.9-303.1-49.8-160.1-21.9-308 84.5-437.6C262.7 86.4 397.3 30.1 555.6 43.6c180 15.3 305.3 114.1 384.3 274.4 2.3 4.6 3.9 9.4 5.6 14.3.4 1.1-.1 2.5-.4 5.5H654.3v159.1h265.9v160.6h-267zM476.6 353.9C335.8 370.1 203 508.2 233.9 691c19.3 114.6 157.6 245.2 242.7 225.8V353.9zM141.1 688.1c0-3.3.6-6-.1-8.3-17.7-57.2-19.6-115.7-9.7-174.1 32.3-191 195.8-328.3 389.9-328.6 78.9-.1 157.9 0 236.8-.2 6 0 12.4 1.8 18.5-2-124.3-109.5-355.7-136.7-525.1 1.5C78.9 317 61.2 546.7 141.1 688.1zm335.4-465.6C257 242.2 106.3 481.9 191.8 694.2c-14.5-92.5 5.6-177.4 60.6-251.9 55.2-74.8 131.5-117.6 224.2-131.3-.1-30-.1-58.6-.1-88.5z"/></svg>