<svg viewBox="0 0 105 105" xmlns="http://www.w3.org/2000/svg" fill-rule="evenodd" clip-rule="evenodd" stroke-linejoin="round" stroke-miterlimit="1.414"><path d="M42.614 26.97c-2.431.169-6.713-.35-11.949-4.447-8.254-6.46-7.365-13.097-7.175-14.177.186-1.055 7.908-2.603 15.953 3.325a16.096 16.096 0 0 0-.993 8.176c.232-3.834 1.907-8.781 7.68-13.226C57.669-2.262 68.961-.109 69.221 1.37c.261 1.479 1.471 10.565-10.067 19.448-7.22 5.558-13.128 6.343-16.54 6.152zm15.144 31.261c3.071 3.27 7.275 5.449 11.979 5.897a13.266 13.266 0 0 1 1.808 6.709c0 7.316-5.884 13.247-13.141 13.247-7.258 0-13.141-5.931-13.141-13.247 0-2.54.709-4.913 1.939-6.929a18.753 18.753 0 0 0 5.688-2.026 19.04 19.04 0 0 0 4.868-3.651zm2.106-24.071c2.942-3.347 7.239-5.458 12.025-5.458 8.87 0 16.061 7.249 16.061 16.191 0 8.943-7.191 16.191-16.061 16.191-4.786 0-9.083-2.11-12.025-5.458a19.15 19.15 0 0 0 2.073-4.044c1.993 3.482 5.714 5.823 9.974 5.823 5.084 0 9.398-3.333 10.929-7.959-2.641 3.088-6.542 5.042-10.893 5.042a14.257 14.257 0 0 1-9.703-3.805c.575-1.827.885-3.772.885-5.79 0-3.977-1.204-7.672-3.265-10.733zM28.086 55.626c-2.942 3.348-7.239 5.458-12.025 5.458C7.191 61.084 0 53.836 0 44.893c0-8.942 7.191-16.191 16.061-16.191 4.786 0 9.083 2.111 12.025 5.458a19.163 19.163 0 0 0-3.264 10.733c0 2.049.319 4.022.91 5.872a14.252 14.252 0 0 1-9.613 3.723c-4.415 0-8.367-2.012-11.009-5.179 1.49 4.697 5.84 8.096 10.973 8.096 4.241 0 7.948-2.32 9.948-5.776a19.13 19.13 0 0 0 2.055 3.997zm12.318 8.282a13.27 13.27 0 0 1 1.939 6.929c0 7.316-5.884 13.247-13.141 13.247-7.258 0-13.141-5.931-13.141-13.247 0-2.448.659-4.741 1.808-6.709 4.747-.452 8.985-2.667 12.063-5.987a18.917 18.917 0 0 0 10.472 5.767zm15.989 23.414c.358 1.206.551 2.483.551 3.806 0 7.316-5.884 13.247-13.141 13.247-7.258 0-13.141-5.931-13.141-13.247 0-1.323.192-2.6.55-3.806 5.608-.706 10.318-4.326 12.591-9.31 2.272 4.984 6.982 8.604 12.59 9.31zm-21.556 7.366c1.192 3.842 4.672 6.623 8.779 6.623 4.066 0 7.518-2.727 8.742-6.511-2.112 2.526-5.233 4.125-8.714 4.125-3.532 0-6.693-1.646-8.807-4.237zM20.441 74.517c1.192 3.843 4.672 6.624 8.779 6.624 4.066 0 7.518-2.728 8.742-6.512-2.112 2.527-5.233 4.125-8.714 4.125-3.532 0-6.693-1.646-8.807-4.237zm29.202 0c1.192 3.843 4.672 6.624 8.778 6.624 4.067 0 7.519-2.728 8.743-6.512-2.113 2.527-5.233 4.125-8.714 4.125-3.532 0-6.693-1.646-8.807-4.237zm-5.84-13.433c8.87 0 16.061-7.248 16.061-16.191 0-8.942-7.191-16.191-16.061-16.191-8.87 0-16.061 7.249-16.061 16.191 0 8.943 7.191 16.191 16.061 16.191zM32.852 49.309c1.49 4.697 5.839 8.096 10.973 8.096 5.083 0 9.398-3.333 10.928-7.959-2.641 3.088-6.541 5.042-10.892 5.042-4.416 0-8.367-2.012-11.009-5.179z" fill="url(#a)" transform="translate(8.5)"/><defs><linearGradient id="a" x2="1" gradientUnits="userSpaceOnUse" gradientTransform="rotate(90 21.979 21.996) scale(81.7452)"><stop offset="0%" stop-color="#00c4ff"/><stop offset="100%" stop-color="#007fff"/></linearGradient></defs></svg>