<svg xmlns="http://www.w3.org/2000/svg" viewBox="0 0 64 64"><g fill="#00A0E9"><path d="M30.1 17.7H34v4.2h-3.9z"/><path d="M46.2.3H17.8c-6.1 0-11 5.4-11 12v31.1c0 6.6 4.9 12 11 12h9.5l4.7 8.2 4.7-8.2h9.6c6.1 0 11-5.4 11-12v-31C57.2 5.7 52.3.3 46.2.3zM21.8 21.9h4.1v-4.2h-4.1v-4.5h4.1V8.7h4.2v4.5H34V8.7h4.2v4.5h4.1v4.5h-4.1v4.2h4.1v4.5h-4.1v4.5H34v-4.5h-3.9v4.5h-4.2v-4.5h-4.1v-4.5zm29.3 13.9s-5.5 11.3-18.5 11.3h-1c-13 0-18.5-11.3-18.5-11.3s-.4-.7-.4-1.5c0-.6.2-1.4.9-1.9.4-.3.7-.4 1.1-.4 1.6-.2 2.5.9 3.2 2.2.8 1.4 5.6 7.6 14.2 7.8 8.6-.2 13.4-6.4 14.2-7.8.7-1.3 1.7-2.4 3.2-2.2.3 0 .7.2 1.1.4.7.5.9 1.2.9 1.9-.1 1-.4 1.5-.4 1.5z"/></g></svg>