<svg xmlns="http://www.w3.org/2000/svg" viewBox="0 0 64 64"><path d="M59.112 22.867c-.941-5.133-3.189-9.616-6.739-13.442a26.044 26.044 0 0 0-5.031-4.21c-3.452-2.219-7.212-3.579-11.291-4.06-.497-.059-1.001-.051-1.491-.168h-3.519c-.038.089-.12.056-.184.062-.906.08-1.808.183-2.701.353-6.534 1.238-11.901 4.447-16.054 9.629-3.416 4.262-5.298 9.152-5.704 14.603a26.624 26.624 0 0 0 .573 7.842 25.289 25.289 0 0 0 1.936 5.552l.228.453c1.419 2.794 3.244 5.283 5.53 7.433a26.067 26.067 0 0 0 3.884 3.04c4.268 2.709 8.928 4.13 13.99 4.194.31.004.395.081.393.398-.014 2.709-.009 5.419-.008 8.128 0 .105.009.21.014.341.088-.036.143-.056.196-.081 5.088-2.391 9.761-5.412 13.927-9.199a39.408 39.408 0 0 0 2.385-2.365c.327-.352.65-.709.978-1.06.506-.541.943-1.145 1.42-1.714.55-.657 1.044-1.354 1.532-2.057a34.208 34.208 0 0 0 2.849-4.883c.409-.865.799-1.737 1.143-2.629.012-.017.027-.032.034-.05.94-2.443 1.542-4.971 1.863-7.565.112-.903.184-1.812.23-2.721a25.263 25.263 0 0 0-.383-5.824zM24.85 39.175c-.457.124-.923.195-1.388.263-.36.053-.594-.147-.729-.472l.004-3.003c.017-.295-.101-.61.135-.87a.825.825 0 0 1 .429-.262c.524-.132 1.055-.238 1.533-.522.88-.525 1.427-1.282 1.669-2.27.038-.155.074-.312.11-.468l-6.332-.011a2 2 0 0 1-.54-.056c-.538-.149-.95-.64-.951-1.195-.004-3.191.002-6.383.004-9.574-.044-.51 0-.988.43-1.352.233-.197.489-.317.795-.317 3.103-.001 6.207.002 9.31-.002.821-.001 1.501.827 1.238 1.637.063.153.052.315.052.475.001 3.478.02 6.956-.006 10.434-.017 2.308-.916 4.249-2.605 5.823-.088.082-.173.167-.26.251-.877.671-1.824 1.2-2.898 1.491zm17.168-.222l-.118.033a2.274 2.274 0 0 1-.067.038c-.601.17-1.207.311-1.826.402-.473.069-.83-.198-.835-.673l-.01-1 .017-1.791c-.003-.131-.008-.263-.008-.394.001-.458.177-.651.747-.782.722-.166 1.403-.399 1.965-.921.675-.627 1.016-1.409 1.171-2.294l-5.848-.011c-.212 0-.424.003-.636-.001-.797-.013-1.341-.564-1.341-1.364.001-3.152.005-6.303.008-9.455 0-.03-.003-.06-.005-.091-.061-.59.108-1.073.632-1.401a1.21 1.21 0 0 1 .659-.181c3.083-.002 6.165.001 9.248-.002.821-.001 1.501.827 1.238 1.637.063.153.052.314.052.474 0 3.483.002 6.967-.001 10.451-.003 3.112-1.953 6.024-4.828 7.22-.074.03-.143.07-.214.106z" fill-rule="evenodd" clip-rule="evenodd" fill="#5fb549"/><path d="M41.833 39.024c-.601.17-1.207.311-1.826.402-.473.069-.83-.198-.835-.673l-.01-1 .017-1.791c.172-.398.544-.471.907-.553 1.685-.38 2.717-1.48 2.96-3.183.03-.212.161-.436.008-.655l-5.848-.011c-.212 0-.424.003-.636-.001-.797-.013-1.341-.564-1.341-1.364.001-3.152.005-6.303.008-9.455 0-.03-.003-.06-.005-.091.085-.037.091-.126.129-.195.263-.47.656-.723 1.204-.723 3.06.001 6.119-.001 9.179.002.622 0 1.09.365 1.266.969.063.153.052.314.052.474 0 3.483.002 6.967-.001 10.451-.003 3.112-1.953 6.024-4.828 7.22-.073.03-.142.07-.213.106l-.118.033a1.429 1.429 0 0 0-.069.038zm-14.086-1.34c-.877.671-1.824 1.2-2.898 1.491-.457.124-.923.195-1.388.263-.36.053-.594-.147-.729-.472l.004-3.003c.165-.383.519-.463.873-.544 1.711-.395 2.692-1.415 2.985-3.136.039-.228.169-.472.017-.711l-6.332-.011a2 2 0 0 1-.54-.056c-.538-.149-.95-.64-.951-1.195-.004-3.191.002-6.383.004-9.574.228-.595.615-1 1.291-1.001 3.082-.006 6.164-.004 9.245-.001.598.001 1.07.381 1.236.968.063.153.052.315.052.475.001 3.478.02 6.956-.006 10.434-.017 2.308-.916 4.249-2.605 5.823-.086.081-.171.166-.258.25z" fill-rule="evenodd" clip-rule="evenodd" fill="#fff"/><path d="M30.566 20.702c-.167-.588-.638-.967-1.236-.968a3165.52 3165.52 0 0 0-9.245.001c-.676.001-1.063.406-1.291 1.001-.044-.51 0-.988.43-1.352.233-.197.489-.317.795-.317 3.103-.001 6.207.002 9.31-.002.82-.001 1.5.827 1.237 1.637zm16.442 0c-.177-.604-.644-.968-1.266-.969-3.06-.003-6.119-.001-9.179-.002-.547 0-.94.253-1.204.723-.038.068-.044.157-.129.195-.061-.59.108-1.073.632-1.401a1.21 1.21 0 0 1 .659-.181c3.083-.002 6.165.001 9.248-.002.822-.001 1.502.827 1.239 1.637zm-3.955 10.869c.153.219.022.443-.008.655-.243 1.702-1.275 2.802-2.96 3.183-.363.082-.735.154-.907.553-.003-.131-.008-.262-.008-.393.001-.458.177-.651.747-.782.722-.166 1.403-.399 1.965-.921.676-.628 1.016-1.41 1.171-2.295zm-16.441 0c.152.239.022.483-.017.711-.293 1.72-1.274 2.741-2.985 3.136-.354.082-.708.161-.873.544.017-.295-.101-.61.135-.87a.825.825 0 0 1 .429-.262c.524-.132 1.055-.238 1.533-.522.88-.525 1.427-1.282 1.669-2.27.037-.154.072-.311.109-.467z" fill-rule="evenodd" clip-rule="evenodd" fill="#50a245"/><path d="M41.833 39.024l.067-.038-.067.038z" fill-rule="evenodd" clip-rule="evenodd" fill="#58ac47"/></svg>