<svg xmlns="http://www.w3.org/2000/svg" viewBox="0 0 64 64"><g fill="#274970"><path d="M49.3 35.8c0-.7-.5-1.3-1.3-1.3-.3 0-.6.1-.8.3-3.2 2.9-8.6 5.4-15.2 5.4s-11.8-2.7-15.2-5.4c-.2-.2-.6-.3-.9-.3-.8 0-1.2.7-1.2 1.4 0 .6.4 1 .7 1.5 1.9 2.8 7.7 7.6 16.5 7.6h.1c8.8 0 14.6-4.8 16.5-7.6.4-.4.8-1 .8-1.6"/><path d="M49.6 55.2c.1.1.2.2.2.4s-.2.3-.4.3c-1.6 0-6.5-2.6-9.1-4.8-.4-.3-.8-.4-1.5-.3-2.1.5-4.4.7-6.7.7-14.6 0-26.4-9.8-26.4-21.8C5.6 17.7 17.4 8 32 8c14.6 0 26.4 9.8 26.4 21.8 0 7.2-4.2 13.5-10.7 17.5-.4.3-.9.8-.9 1.4 0 1.3 1.2 4.4 2.8 6.5zm8.5 2.7c-2.2-1.3-4.4-3.4-5.3-6.4-.2-.6 0-1 .4-1.4 6.5-5 10.6-12.3 10.6-20.4C63.7 14.6 49.5 2.4 32 2.4S.3 14.6.3 29.7C.3 44.8 14.5 57.1 32 57.1c2.3 0 4.5-.2 6.7-.6.5-.1 1 0 1.3.2 4.3 2.7 10.8 4.9 16.5 4.9 1.8 0 2.5-1.2 2.5-2.2 0-.7-.4-1.2-.9-1.5z"/></g></svg>