<svg xmlns="http://www.w3.org/2000/svg" viewBox="0 0 64 64"><path d="M32.382 23.683c-.285-3.787-.585-7.573-.568-11.374.006-1.363.018-2.736.402-4.056.829-2.845 2.725-4.703 5.497-5.633 2.675-.897 5.287-.69 7.686.866 2.067 1.34 3.215 3.312 3.621 5.728a8.09 8.09 0 0 1-.1 3.229c-.369 1.56-1.121 2.939-2.062 4.224a42.2 42.2 0 0 1-3.897 4.586c-1.655 1.692-3.353 3.341-5.033 5.008-1.522-1.563-3.382-2.397-5.546-2.578z" fill="#43be42"/><path d="M31.153 39.943c.141 1.851.289 3.702.419 5.554.11 1.563.218 3.127.293 4.692.054 1.136.116 2.277.061 3.411-.113 2.352-.85 4.486-2.516 6.212-2.893 2.999-7.304 2.899-10.227.513-2.195-1.792-2.998-4.188-2.733-6.969.159-1.662.793-3.149 1.722-4.519 1.58-2.332 3.376-4.497 5.172-6.66 1.125-1.354 2.271-2.69 3.408-4.034.039.018.083.03.115.056 1.257 1.004 2.702 1.544 4.286 1.744zm8.85-6.653c2.824.021 5.648.017 8.471.074 1.651.033 3.307.094 4.948.265 1.971.205 3.77.917 5.251 2.283 2.165 1.998 2.803 4.923 1.679 7.762-1.161 2.934-3.374 4.49-6.484 4.768-2.231.2-4.274-.453-6.058-1.739-1.423-1.026-2.753-2.193-4.048-3.382-2.04-1.873-4.015-3.815-6.017-5.729.317-.39.652-.767.948-1.173.682-.937 1.035-2.018 1.31-3.129z" fill="#2aac54"/><path d="M23.806 31.229c-2.008.185-4.014.411-6.026.543-2.141.141-4.287.259-6.431.262-1.912.003-3.758-.426-5.363-1.541-2.153-1.495-3.081-3.595-2.874-6.187.164-2.052.983-3.821 2.482-5.244 1.284-1.219 2.851-1.809 4.604-1.882 2.607-.108 4.872.826 6.919 2.364 1.364 1.025 2.731 2.048 4.059 3.119 1.551 1.252 3.06 2.555 4.587 3.836a8.546 8.546 0 0 0-1.957 4.73zm2.558-5.346c-1.814-1.799-3.645-3.582-5.436-5.404-1.397-1.422-2.745-2.894-3.867-4.55-1.074-1.586-1.685-3.329-1.573-5.267.157-2.724 1.489-4.673 3.976-5.796 2.016-.91 4.078-1.09 6.133-.14C27.8 5.744 29.1 7.533 29.596 9.861c.374 1.759.589 3.552.852 5.334.156 1.053.273 2.111.4 3.168.212 1.773.417 3.548.625 5.321-.709.144-1.432.241-2.125.441-1.138.328-2.102.982-2.984 1.758zm12.094.991c1.799-1.48 3.572-2.993 5.405-4.43 1.417-1.111 2.864-2.196 4.379-3.166 1.536-.983 3.249-1.544 5.111-1.525 2.956.031 5.443 2.04 6.103 4.922.377 1.646.211 3.223-.602 4.709-.423.773-1.028 1.399-1.714 1.95-1.349 1.083-2.917 1.618-4.606 1.838-2.472.322-4.943.653-7.421.931-1.663.186-3.336.287-5.004.426.047-1.074-.057-2.128-.379-3.16-.283-.906-.767-1.704-1.272-2.495z" fill="#43be42"/><path d="M38.458 26.874c.504.79.989 1.589 1.272 2.495.322 1.032.426 2.086.379 3.16l-.106.762c-.274 1.111-.628 2.192-1.311 3.129-.296.406-.631.783-.948 1.173l-.707.581c-.52.331-1.02.699-1.563.986-1.091.578-2.286.771-3.506.836l-.815-.053c-1.584-.2-3.029-.74-4.285-1.746-.033-.026-.077-.038-.115-.056l-.583-.538c-.314-.391-.653-.765-.938-1.176-.905-1.308-1.373-2.768-1.44-4.356l.015-.841a8.541 8.541 0 0 1 1.956-4.73l.601-.616c.883-.776 1.847-1.43 2.984-1.759.693-.2 1.415-.298 2.125-.441l.91-.001c2.164.182 4.024 1.016 5.546 2.578l.529.613z" fill="#f9e91b"/><path d="M31.968 39.996c1.22-.065 2.415-.258 3.506-.836.543-.287 1.043-.655 1.563-.986.053.031.119.052.159.096 2.643 2.864 5.294 5.721 7.72 8.774 1.083 1.363 1.826 2.901 2.134 4.626.306 1.715.127 3.348-.982 4.769-1.042 1.335-2.47 2.048-4.096 2.375-1.779.358-3.426.016-4.881-1.091-1.15-.875-1.902-2.049-2.458-3.367-.559-1.325-.844-2.721-1.079-4.126a998.29 998.29 0 0 1-1.335-8.254c-.105-.658-.169-1.321-.251-1.98z" fill="#2aac54"/><path d="M23.791 32.071c.066 1.589.535 3.048 1.44 4.356.285.411.624.785.938 1.176-2.418 2.669-4.971 5.201-7.714 7.535-.653.556-1.333 1.115-2.085 1.511-1.948 1.025-3.906.879-5.749-.288-1.871-1.185-3.036-2.892-3.373-5.096-.339-2.219.454-4.025 2.163-5.441 1.278-1.058 2.796-1.615 4.377-2.012 3.187-.799 6.428-1.294 9.685-1.693.107-.012.212-.032.318-.048z" fill="#d84043"/></svg>