<svg xmlns="http://www.w3.org/2000/svg" viewBox="0 0 501 501"><g fill="#0072c6"><path d="M236 .7C137.7 7.5 54.1 68.2 18.2 158.5-13.9 239.4-1.4 331.3 51.1 401c39.9 53 97.3 86.9 164.4 97.1 16.5 2.6 48.1 3.1 63.5 1.1 48.7-6.3 92.2-24.6 128.9-54.2 13-10.5 33.1-31.2 42.3-43.7 26.4-35.5 42.8-75.8 48.9-120.3 1.7-12.3 1.7-48.7 0-61-3.9-28.3-11.9-54.8-24.1-79.5-12.8-26.1-26.5-45.3-46.8-65.8-10.4-10.6-28-25.7-29.8-25.7-.6 0-.4 10.5.3 26l1.3 25.9 7.1 8.8c19 23.7 32.7 53.5 38.1 83.1 2.5 14 3 42.8.9 55.7-4.4 27.8-15.1 54.1-30.9 76.5-8.6 12.2-28 31.6-40.2 40.2-24.1 17-49.9 27.6-80 33-10.1 1.8-48.9 1.8-59 0-42.9-7.7-78.8-26-107.2-54.8-29.3-29.7-46.5-64-52.4-104.4-2-14.1-1.5-41.9 1.1-55C89.8 121.4 131.9 72 192 49.7c7.9-2.9 18.4-5.8 29.5-8.2 1.7-.4 34.4-37.9 35.3-40.6.3-.8-10.2-1-20.8-.2z"/><path d="M322.2 24.6c-1.3.8-8.4 9.3-15.9 18.7-7.5 9.5-22.5 28-33.3 41.2-50.9 62.2-65.9 81.6-70.6 90.9-6 12.2-8.4 21.1-9.1 33.1-1.1 19.8 5.2 36.1 19.2 50 9.4 9.4 17.5 14.4 30.5 18.7 8.9 3 10.4 3.2 24 3.2 13.8 0 14.9-.1 22.6-3.1 23.2-8.8 39-28.3 45-55.6 1.9-8.2 2-28.7.4-79.7-.5-16.8-1.4-49.2-2.1-72-1-36.8-1.3-41.8-2.8-44-2.2-3.1-4.9-3.6-7.9-1.4z"/></g></svg>