<svg xmlns="http://www.w3.org/2000/svg" viewBox="-62 -145 300 300"><path fill="#222427" d="M219.8 60.5h-12.2c-3.5 0-6.9-1.5-9.3-4l-34.2-37.3L153 31.3l33 35.9c5.5 6 13.4 9.4 21.7 9.4h12.2c2.3 0 4.2-1.8 4.2-4v-8.1c-.2-2.2-2-4-4.3-4M11.9 19.2l-34.2 37.3c-2.4 2.6-5.7 4-9.3 4h-12.2c-2.3 0-4.2 1.8-4.2 4v8.1c0 2.2 1.9 4 4.2 4h12.2c8.3 0 16.2-3.4 21.7-9.4l33-35.9-11.2-12.1zM88 61.6c-7.1 0-13.9-2.9-18.6-8.1l-91.8-99.9c-2.4-2.6-5.7-4-9.3-4h-12.2c-2.3 0-4.2-1.8-4.2-4v-8.1c0-2.2 1.9-4 4.2-4h12.2c8.3 0 16.2 3.4 21.7 9.4l91.6 99.7c1.5 1.7 3.7 2.8 6 2.9 2.5.1 4.9-.9 6.6-2.7L186-57.1c5.5-6 13.4-9.4 21.7-9.4h12.2c2.3 0 4.2 1.8 4.2 4v8.1c0 2.2-1.9 4-4.2 4h-12.2c-3.5 0-6.9 1.5-9.3 4l-91.8 99.9c-4.7 5.1-11.5 8.1-18.6 8.1z"/></svg>