<svg xmlns="http://www.w3.org/2000/svg" viewBox="170 170 160 160"><path d="M294.2 325h-88.5c-16.9 0-30.8-13.8-30.8-30.8v-88.5c0-16.9 13.8-30.8 30.8-30.8h88.5c16.9 0 30.8 13.8 30.8 30.8v88.5c0 16.9-13.9 30.8-30.8 30.8z" fill="#18b6ad"/><path d="M213.9 256.4l25.3 30.6c2.8 3.4 1.5 6.2-2.9 6.2H211c-2.1 0-3.8-1.7-3.8-3.8v-30.6c0-5.8 3-6.9 6.7-2.4zm78.9-45.4v30.5c0 5.8-3 6.9-6.7 2.4l-25.4-30.5c-2.9-3.4-1.5-6.2 2.9-6.2H289c2.1 0 3.8 1.7 3.8 3.8zm-42.6.9l39.6 47.6c1.7 2 3 5.8 3 8.4v21.6c0 2.1-1.7 3.8-3.8 3.8h-29.2c-3.4 0-7.9-2.2-10.1-4.7l-39.6-47.8c-1.7-2-3-5.8-3-8.4V211c0-2.1 1.7-3.8 3.8-3.8h29.2c3.4 0 7.9 2.1 10.1 4.7z" fill="#fff"/></svg>