<svg xmlns="http://www.w3.org/2000/svg" viewBox="0 0 64 64"><path fill="#FFF" d="M33.6 55.6C21.6 55.6 7.9 41.1 9 29 10.1 17.6 25.4 6.9 36.7 8.5c10 1.4 18.9 14 18.3 24-.5 10.5-10.9 23.1-21.4 23.1z"/><path fill="#00AFF0" d="M41.4 62c-.8-.3-2.1-.5-2.7-.8-.8-.4-1.8-.4-4.8-.3-2.9.1-4.4 0-6.4-.3-11-1.9-19.8-9.9-22.9-20.8-.5-2.1-.7-3.1-.7-8.1 0-5.3-.1-5.7-.8-7.9C-.9 13 7.2 1.6 18.7 1.6c2.3 0 5.2.7 6.8 1.5 1.1.5 1.8.7 6 .7 3.8 0 5.3.1 7.3.7 8.6 2.2 15.6 7.8 19.3 15.6 2.3 4.8 3.1 9.7 2.6 15.3-.3 3-.3 3.3.4 5.1 2.2 6.4.1 13.8-5.2 18.2-1.6 1.4-4.9 2.9-7 3.4-2.1.4-5.3.4-7.4-.1h-.1zm-3.7-10.6c4.5-1 8.5-3.7 10-7 1.9-4 1.4-8.6-1.2-11.5-2.2-2.5-5.5-3.8-13.3-5.7-5.2-1.2-6.4-1.8-7.5-3-1-1.1-1.1-1.9-.3-3.1.8-1.4 2.9-2.2 5.6-2.3 4-.3 5.7.7 8.1 4.4 1.8 2.7 3.6 3.4 5.9 2.3 3-1.5 2.7-6.4-.5-9.3-3.1-2.6-6.6-3.7-12.3-3.7-6 0-10.1 1.2-12.9 4-2.2 2.2-2.6 3.4-2.6 6.8 0 3.6.4 4.7 2.7 6.7 2.5 2.3 4.5 3.1 11.9 4.9 5.2 1.2 6.6 1.9 7.8 3.3.5.7.8 1.2.8 2.5 0 1.4-.1 1.6-1.2 2.7-1.6 1.6-4.1 2.3-7.3 2.2-3.7-.3-5.3-1.4-7.3-5.2-1.4-2.6-2.5-3.6-4.2-3.6-4 0-5.3 3.3-3.3 7.5 1.8 3.7 5.3 6.2 9.9 7.1 2.7.5 8.8.5 11.4 0h-.2z"/></svg>