<svg xmlns="http://www.w3.org/2000/svg" viewBox="0 0 64 64"><path fill="#DFA22F" d="M41.3 4.4c-1-2.9-4.1-4.6-7.1-3.6-2.9 1-4.6 4.1-3.6 7.1l14.5 44.6c1 2.8 4 4.3 6.8 3.5 3-.9 4.8-4 3.8-6.9.1-.2-14.4-44.7-14.4-44.7"/><path fill="#3CB187" d="M18.9 11.7c-1-2.9-4.1-4.6-7.1-3.6-2.9 1-4.6 4.1-3.6 7.1l14.5 44.6c1 2.8 4 4.3 6.8 3.5 3-.9 4.8-4 3.8-6.9 0-.2-14.4-44.7-14.4-44.7"/><path fill="#CE1E5B" d="M59.6 41.3c2.9-1 4.6-4.1 3.6-7.1-1-2.9-4.1-4.6-7.1-3.6L11.5 45.2c-2.8 1-4.3 4-3.5 6.8.9 3 4 4.8 6.9 3.8.2 0 44.7-14.5 44.7-14.5"/><path fill="#392538" d="M20.8 53.9c2.9-.9 6.6-2.2 10.7-3.5-.9-2.9-2.2-6.6-3.5-10.7l-10.7 3.5 3.5 10.7"/><path fill="#BB242A" d="M43.3 46.6c4-1.3 7.8-2.5 10.7-3.5-.9-2.9-2.2-6.6-3.5-10.7L39.8 36l3.5 10.6"/><path fill="#72C5CD" d="M52.3 18.9c2.9-1 4.6-4.1 3.6-7.1-1-2.9-4.1-4.6-7.1-3.6L4.2 22.7c-2.8 1-4.3 4-3.5 6.8.9 3 4 4.8 6.9 3.8.2 0 44.7-14.4 44.7-14.4"/><path fill="#248C73" d="M13.5 31.5c2.9-.9 6.6-2.2 10.7-3.5-1.3-4-2.5-7.8-3.5-10.7L10 20.8l3.5 10.7"/><path fill="#62803A" d="M36 24.2c4-1.3 7.8-2.5 10.7-3.5-1.3-4-2.5-7.8-3.5-10.7l-10.7 3.5L36 24.2"/></svg>