<svg xmlns="http://www.w3.org/2000/svg" viewBox="0 0 64 64"><path fill="#333" d="M59.8 26.1c0 2.6-2.1 4.6-4.6 4.6-2.6 0-4.6-2.1-4.6-4.6s2.1-4.6 4.6-4.6c2.5-.1 4.6 2 4.6 4.6zm-4.7-8.6c-4.7 0-8.6 3.8-8.6 8.5l-5.4 7.7h-.7c-1.2 0-2.3.3-3.3.9L13 24.8c-.6-2.9-3.2-5-6.3-5-3.5 0-6.4 2.9-6.4 6.4s2.9 6.4 6.4 6.4c1.2 0 2.3-.3 3.3-.9l24.3 9.8c.6 2.9 3.2 5 6.3 5 3.3 0 6.1-2.6 6.4-5.8l8.3-6c4.8 0 8.6-3.9 8.6-8.6-.2-4.7-4-8.6-8.8-8.6zm0 2.8c3.2 0 5.8 2.6 5.8 5.8s-2.6 5.8-5.8 5.8c-3.2 0-5.8-2.6-5.8-5.8s2.6-5.8 5.8-5.8zM6.7 21.4c1.8 0 3.4 1 4.2 2.5L8.5 23c-1.9-.7-4 .3-4.7 2.1-.8 1.9.1 4 2 4.8l2 .8c-.3.1-.7.1-1 .1-2.6 0-4.7-2.1-4.7-4.7-.2-2.6 1.9-4.7 4.6-4.7zm33.8 13.9c2.6 0 4.7 2.1 4.7 4.7s-2.1 4.7-4.7 4.7c-1.8 0-3.4-1-4.2-2.5.8.3 1.6.6 2.3.9 1.9.8 4.1-.2 4.9-2.1.8-1.9-.2-4.1-2.1-4.9l-2-.8c.4.1.8.1 1.1 0z"/></svg>