<svg xmlns="http://www.w3.org/2000/svg" viewBox="0 0 128 128"><linearGradient id="a" gradientUnits="userSpaceOnUse" x1="-683.305" y1="-406.845" x2="-693.305" y2="-383.512" gradientTransform="matrix(3.2 0 0 3.2 2269.334 1322.133)"><stop offset="0" stop-color="#37aee2"/><stop offset="1" stop-color="#1e96c8"/></linearGradient><path fill="url(#a)" d="M128 64c0 35.4-28.6 64-64 64S0 99.4 0 64 28.6 0 64 0s64 28.6 64 64z"/><path fill="#C8DAEA" d="M52.3 93.3c-2.1 0-1.7-.8-2.5-2.8l-6.1-20.1 37.8-23.6 4.4 1.2-3.7 10-29.9 35.3z"/><path fill="#A9C9DD" d="M52.3 93.3c1.6 0 2.3-.7 3.2-1.6C56.9 90.4 74.7 73 74.7 73l-10.9-2.7-10.1 6.4-1.3 16v.6z"/><linearGradient id="b" gradientUnits="userSpaceOnUse" x1="129.008" y1="9.745" x2="154.008" y2="49.745" gradientTransform="translate(0 60.8) scale(.5333)"><stop offset="0" stop-color="#eff7fc"/><stop offset="1" stop-color="#fff"/></linearGradient><path fill="url(#b)" d="M53.3 77l25.8 19c2.9 1.6 5.1.8 5.8-2.7l10.5-49.5c1.1-4.3-1.7-6.2-4.5-5L29.3 62.7c-4.2 1.7-4.2 4.1-.7 5.1l15.8 5L81 49.7c1.7-1.1 3.3-.5 2 .7L53.3 77z"/></svg>