<svg xmlns="http://www.w3.org/2000/svg" viewBox="0 0 200 200"><path d="M194 23.7V140c0 12.7-7.8 26.1-20.3 26.1h-42.6L101.6 196l-29.7-30H30.1C17.6 166 5 152.6 5 139.9V23.7C5 11 17.6 4 30.1 4h143.7c12.4 0 20.2 7 20.2 19.7z" fill="#55acee"/><path d="M167.3 43.7c-4.8 2.1-10 3.6-15.5 4.2 5.6-3.3 9.8-8.6 11.8-14.9-5.2 3.1-11 5.3-17.1 6.6-4.9-5.2-11.9-8.5-19.7-8.5-14.9 0-27 12.1-27 27 0 2.1.2 4.2.7 6.1C78.2 63.1 58.3 52.3 45 36c-2.3 4-3.6 8.6-3.6 13.6 0 9.4 4.8 17.6 12 22.4-4.4-.1-8.6-1.4-12.2-3.4v.3c0 13.1 9.3 24 21.6 26.4-2.3.6-4.6.9-7.1.9-1.7 0-3.4-.2-5.1-.5 3.4 10.7 13.4 18.5 25.2 18.7C66.6 121.6 55 126 42.3 126c-2.2 0-4.3-.1-6.4-.4 11.9 7.6 26.1 12.1 41.3 12.1 49.6 0 76.7-41.1 76.7-76.7 0-1.2 0-2.3-.1-3.5 5.4-3.6 9.9-8.4 13.5-13.8z"/></svg>