<svg xmlns="http://www.w3.org/2000/svg" viewBox="0 0 64 64"><path fill="#2DC100" d="M63.7 54.2c0 5.2-4.3 9.5-9.5 9.5H9.8c-5.2 0-9.5-4.3-9.5-9.5V9.8C.3 4.6 4.6.3 9.8.3h44.3c5.2 0 9.5 4.3 9.5 9.5v44.4z"/><g fill="#FFF"><path d="M42.7 24c-5.1.3-9.6 1.8-13.2 5.3-3.6 3.5-5.3 7.9-4.9 13.2-2-.2-3.8-.5-5.6-.7-.6-.1-1.4 0-1.9.3-1.8 1-3.5 2.1-5.5 3.4.4-1.7.6-3.1 1-4.6.3-1 .2-1.6-.8-2.3C5.7 34.3 3.1 27.8 5 21.1c1.8-6.2 6.2-9.9 12.2-11.9 8.2-2.7 17.3.1 22.3 6.5 1.8 2.5 2.9 5.1 3.2 8.3zm-23.5-2.1c0-1.2-1-2.3-2.3-2.4-1.3 0-2.3.9-2.4 2.2 0 1.3.9 2.3 2.2 2.3 1.4.1 2.5-.9 2.5-2.1zm12.3-2.4c-1.3 0-2.3 1.1-2.3 2.3 0 1.3 1.1 2.3 2.4 2.2 1.3 0 2.3-1 2.3-2.3-.1-1.2-1.1-2.2-2.4-2.2z"/><path d="M54.2 55.8c-1.6-.7-3.1-1.8-4.7-2-1.6-.2-3.2.7-4.9.9-5 .5-9.5-.9-13.2-4.3-7.1-6.5-6-16.5 2.1-21.9 7.2-4.7 17.9-3.2 23 3.4 4.5 5.8 3.9 13.4-1.5 18.2-1.6 1.4-2.1 2.5-1.1 4.4.2.5.2.9.3 1.3zM35.8 38c1 0 1.9-.8 1.9-1.8 0-1.1-.8-2-1.9-2-1.1 0-2 .9-1.9 2 0 1 .9 1.8 1.9 1.8zm11.9-3.8c-1 0-1.8.8-1.9 1.8 0 1.1.8 2 1.9 2 1 0 1.9-.8 1.9-1.8 0-1.1-.9-2-1.9-2z"/></g></svg>