<svg xmlns="http://www.w3.org/2000/svg" viewBox="0 0 300 300"><path d="M278.993 179.778c0 40.396-32.498 73.26-72.886 73.26-16.268 0-31.444-5.398-43.616-14.405 13.611-15.842 21.71-36.38 21.71-58.855l.031-116.576c-.002-19.011-15.466-34.479-34.471-34.479-19.009 0-34.469 15.468-34.469 34.477l-.032 116.576c0 22.475 8.646 43.018 22.252 58.855-12.168 9.011-27.348 14.409-43.614 14.409-40.392 0-73.428-32.866-73.428-73.264V37.566H3.237v142.212c0 49.897 40.951 90.499 90.845 90.499 21.152 0 40.77-7.352 56.192-19.562 15.424 12.21 34.586 19.562 55.74 19.562 49.89 0 90.209-40.602 90.209-90.499V37.566h-17.234v142.212h.004zM149.73 226.892c-10.733-12.75-17.234-29.18-17.234-47.114l.029-116.576c0-9.509 7.73-17.239 17.234-17.239 9.503 0 17.234 7.73 17.234 17.236l-.032 116.576c0 17.938-6.497 34.364-17.234 47.114l.003.003z"/></svg>