<svg xmlns="http://www.w3.org/2000/svg" viewBox="0 0 64 64"><linearGradient id="a" gradientUnits="userSpaceOnUse" x1="-1876.212" y1="11.675" x2="-1876.212" y2="55.58" gradientTransform="matrix(1 0 0 -1 1916.032 66.001)"><stop offset=".011" stop-color="#1b3967"/><stop offset=".467" stop-color="#13b5ea"/><stop offset=".995" stop-color="#002b5c"/></linearGradient><path d="M49.388 15.369c.027.458-.623.338-.623.8 0 13.449-15.602 33.782-31.345 37.745v.412c20.917-1.922 44.213-23.305 44.74-43.906l-12.769 4.95-.003-.001z" fill="url(#a)"/><path d="M43.785 16.685c.027.458.042.919.042 1.381 0 13.449-10.71 31.572-26.454 35.536v.571c20.606-1.334 36.914-21.987 36.914-38.097 0-.829-.044-1.65-.129-2.462l-10.372 3.069-.001.002z" fill="#e96d1f"/><linearGradient id="b" gradientUnits="userSpaceOnUse" x1="-1030.729" y1="11.327" x2="-1030.729" y2="55.581" gradientTransform="rotate(180 -503.108 33)"><stop offset=".011" stop-color="#1b3967"/><stop offset=".467" stop-color="#13b5ea"/><stop offset=".995" stop-color="#002b5c"/></linearGradient><path d="M14.608 15.369c-.027.458.623.338.623.8 0 13.449 16.243 33.968 31.988 37.933v.572C26.303 52.748 2.368 31.021 1.841 10.42l12.768 4.95-.001-.001z" fill="url(#b)"/><path d="M20.934 17.024c-.027.458-.042.918-.042 1.38 0 13.449 10.71 31.572 26.454 35.536v.572c-20.599-.973-36.914-21.987-36.914-38.097 0-.829.045-1.65.129-2.462l10.373 3.071z" fill="#a0ce67"/><path d="M10.461 13.762l2.657.95c-.014.336-.023.786-.023 1.125 0 14.38 13.003 34.261 30.447 37.371 1.132.38 2.63.725 3.814 1.023v.571C24.591 52.863 8.597 29.73 10.46 13.761l.001.001z" fill="#439639"/><path d="M54.289 13.475l-2.733.916c.014.336.067.769.067 1.107 0 14.38-13.003 34.261-30.448 37.371-1.131.38-2.63.725-3.813 1.023v.572c23.843-3.021 38.788-25.021 36.925-40.989h.002z" fill="#d9541e"/></svg>