<svg height="60" viewBox="0 0 60 60" width="60" xmlns="http://www.w3.org/2000/svg"><title/><g fill="none" fill-rule="evenodd"><path d="M30 60c16.569 0 30-13.431 30-30C60 13.431 46.569 0 30 0 13.431 0 0 13.431 0 30c0 16.569 13.431 30 30 30z" fill="#7E4EA3"/><path d="M48.462 30c0-10.197-8.265-18.462-18.462-18.462-10.196 0-18.462 8.265-18.462 18.462 0 10.196 8.265 18.462 18.462 18.462S48.462 40.196 48.462 30zM25.384 19.615a2.308 2.308 0 1 1 0 4.616 2.308 2.308 0 0 1 0-4.616zm9.231 0a2.308 2.308 0 1 1 0 4.616 2.308 2.308 0 0 1 0-4.616zm-17.307 8.077h25.384v4.644h-.052c-.527 6.443-5.979 11.51-12.641 11.51-6.66 0-12.112-5.067-12.638-11.51h-.053v-4.644zm23.077 4.616h-20.77V30h20.77v2.308z" fill="#FFF"/></g></svg>