<svg xmlns="http://www.w3.org/2000/svg" viewBox="0 0 200 200"><path d="M182 126l-.2 29.3c1 10.3-6.5 18.4-18.2 18.4-22 .1-43.9.1-65.9-.1-3.7 0-6.8.8-9.8 3.1-7.5 5.8-15.4 11.4-23.1 17-1.2.8-1.9 1.5-4.9 2.8v-22.8H38.2c-12.4 0-19.4-7-19.4-19.3V29.5c0-12.1 7.4-19.5 19.5-19.5h125.3c10.2 0 17.9 7.5 17.6 16.4l.3 23 .3 75.2v1.4z" fill="#fff"/><path d="M182 49.3v75.4l-.1-75.2c0-.1.1-.1.1-.2z" fill="#14aae1"/><path d="M181.3 155c1 10.3-6.3 18.4-18 18.4-22 .1-43.9.1-65.9-.1-3.7 0-6.8.8-9.8 3.1-7.5 5.8-15.3 11.4-23 17-1.2.9-2.5 1.5-4.7 2.8v-22.8H38.1c-12.4 0-19.5-7-19.5-19.3V29.2c0-12.1 7.4-19.5 19.5-19.5h125.3c10.2 0 17.9 7.5 17.6 16.4-7.9-.2-15.8-.5-23.7-.6-22-.1-43.9 0-65.9 0-6.7 0-12.7 1.8-16 8.1-3.5 6.7-3.1 13.8.7 20.3 3.1 5.1 8 7.3 14 7.3h36.5c-.8 1.5-1.2 2.6-1.8 3.5-17.1 23.5-34.1 46.9-51.2 70.4-3.4 4.6-3.2 9.6-.9 14.4 2.6 5.4 7.4 7.7 13.2 7.7 19.7.1 39.3 0 59 0 6.1 0 12.3.3 18.4-.1 6-.3 11.7-1.3 18-2.1z" fill="#11a9e1"/><path d="M181.2 125.7c-11.2-4.2-22.6-2-33.8-2.3-6.4-.2-12.7 0-20.1 0 18.1-25 35.6-49.3 53.8-74.4.1 26.3.1 51.4.1 76.7z" fill="#14aae1"/></svg>