<svg xmlns="http://www.w3.org/2000/svg" xmlns:xlink="http://www.w3.org/1999/xlink" width="12" height="12" viewBox="0 0 12 12">
  <defs>
    <path id="app_icon-12-color-a" d="M5,0 C7.76166667,0 10,2.23833333 10,5 C10,7.76166667 7.76166667,10 5,10 C2.23833333,10 0,7.76166667 0,5 C0,2.23833333 2.23833333,0 5,0 L5,0 Z"/>
  </defs>
  <g fill="none" fill-rule="evenodd" transform="translate(1 1)">
    <use fill="#FFF" xlink:href="#app_icon-12-color-a"/>
    <path stroke="#000" stroke-opacity=".5" d="M5,-0.5 C8.03780904,-0.5 10.5,1.96219096 10.5,5 C10.5,8.03780904 8.03780904,10.5 5,10.5 C1.96219096,10.5 -0.5,8.03780904 -0.5,5 C-0.5,1.96219096 1.96219096,-0.5 5,-0.5 Z"/>
    <polygon fill="#333" points="4.5 3 5.5 3 5.5 7 4.5 7"/>
    <path fill="#0080FF" d="M5,0.75 C7.34741667,0.75 9.25,2.65258333 9.25,5 C9.25,7.34741667 7.34741667,9.25 5,9.25 C2.65258333,9.25 0.75,7.34741667 0.75,5 C0.75,2.65258333 2.65258333,0.75 5,0.75 Z M5,2 C3.343,2 2,3.343 2,5 C2,6.657 3.343,8 5,8 C6.657,8 8,6.657 8,5 C8,3.343 6.657,2 5,2 Z" opacity=".8"/>
  </g>
</svg>
