<svg xmlns="http://www.w3.org/2000/svg" width="16" height="16" viewBox="0 0 16 16">
  <g fill="none" fill-rule="evenodd">
    <path fill="#F7F7F7" d="M8,16 L8,15 C4.13366667,15 1,11.8663333 1,8 C1,4.13366667 4.13366667,1 8,1 C11.7070484,1 14.7405554,3.88078424 14.9842119,7.52604381 C15.3669675,7.74513313 15.7100438,8.0256573 16,8.3541756 L16,16 L8,16 Z"/>
    <path fill="#000" d="M8,16 C3.582,16 0,12.418 0,8 C0,3.582 3.582,0 8,0 C12.418,0 16,3.582 16,8 C16,8.11588441 15.9975355,8.23119363 15.9926561,8.34587812 C15.704257,8.02093231 15.363741,7.74328632 14.9842119,7.52604381 C14.7405554,3.88078424 11.7070484,1 8,1 C4.13366667,1 1,4.13366667 1,8 C1,11.8663333 4.13366667,15 8,15 L8,16 Z" opacity=".4"/>
    <path fill="#0080FF" d="M8,14 C4.686,14 2,11.314 2,8 C2,4.686 4.686,2 8,2 C11.0114896,2 13.5043972,4.21801114 13.934422,7.10973246 C13.6346486,7.03799116 13.321761,7 13,7 C12.6219996,7 12.2562455,7.05243247 11.9096138,7.15042124 C11.5201335,5.34926965 9.9177997,4 8,4 C5.79066667,4 4,5.79066667 4,8 C4,10.2093333 5.79066667,12 8,12 L8,14 Z" opacity=".6"/>
    <polygon fill="#000" points="7 5 9 5 9 11 7 11" opacity=".75"/>
    <path fill="#333" d="M15,12 C15.5522847,12 16,12.4477153 16,13 L16,15 C16,15.5522847 15.5522847,16 15,16 L11,16 C10.4477153,16 10,15.5522847 10,15 L10,13 C10,12.4477153 10.4477153,12 11,12 L11,11 C11,9.8954305 11.8954305,9 13,9 C14.1045695,9 15,9.8954305 15,11 L15,12 Z M11,12 L11,12 Z M14,12 L14,11 L12,11 L12,12 L14,12 Z M12,11 L14,11 C14,10.4477153 13.5522847,10 13,10 C12.4477153,10 12,10.4477153 12,11 Z"/>
  </g>
</svg>
