<svg viewBox="0 0 200 165" xmlns="http://www.w3.org/2000/svg" fill-rule="evenodd" clip-rule="evenodd" stroke-linejoin="round" stroke-miterlimit="10"><path d="M78.973 7.44c-38.508 0-69.729 31.218-69.729 69.73a69.388 69.388 0 0 0 12.514 39.836l-6.252 35.242 33.444-12.132c9.094 4.344 19.273 6.782 30.023 6.782 38.512 0 69.73-31.22 69.73-69.729 0-38.511-31.218-69.728-69.73-69.728" fill="#00bcd4" fill-rule="nonzero"/><path d="M78.973 7.44c-38.508 0-69.729 31.218-69.729 69.73a69.388 69.388 0 0 0 12.514 39.836l-6.252 35.242 33.444-12.132c9.094 4.344 19.273 6.782 30.023 6.782 2.717 0 5.398-.155 8.034-.457 5.022-.577.939-20.154 5.58-21.74 8.16-2.788 24.58 11.422 31.061 6.01 15.313-12.792 25.055-32.029 25.055-53.542 0-38.511-31.218-69.728-69.73-69.728z" fill="none" stroke-width="10.857" stroke="#fff"/><path fill="#fff" fill-rule="nonzero" d="M96.858 72.357h14.975v14.975H96.858zm-25.49 0h14.975v14.975H71.368zm-25.256 0h14.975v14.975H46.112z"/><path d="M112.59 7.651c-38.287 4.13-65.98 38.514-61.85 76.804a69.384 69.384 0 0 0 16.712 38.264l-2.437 35.71 31.95-15.649c9.507 3.345 19.89 4.677 30.578 3.525 38.29-4.13 65.98-38.517 61.851-76.804-4.129-38.29-38.515-65.979-76.804-61.85" fill="#8bc34a" fill-rule="nonzero"/><path d="M112.59 7.651c-38.287 4.13-65.98 38.514-61.85 76.804a69.384 69.384 0 0 0 16.712 38.264l-2.437 35.71 31.95-15.649c9.507 3.345 19.89 4.677 30.578 3.525 38.29-4.13 65.98-38.517 61.851-76.804-4.129-38.29-38.515-65.979-76.804-61.85z" fill="none" stroke-width="10.857" stroke="#fff"/><path d="M102.692 78.519a7.487 7.487 0 0 1-7.487 7.488 7.488 7.488 0 1 1 7.487-7.488m25.374 0a7.488 7.488 0 1 1-14.976 0 7.488 7.488 0 0 1 14.976 0m25.372 0a7.487 7.487 0 0 1-7.487 7.488 7.488 7.488 0 1 1 7.487-7.488" fill="#fff" fill-rule="nonzero"/></svg>