<svg xmlns="http://www.w3.org/2000/svg" width="12" height="12" viewBox="0 0 12 12">
  <g fill="none" fill-rule="evenodd">
    <path fill="#F7F7F7" d="M11,5.9998169 C10.9999011,3.2382344 8.76160563,1 6,1 C3.23833333,1 1,3.23833333 1,6 C1,8.76166667 3.23833333,11 6,11 L6,12 L12,12 L12,8 C12,7.18209108 11.6072233,6.45592007 11,5.9998169 Z"/>
    <path fill="#000" d="M11.8758831,7.21989622 C11.9572496,6.82599774 12,6.41798761 12,6 C12,2.6865 9.3135,0 6,0 C2.6865,0 0,2.6865 0,6 C0,9.3135 2.6865,12 6,12 L6,11 C3.23833333,11 1,8.76166667 1,6 C1,3.23833333 3.23833333,1 6,1 C8.76160563,1 10.9999011,3.2382344 11,5.9998169 C11.4049861,6.30401379 11.7145823,6.728342 11.8758831,7.21989622 Z" opacity=".4"/>
    <path fill="#0080FF" d="M10.232254,5.60894982 C10.0348851,3.44487299 8.21557736,1.75 6,1.75 C3.65258333,1.75 1.75,3.65258333 1.75,6 C1.75,8.34741667 3.65258333,10.25 6,10.25 L6,9 C4.343,9 3,7.657 3,6 C3,4.343 4.343,3 6,3 C7.50642709,3 8.75332818,4.11001086 8.96750265,5.55683196 C9.13909636,5.51960697 9.31725845,5.5 9.5,5.5 C9.75478335,5.5 10.0006648,5.53811341 10.232254,5.60894982 Z" opacity=".6"/>
    <polygon fill="#333" points="5.5 4 6.5 4 6.5 8 5.5 8" opacity=".75"/>
    <path fill="#000" d="M10,9 L10,8 C10,7.72385763 9.77614237,7.5 9.5,7.5 C9.22385763,7.5 9,7.72385763 9,8 L9,9 L10,9 Z M11,9 L11.5,9 C11.7761424,9 12,9.22385763 12,9.5 L12,11.5 C12,11.7761424 11.7761424,12 11.5,12 L7.5,12 C7.22385763,12 7,11.7761424 7,11.5 L7,9.5 C7,9.22385763 7.22385763,9 7.5,9 L7.5,9 L8,9 L8,8 C8,7.17157288 8.67157288,6.5 9.5,6.5 C10.3284271,6.5 11,7.17157288 11,8 L11,9 Z"/>
  </g>
</svg>
