<?xml version="1.0" encoding="UTF-8"?>
<svg width="77px" height="88px" viewBox="0 0 77 88" version="1.1" xmlns="http://www.w3.org/2000/svg" xmlns:xlink="http://www.w3.org/1999/xlink">
    <!-- Generator: Sketch 47.1 (45422) - http://www.bohemiancoding.com/sketch -->
    <title>ebay-addedToCard</title>
    <desc>Created with Sketch.</desc>
    <defs></defs>
    <g id="AMZN-desktop-PC" stroke="none" stroke-width="1" fill="none" fill-rule="evenodd">
        <g id="PCAMZN-DESK-ebay.A-3" transform="translate(-910.000000, -307.000000)">
            <g id="Group-13" transform="translate(316.000000, 214.000000)">
                <g id="Group-18-+-Group-11-+-Group-17-Mask" transform="translate(26.000000, 75.000000)">
                    <g id="Group-15">
                        <g id="Group-9" transform="translate(21.000000, 18.000000)">
                            <g id="ebay-addedToCard" transform="translate(549.000000, 0.000000)">
                                <g id="Group-4" transform="translate(0.000000, 16.579710)">
                                    <g id="Group-2" transform="translate(0.000000, 0.027135)" stroke="#00C8E5" stroke-width="3.48480043" stroke-linecap="round">
                                        <path d="M53.4836323,18.3385265 C56.8357921,18.3385265 60.3446555,18.3385265 67.0489751,18.3385265 C70.8678561,18.3385265 73.6727199,22.0988046 72.7538166,25.9863871 C72.3125943,27.8528101 71.9816775,29.2526274 71.7610663,30.185839 M65.5064776,56.6434938 C65.1294214,58.2384865 64.5369767,60.7445983 63.7291434,64.1618291 C63.0792651,66.9116029 60.7256946,68.8428724 58.024302,68.8428724 L15.0873608,68.8428724 C12.3859681,68.8428724 10.0327956,66.9116029 9.38251928,64.1618291 C8.5709704,60.7287293 7.97590018,58.2114005 7.59730864,56.6098425 M1.37014983,30.2670578 C1.14528188,29.3157976 0.807979954,27.8889074 0.358244052,25.9863871 C-0.561057226,22.0988046 2.24380659,18.3385265 6.06308553,18.3385265 C13.2429886,18.3385265 16.9180725,18.3385265 20.1270898,18.3385265" id="Stroke-1"></path>
                                        <path d="M63.8779122,16.1862282 L59.6237226,0.473671838" id="Stroke-3"></path>
                                        <path d="M9.23390867,16.1862282 L13.4880983,0.473671838" id="Stroke-5"></path>
                                    </g>
                                    <g id="Group-13" transform="translate(12.000000, 30.000000)" fill="#00C8E5">
                                        <path d="M36.4133646,7.93428041 C36.18924,7.49338665 35.965167,7.05249289 35.740991,6.61170625 C35.5619387,6.24965064 35.3828348,5.88759502 35.1833325,5.48413867 L36.2097414,5.48413867 C36.7418504,5.48413867 37.274217,5.49361853 37.8059654,5.47915773 C37.9966593,5.47396255 38.0905639,5.54021445 38.1749905,5.71674334 C39.4720899,8.42851845 40.7765553,11.1364909 42.07963,13.8451596 C42.1290291,13.9477778 42.1813128,14.0488963 42.2504921,14.1872379 C42.3074633,14.0778714 42.3516083,13.9988726 42.3907051,13.9171958 C43.6963554,11.1899423 45.0029843,8.46317082 46.3034319,5.73313225 C46.3891978,5.55312205 46.4796512,5.4729985 46.6878072,5.47749742 C47.4588759,5.49420768 48.2304082,5.48413867 49.0424797,5.48413867 C48.7996052,5.98496442 48.5712052,6.45986784 48.3395086,6.93305739 C46.9326392,9.80668636 45.5249456,12.679994 44.1175096,15.5533552 C43.269947,17.2837775 42.4224874,19.0141998 41.5744098,20.7443007 C41.5394853,20.8155871 41.4988946,20.8839813 41.4609309,20.953661 C40.6287702,20.9538752 39.7965579,20.955482 38.9643456,20.9521078 C38.8855852,20.9517864 38.7908049,20.9959722 38.7289401,20.9000489 C39.41687,19.5471606 40.1040788,18.1937903 40.7939145,16.8419196 C40.8493919,16.733303 40.8727779,16.6428962 40.8100375,16.5204614 C39.3734462,13.7166192 37.9410273,10.9104204 36.5078873,8.10465007 C36.4488557,8.06437406 36.4314449,7.99913978 36.4133646,7.93428041" id="Fill-1"></path>
                                        <path d="M36.4143212,7.93428041 C36.4740717,7.97436546 36.4964713,8.0351663 36.5133655,8.09902273 C36.4959316,8.1346021 36.4784976,8.17023326 36.4610637,8.20581263 C36.4080601,8.12124041 36.3666612,8.03480378 36.4143212,7.93428041" id="Fill-4"></path>
                                        <path d="M22.2124417,13.0925553 C21.5485674,14.6851179 20.1198574,15.4308668 18.5477921,15.3526178 C16.4041088,15.2459292 14.9473767,13.5788131 14.932284,10.9534279 C14.9620574,9.78451313 15.2829196,8.59101501 16.2883635,7.72700892 C17.4541098,6.72525032 18.7938088,6.57705389 20.1857915,7.08693102 C21.5306416,7.57950875 22.2381972,8.66369393 22.5019337,10.0802097 C22.6936578,11.1099259 22.6165973,12.1230389 22.2124417,13.0925553 M25.135796,10.2775193 C24.963131,8.77589903 24.3965611,7.48476373 23.2697572,6.49960826 C22.0124243,5.40026603 20.5404965,4.98765117 18.9196502,5.08052165 C17.6749891,5.1518616 16.5230993,5.49511817 15.5466046,6.33920049 C15.3412816,6.51669343 15.1548117,6.71775212 14.9289358,6.93787765 L14.9289358,0.608706364 C14.1093437,0.610955822 13.2898031,0.61320528 12.470211,0.615454738 C12.4697989,3.60316336 12.470005,6.59081843 12.4665537,9.57852705 C12.4664507,9.6775032 12.5149741,9.79222555 12.4177213,9.8767409 C12.3487995,9.93362005 12.3431333,10.0139578 12.3523538,10.0935994 C12.4029376,10.5335826 12.3688373,10.9752798 12.3802727,11.4160128 C12.3832604,11.5304674 12.3781093,11.6473321 12.4577453,11.7422378 C12.4615057,11.8132564 12.4686142,11.884275 12.4685112,11.9553472 C12.4660901,13.452897 12.4951939,14.9511431 12.4017528,16.4469255 C12.3888236,16.6544648 12.4486794,16.701757 12.6390127,16.6983828 C13.2906788,16.6867606 13.9428085,16.6877247 14.5945261,16.6979008 C14.7749178,16.7007394 14.8283862,16.6371119 14.8341555,16.4559769 C14.8473423,16.044219 14.8811335,15.6332645 14.9077132,15.2037787 C15.0476687,15.3473155 15.163414,15.4778376 15.2907493,15.5947023 C16.7985288,16.9786546 18.5859617,17.3372824 20.5019662,17.0027023 C22.6746502,16.6233473 24.1544077,15.3188759 24.8843191,13.1342238 C25.1067437,12.8417943 25.1437287,12.5007872 25.124206,12.1449443 C25.1736051,11.5228085 25.2076539,10.9021724 25.135796,10.2775193" id="Fill-6"></path>
                                        <path d="M32.9377244,14.568189 C32.2243481,15.1943952 31.3632381,15.4052016 30.4524199,15.4451027 C30.3753079,15.4485304 30.2978868,15.4455847 30.186829,15.4455847 C29.6013031,15.4662583 29.0039296,15.3705492 28.4582217,15.0490374 C27.5022284,14.4856553 27.1982618,13.2310469 27.8089251,12.3895354 C28.0517481,12.0548482 28.396769,11.8751593 28.7661032,11.745387 C29.4472851,11.506034 30.1566951,11.4484586 30.8688352,11.414074 C31.8804089,11.3652822 32.8927038,11.3661927 33.9049471,11.3640504 C33.9967398,11.3638897 34.0944562,11.3300407 34.0967742,11.4930728 C34.1137729,12.6836252 33.8526119,13.7650254 32.9377244,14.568189 M36.6300869,16.4981703 C36.6029406,16.1877451 36.579194,15.8758203 36.5779578,15.5644311 C36.5706947,13.7361038 36.5684797,11.9077229 36.5687373,10.0793956 C36.5688403,9.45522462 36.5779063,8.83121427 36.4579886,8.21507703 C36.4207976,8.1109057 36.4724632,8.00100361 36.4386719,7.89683229 C36.3428614,7.64012629 36.2269101,7.39236456 36.0993687,7.15215459 C35.997892,6.96111134 35.9260856,6.74441356 35.7410065,6.61180266 C35.6729089,6.62256792 35.6307729,6.58164921 35.5875036,6.53494618 C35.0613184,5.96658313 34.4099613,5.62150557 33.6917944,5.40239766 C32.5227515,5.04564434 31.3268713,5.00311887 30.1239856,5.11221758 C29.196993,5.19630446 28.2918411,5.38740127 27.460659,5.85266416 C26.529288,6.3738957 25.9303692,7.15343999 25.7555922,8.2544961 C25.7393662,8.35711423 25.6595241,8.51098787 25.8850394,8.50895264 C26.6403458,8.50215071 27.3957036,8.50584625 28.1510614,8.5068103 C28.2452751,8.50691742 28.3073459,8.49036783 28.331247,8.37082521 C28.482947,7.6113118 28.9992421,7.2163177 29.6573986,6.98167781 C30.3453285,6.73637978 31.054687,6.73654045 31.7683724,6.81827076 C33.318494,6.9957637 34.1277839,7.91407813 34.0995043,9.45083282 C34.0963621,9.61895302 34.05129,9.65821142 33.8960357,9.65714025 C33.1150254,9.6517844 32.333809,9.6493207 31.5530047,9.66362083 C30.4127049,9.6844551 29.2717355,9.71867899 28.1524007,9.97779512 C26.8649339,10.2758483 25.7099019,10.7827262 25.1242214,12.1445587 C25.0443278,12.4742114 24.9642797,12.804239 24.884283,13.1342667 C24.9673188,13.2069991 24.9161169,13.3017442 24.9157563,13.3841707 C24.914211,13.7152159 24.9294067,14.0426192 25.0190874,14.3634883 C25.3752862,15.6373242 26.2538069,16.3596144 27.4051816,16.7728184 C28.5838571,17.1957701 29.7977662,17.1770782 31.0146629,17.0092258 C32.0906769,16.8608151 33.0330713,16.411352 33.8201084,15.6223814 C33.962897,15.4792194 34.0672584,15.2920324 34.2522345,15.1789704 C34.2822654,15.6335751 34.3145629,16.0682025 34.3377428,16.5033655 C34.3450574,16.6420821 34.3799304,16.7065665 34.532197,16.7045313 C35.1754668,16.695962 35.8189427,16.6962833 36.4622125,16.7041564 C36.6211755,16.7061381 36.6427587,16.6426177 36.6300869,16.4981703" id="Fill-8"></path>
                                        <path d="M2.73248757,9.79190956 C3.01095623,8.08017918 4.16583365,6.97264249 5.82907348,6.80473652 C6.55774859,6.73114711 7.26921901,6.78084942 7.95364614,7.05137352 C9.16353735,7.52965112 9.75560519,8.48770598 9.88798855,9.79555154 C9.90740821,9.98734461 9.85352767,10.0339941 9.67236336,10.0326016 C8.54916523,10.0242464 7.42591558,10.028424 6.30271745,10.028424 C5.17946781,10.028424 4.05626967,10.023818 2.93312305,10.0328694 C2.74366546,10.034369 2.70199304,9.97925727 2.73248757,9.79190956 M2.92936275,11.7357626 C6.10548169,11.7455638 9.28165215,11.7422432 12.4577711,11.7422432 C12.4763666,11.1196789 12.4896049,10.4972217 12.4176955,9.87674626 C12.3979153,9.76277372 12.3796804,9.64847984 12.3580972,9.53482865 C11.9759884,7.52317054 10.8936385,6.12047284 9.00292594,5.47150422 C7.23687008,4.86532886 5.44861297,4.91685216 3.69167456,5.50299663 C2.0973565,6.03493988 1.00429232,7.14965341 0.48542166,8.82175048 C0.0710153786,10.1573394 0.0211526961,11.5243135 0.319453104,12.8888776 C0.67539436,14.517378 1.58095837,15.7124293 3.04711697,16.4277034 C3.83338142,16.8113966 4.66755113,17.0017436 5.52793996,17.0712626 C7.01825725,17.1917157 8.4785436,17.067942 9.85115816,16.3931046 C10.9842464,15.8360424 11.7892094,14.9720899 12.102551,13.6722781 C12.1429872,13.5044792 12.1299549,13.4404232 11.939364,13.4433154 C11.2270179,13.4540807 10.5144143,13.4512956 9.80201663,13.4443866 C9.66376102,13.4431012 9.58870944,13.4788247 9.53508645,13.620969 C9.31637059,14.2011685 8.92225966,14.6247093 8.40179215,14.9217449 C7.65503667,15.3479636 6.84863141,15.4420659 6.01173161,15.3884538 C4.22028081,15.2737315 2.84035168,13.8882796 2.67082886,12.0331195 C2.65012142,11.8064598 2.68906377,11.7350128 2.92936275,11.7357626" id="Fill-10"></path>
                                    </g>
                                </g>
                                <path d="M34.620053,28.2864797 C35.439192,29.7559713 37.9821907,30.1058704 38.7062828,28.2864797 C42.715213,18.2139353 48.3158837,7.15527362 57.9712333,2.24489772 C60.7193125,0.847406933 58.4072613,-0.624883024 55.3358746,0.276647827 C42.4255215,4.0661679 36.3374507,20.7944983 36.1328678,20.5258488 C32.6348984,15.9324687 30.4472924,14.6115953 26.4653068,12.6615303 C23.5703765,11.24382 21.2178504,14.5645323 23.7987102,16.2845534 C28.7308972,19.5717515 31.6270603,22.918414 34.620053,28.2864797 Z" id="Fill-3" fill="#7ED321"></path>
                            </g>
                        </g>
                    </g>
                </g>
            </g>
        </g>
    </g>
</svg>