<?xml version="1.0" encoding="UTF-8"?>
<svg width="63px" height="62px" viewBox="0 0 63 62" version="1.1" xmlns="http://www.w3.org/2000/svg" xmlns:xlink="http://www.w3.org/1999/xlink">
    <!-- Generator: Sketch 47.1 (45422) - http://www.bohemiancoding.com/sketch -->
    <title>backpack</title>
    <desc>Created with Sketch.</desc>
    <defs>
        <polygon id="path-1" points="29.3526178 5.85391304 0.170309027 5.85391304 0.170309027 0.170402087 29.3526178 0.170402087"></polygon>
    </defs>
    <g id="AMZN-desktop-PC" stroke="none" stroke-width="1" fill="none" fill-rule="evenodd">
        <g id="PCAMZN-DESK-ebay.A-3" transform="translate(-363.000000, -319.000000)">
            <g id="Group-13" transform="translate(316.000000, 214.000000)">
                <g id="Group-18-+-Group-11-+-Group-17-Mask" transform="translate(26.000000, 75.000000)">
                    <g id="Group-15">
                        <g id="Group-9" transform="translate(21.000000, 18.000000)">
                            <g id="backpack" transform="translate(0.000000, 12.000000)">
                                <g id="Group-3" transform="translate(6.013072, 5.775151)" fill="#8F4A50">
                                    <path d="M26.1773072,49.6629219 C26.1757386,49.5777741 26.1749542,49.4926263 26.1726013,49.4074784 C26.1529935,48.711395 26.1529935,48.7111289 25.4837124,48.595115 C21.4688105,47.9003619 18.0871111,46.0303028 15.3590065,42.946621 C14.995085,42.5349845 14.9945621,42.5357828 14.6089412,42.9476854 C14.1320784,43.4569758 13.6322092,43.9388593 13.0413595,44.3135097 C11.7966536,45.1016593 10.6664575,45.0574889 9.49416993,44.1607758 C8.656,43.5195063 8.01835294,42.6909115 7.42436601,41.8245323 C5.83926797,39.5140993 4.74933333,36.9578019 3.82959477,34.317155 C2.37861438,30.1528941 1.18828758,25.9090732 0.0795294118,21.639708 C0.379660131,21.6168245 0.557960784,21.8073428 0.724235294,22.0204784 C0.828287582,22.7277376 1.04815686,23.4067915 1.22750327,24.0948923 C2.12371242,27.5311393 3.10253595,30.9423741 4.24580392,34.3030523 C5.14515033,36.9476906 6.23769935,39.4970697 7.81181699,41.8096315 C8.36815686,42.6273167 8.98698039,43.3864628 9.76815686,43.9942054 C10.0442353,44.2089376 10.3514248,44.3688558 10.6818824,44.4792819 C11.3728627,44.7097132 12.0280261,44.586515 12.6478954,44.2427306 C13.3707712,43.8420037 13.988549,43.3010489 14.5488105,42.6917097 C14.7728627,42.4479741 14.7637124,42.3928941 14.5380915,42.1342576 C14.1286797,41.664348 13.7459346,41.1710228 13.3809673,40.6657237 C13.2013595,40.4166663 13.0050196,40.3472176 12.7106405,40.3876628 C12.2154771,40.4552489 11.7231895,40.5704645 11.2175686,40.5427915 C11.152732,40.5201741 11.0881569,40.4972906 11.0975686,40.4070871 C11.2246275,40.2769706 11.3987451,40.265795 11.5590065,40.2282767 C12.6293333,39.9794854 13.7033203,39.7461271 14.7814902,39.5356523 C15.7888105,39.3392802 16.6868497,38.901301 17.5171765,38.3124506 C19.1658039,37.1435306 20.5075033,35.6624906 21.6766536,34.011421 C21.8698562,33.7381497 21.8596601,33.7075497 21.563451,33.5292715 C21.5095948,33.4968089 21.4505098,33.4702002 21.4029281,33.4294889 C21.1320784,33.1998558 20.8821438,33.2719654 20.6016209,33.4372054 C19.3522092,34.1740002 18.0264575,34.7170837 16.5953464,34.9528367 C15.3556078,35.1566593 14.1119477,35.2489915 12.8502484,35.1505393 C11.9848889,35.0832193 11.1229281,35.0076506 10.2656732,34.874075 C10.1218824,34.8517237 9.97364706,34.8392176 9.85207843,34.7415637 C9.82724183,34.684621 9.856,34.6420471 9.88711111,34.6000054 C9.96867974,34.4576489 9.88972549,34.329395 9.84371242,34.2051323 C9.20789542,32.4862106 8.76763399,30.7172645 8.5456732,28.8945689 C8.37730719,27.5109167 8.336,26.1243376 8.42593464,24.7295097 C8.5132549,23.377788 8.71011765,22.0470871 9.0084183,20.7296906 C9.05364706,20.5293271 9.02854902,20.3917602 8.79037908,20.3808506 C8.72763399,20.3779237 8.66671895,20.3592976 8.61416993,20.320981 C8.55220915,20.1818176 8.6711634,20.189268 8.74201307,20.1573376 C9.5890719,20.1099741 10.4303791,20.2148123 11.2706405,20.2911793 C12.5603137,20.4085237 13.843451,20.5862697 15.112732,20.8542193 C16.5697255,21.1618158 17.9932549,21.5737184 19.3331242,22.2498454 C20.207634,22.6910176 20.9362614,23.3094037 21.5715556,24.063228 C22.2442353,24.8612228 22.9655425,25.6158454 23.6512941,26.4026645 C24.1153464,26.9351045 24.6259346,27.4239063 25.0761307,27.9696506 C25.1699869,28.0832697 25.2719477,28.1923654 25.3919477,28.2780454 C25.483451,28.3435028 25.5882876,28.4661689 25.6928627,28.4025741 C25.8131242,28.3294002 25.7597908,28.1713445 25.7404444,28.0478802 C25.6991373,27.7849863 25.6358693,27.5274141 25.5537778,27.2740993 C24.9608366,25.4426228 24.0162614,23.8139045 22.8141699,22.3310019 C22.0060654,21.3345063 21.0873725,20.4574837 20.0936471,19.6578923 C20.0037124,19.5855167 19.906719,19.519261 19.8688105,19.399788 C20.0063268,19.090595 20.161098,19.0280645 20.4193987,19.1991584 C20.7877647,19.4434263 21.1229281,19.7345254 21.4505098,20.0306802 C23.4136471,21.8057463 24.9979608,23.8655254 25.976,26.3686054 C26.2345621,27.0295654 26.4926013,27.6977097 26.4363922,28.4350367 C26.4178301,28.6785063 26.5681569,28.7519463 26.7673725,28.7599289 C27.2790065,28.7804176 27.7877647,28.7915932 28.2894641,28.6351341 C28.7182222,28.5015584 29.1519477,28.3908663 29.6136471,28.5023567 C30.2314248,28.6510993 30.6596601,29.103181 30.7563922,29.7476437 C30.8881569,30.6236019 30.6520784,31.4245237 30.2016209,32.147748 C29.176,33.7934958 27.7075033,34.6529567 25.7689412,34.6912732 C24.7114248,34.7122941 23.7140392,34.4991584 22.7477647,34.0941741 C22.5459346,34.0098245 22.4246275,34.0361671 22.3051503,34.2266854 C21.5540392,35.4243428 20.6682876,36.5102437 19.6502484,37.4825254 C19.2617516,37.8534506 18.8505098,38.1985654 18.4254118,38.5258523 C17.9545621,38.8416976 17.4758693,39.142908 16.9710327,39.4034071 C16.2635817,39.7687445 15.5237124,40.009021 14.7373072,40.106675 C14.4361307,40.1444593 14.4214902,40.1761237 14.6178301,40.4230523 C16.275085,42.5073115 18.1629281,44.3196297 20.4928627,45.6184002 C21.1731242,45.9975741 21.875085,46.3203376 22.5997908,46.5973341 C23.7624052,47.0635184 24.9752157,47.3327984 26.1997908,47.5595045 C26.3757386,47.622035 26.3681569,47.7840819 26.3895948,47.928035 C26.5349542,48.9149515 26.6580915,49.9061254 26.9255425,50.8693602 C27.0541699,51.4313358 27.2528627,51.9640419 27.5754771,52.4437967 C27.916915,52.9520228 28.4293333,53.1130054 29.0024052,52.9025306 C29.656,52.6622541 30.1237124,52.1774437 30.5678954,51.6692176 C31.0322092,51.1375758 31.4416209,50.5609654 31.8199216,49.9625358 C32.4478954,49.0139358 33.0089412,48.0248906 33.5362614,47.0153567 C33.6316863,46.832821 33.6926013,46.618621 33.9054118,46.5252245 C33.9587451,46.5411897 33.9822745,46.581901 33.9932549,46.633788 C34.003451,46.7221289 33.980183,46.8067445 33.9349542,46.8764593 C33.6931242,47.2500454 33.7077647,47.6473132 33.7861961,48.0671984 C33.8905098,48.6286419 33.9940392,49.1895532 34.1441046,49.7403532 C34.2758693,50.2908871 34.4698562,50.8145463 34.7856732,51.2868506 C35.1286797,51.7993341 35.6376993,51.9640419 36.2110327,51.7556958 C36.8661961,51.517548 37.3354771,51.0324715 37.780183,50.5237132 C38.2450196,49.9918054 38.6549542,49.4146628 39.0343007,48.8159671 C39.7576993,47.744435 40.3650196,46.6026558 40.9736471,45.4627393 C41.1323399,45.1657863 41.2865882,44.9529167 41.6497255,44.8398297 C42.2758693,44.644788 42.8588758,44.311381 43.432732,43.9830297 C44.9184837,43.1339463 46.2549542,42.0791776 47.4374379,40.8333584 C48.1924706,40.0380245 48.8886797,39.1870784 49.4460654,38.2296976 C49.5038431,38.1626437 49.5869804,38.105435 49.5336471,37.9947428 C49.5903791,37.750475 49.7451503,37.5567637 49.8620131,37.3449584 C50.7778301,35.6811167 51.4081569,33.9087115 51.836915,32.0567463 C51.8894641,31.8316367 51.8421438,31.725468 51.6120784,31.6746454 C51.1069804,31.563421 50.6442353,31.3470923 50.216,31.049341 C49.4732549,30.5323341 49.1535163,29.7955393 49.1106405,28.9060106 C49.0756078,28.1795932 49.205281,27.4882993 49.527634,26.8374506 C49.5835817,26.7248958 49.6277647,26.6006332 49.7516863,26.5399654 C49.8123399,26.535708 49.8421438,26.5710976 49.8565229,26.6256454 C49.8675033,26.7360715 49.8277647,26.835588 49.7875033,26.9332419 C49.5344314,27.5444437 49.5556078,28.1835845 49.6235817,28.8197984 C49.719268,29.7165115 50.2241046,30.3444767 51.0099869,30.6927845 C52.2175686,31.2276193 53.4497255,31.2861584 54.6319477,30.608701 C55.3260654,30.210635 55.6719477,29.5491428 55.7498562,28.7495515 C55.8003137,28.2349393 55.7362614,27.725915 55.5647582,27.2400402 C55.2648889,26.3885619 54.6756078,25.840955 53.8167843,25.6020089 C53.3919477,25.4838663 52.9605752,25.4074993 52.5163922,25.4239967 C52.3723399,25.4295845 52.2220131,25.449541 52.0884183,25.3633289 C52.0638431,25.3356558 52.0575686,25.3042576 52.0695948,25.268868 C52.2303791,25.1592402 52.2471111,25.008635 52.2264575,24.8223741 C51.9103791,22.0013202 51.1158693,19.3274123 49.8303791,16.8094315 C48.9156078,15.0176019 47.7903791,13.3758454 46.4395294,11.8886854 C44.3244967,9.55989235 41.7548235,7.97055496 38.8230588,6.96740713 C37.1339085,6.38946626 35.3916863,6.05313235 33.6162614,5.87112887 C32.1770458,5.72345061 30.7367843,5.75165583 29.2967843,5.76629061 C28.6217516,5.77320887 27.9482876,5.88576365 27.2706405,5.90252713 C27.2071111,5.72078974 27.2358693,5.67821583 27.4633203,5.6135567 C28.7861961,5.50871843 30.1080261,5.39749409 31.4379608,5.41212887 C33.2403137,5.43208539 35.0264575,5.59147148 36.7875033,5.98767496 C37.0366536,6.0438193 37.1475033,5.97729757 37.2753464,5.76309757 C38.8591373,3.11313757 41.1516863,1.32423496 43.9231895,0.118594957 C44.0949542,0.0438245217 44.1331242,0.114603652 44.1895948,0.248179304 C44.8672418,1.84204017 45.3888105,3.48459496 45.679268,5.19846104 C45.8899869,6.44321583 45.9754771,7.68930104 45.681098,8.93512017 C45.607634,9.24564365 45.5119477,9.54924887 45.3686797,9.83342974 C45.3027974,9.96434452 45.2965229,10.0449689 45.4233203,10.1551289 C47.8405752,12.254555 49.6379608,14.8254871 50.9705098,17.7460576 C51.0497255,17.9195463 51.1605752,18.0025654 51.3307712,18.0517915 C51.9284183,18.2244819 52.4803137,18.4961567 52.9793987,18.8750645 C54.0071111,19.6557637 54.3788758,20.7105323 54.2387451,21.9832263 C54.1281569,22.986108 53.7958693,23.9230002 53.4298562,24.8508454 C53.3875033,24.9588767 53.3461961,25.0671741 53.291817,25.207668 C54.205281,25.3141028 55.0097255,25.6193045 55.5660654,26.3944158 C56.035085,27.0481915 56.1922092,27.8041445 56.2003137,28.5912297 C56.2162614,30.118835 55.3976993,31.046148 53.476915,31.670388 C53.6199216,31.7919897 53.7414902,31.8941671 53.8614902,31.997675 C54.7796601,32.7911463 54.7532549,33.8065341 53.7875033,34.543861 C53.2282876,34.9706645 52.586719,35.2271723 51.9166536,35.4038541 C51.6996601,35.4610628 51.5901176,35.5613776 51.5046275,35.7705219 C49.9184837,39.654061 47.4139085,42.732421 43.8029281,44.8353063 C42.9315556,45.3430002 42.0110327,45.7445254 41.0860654,46.1346089 C40.8756078,46.2234819 40.7519477,46.352268 40.651817,46.5528976 C39.9446275,47.977261 39.1650196,49.3577202 38.2050196,50.6248263 C38.1861961,50.6854941 38.1859346,50.755475 38.1435817,50.8039028 C37.4894641,51.5534697 36.8356078,52.3043671 35.7958693,52.5015376 C35.1956078,52.6156889 34.7106405,52.4089393 34.3184837,51.949141 C33.9017516,51.4606054 33.715085,50.8651028 33.5639739,50.2533689 C33.4625359,49.8098019 33.3835817,49.3622437 33.3597908,48.9061706 C33.3543007,48.8010663 33.3543007,48.6781341 33.2293333,48.644341 C33.0946928,48.6078871 33.0167843,48.7074037 32.9587451,48.8119758 C32.7077647,49.2632593 32.4638431,49.7188002 32.1841046,50.1533202 C31.6154771,51.0979289 30.9906405,51.9973028 30.1856732,52.753788 C29.7187451,53.1925654 29.207634,53.546461 28.5629281,53.6558228 C27.9616209,53.7577341 27.4763922,53.5531132 27.0923399,53.0855984 C26.5258039,52.3961671 26.3757386,51.5476158 26.2063268,50.7014593 C26.1365229,50.3512889 26.2301176,50.0072384 26.1773072,49.6629219" id="Fill-1"></path>
                                </g>
                                <g id="Group-6" transform="translate(20.915033, 55.267325)">
                                    <mask id="mask-2" fill="white">
                                        <use xlink:href="#path-1"></use>
                                    </mask>
                                    <g id="Clip-5"></g>
                                    <path d="M18.7222484,0.749939478 C18.8516601,1.14161948 18.9559739,1.54154817 19.1463007,1.91114296 C19.6783268,2.9446247 20.5316601,3.2280073 21.5567582,2.70142122 C22.2725752,2.33342296 22.7915294,1.73712209 23.302902,1.13257252 C23.3876078,1.2493847 23.5144052,1.24698991 23.6388497,1.26721252 C25.2019869,1.52212383 26.7612026,1.79379861 28.237281,2.41324904 C28.5392418,2.54017252 28.8153203,2.70488035 29.0678693,2.91562122 C29.4519216,3.23598991 29.448,3.68753948 29.0529673,3.99087861 C28.5946667,4.34237948 28.0636863,4.54034817 27.5219869,4.6968073 C26.0764967,5.11376557 24.5964967,5.33488383 23.1031634,5.48814991 C21.9525752,5.60602643 20.8017255,5.69090817 19.6469542,5.75210817 C19.1674771,5.77765252 18.6885229,5.78510296 18.2095686,5.80000383 C17.500549,5.82208904 16.7910065,5.8638647 16.0825098,5.85189078 C14.6223791,5.8271447 13.1609412,5.81011513 11.7034248,5.72230643 C8.98211765,5.55892904 6.26865359,5.29896209 3.59911111,4.70478991 C2.66185621,4.49617774 1.73113725,4.25084557 0.881464052,3.77242122 C0.551529412,3.58669252 0.174797386,3.40229426 0.170352941,2.96058991 C0.165647059,2.51436209 0.540026144,2.32198122 0.876235294,2.14929078 C1.81741176,1.6655447 2.84146405,1.46331861 3.86551634,1.26428557 C5.14394771,1.01549426 6.4383268,0.886974261 7.73192157,0.768565565 C8.63414379,0.686078609 9.54237908,0.66931513 10.448,0.624878609 C10.5625098,0.619290783 10.6775425,0.625144696 10.7925752,0.621419478 C11.2257778,0.606784696 11.2432941,0.58975513 11.275451,0.170402087 C11.3627712,0.820984696 11.3938824,1.479816 11.5768889,2.11523165 C11.6947974,2.52447339 11.8304837,2.92573252 12.0615948,3.28494991 C12.5831634,4.09545078 13.3078693,4.31763339 14.1784575,3.92914643 C14.9068235,3.60425426 15.4464314,3.04201252 15.9510065,2.43932557 C16.4263007,1.871496 16.8147974,1.24060383 17.2273464,0.627273391 C17.7313987,0.596407304 18.2412026,0.489174261 18.7222484,0.749939478" id="Fill-4" fill="#000000" opacity="0.200000018" mask="url(#mask-2)"></path>
                                </g>
                                <path d="M6.68857516,27.7752741 C6.48988235,27.6552689 6.29118954,27.5349976 6.09249673,27.4149923 C4.89380392,26.6619663 3.71210458,25.8796706 2.49066667,25.1676219 C1.73223529,24.7251193 1.14922876,24.112321 0.518379085,23.4016028 C0.917594771,23.546088 1.20386928,23.7382028 1.48282353,23.925528 C1.72203922,24.0862445 1.86138562,24.0614984 2.04988235,23.8457019 C2.90504575,22.8675663 3.69694118,21.8396723 4.44491503,20.7755906 C4.50321569,20.556335 4.6715817,20.4073263 4.78504575,20.2231941 C5.26295425,19.5507923 5.82426144,18.9544915 6.40779085,18.3781471 C6.48151634,18.3065697 6.55262745,18.2323315 6.63445752,18.169535 C7.02164706,17.8494323 7.40360784,17.5226776 7.81118954,17.2297158 C7.98033987,17.107848 7.97223529,16.994761 7.85694118,16.8345767 C7.56857516,16.4335837 7.28151634,16.0312602 6.97981699,15.6401123 C6.90687582,15.5328793 6.76465359,15.470615 6.77223529,15.3109628 C5.98295425,14.2756184 5.04203922,13.4079089 3.94635294,12.722735 C2.7288366,11.9611941 1.5212549,11.1781002 0.191320261,10.6243732 C-0.0319477124,10.5315089 0.0493594771,10.317575 0.00726797386,10.1592532 C-0.0379607843,9.990288 0.140339869,10.002528 0.23524183,9.96687235 C3.35628758,8.796888 6.47837908,7.62956452 9.60020915,6.46170887 C9.70792157,6.42152974 9.81955556,6.38826887 9.92099346,6.33531757 C10.4613856,6.05353148 10.7385098,6.09264626 11.1602092,6.5487193 C11.7055686,7.13890017 12.0326275,7.86611583 12.3594248,8.5909367 C12.7821699,9.52756278 13.1306667,10.4947889 13.4551111,11.4694654 C13.5902745,11.8760463 13.8802092,11.6623784 14.1019085,11.6940428 C14.3358954,11.7273037 14.2744575,11.501928 14.2935425,11.3752706 C14.6287059,9.13242365 15.1968105,6.96993496 16.3819085,5.01632452 C16.7907974,4.34206017 17.2945882,3.74682365 17.8585098,3.20400626 C18.9296209,2.17318539 20.0056993,1.14768626 21.0757647,0.11606713 C21.1944575,0.00164973914 21.2660915,-0.059018087 21.4284444,0.082008 C23.4056993,1.80438887 25.3892288,3.51985148 27.3790327,5.22706539 C27.5685752,5.38991061 27.5709281,5.45989148 27.3748497,5.6123593 C27.0517124,5.86381148 26.7539346,6.14932278 26.447268,6.42259409 C26.379817,6.48246365 26.2901438,6.5284967 26.3275294,6.654888 C26.5740654,7.48454713 26.775634,8.32697843 26.9800784,9.213048 C27.4922353,8.50844974 27.9855686,7.84988452 28.535634,7.23815061 C29.3873987,6.29061496 30.308183,5.43168626 31.4773333,4.89791583 C31.6386405,4.82447583 31.8077908,4.76726713 31.9758954,4.71112278 C32.5421699,4.52220104 33.0454379,4.53710191 33.6023007,4.8822167 C35.6705359,6.16342539 37.7758954,7.38290191 39.8673987,8.625528 C39.9562876,8.6784793 40.044915,8.7316967 40.2119739,8.83121322 C39.6843922,8.90012974 39.2357647,8.9416393 38.7928889,9.0193367 C36.9162876,9.34875235 35.160732,9.97831409 33.6572026,11.214288 C33.5928889,11.2672393 33.5364183,11.3303019 33.4762876,11.388841 C33.3853072,11.452968 33.2964183,11.5194897 33.2415163,11.6216671 C33.2443922,11.6905837 33.2106667,11.7451315 33.1662222,11.7898341 C32.4506667,12.5095993 32.0498824,13.4342515 31.5745882,14.3112741 C31.451451,14.5382463 31.4023007,14.8141784 31.1740654,14.9764915 C30.9591634,14.865001 30.8647843,14.6747489 30.8357647,14.4411245 C31.0851765,13.9020323 31.2731503,13.3360654 31.5228235,12.7969732 C32.3693595,10.9676254 33.8075294,9.79498017 35.5879216,9.00044452 C36.2705359,8.69604104 36.9842614,8.4930167 37.7581176,8.32139061 C37.3730196,8.03880626 36.996549,7.82034887 36.6305359,7.58752278 C35.4781176,6.8547193 34.3196863,6.1306967 33.179817,5.37767061 C32.8825621,5.18129843 32.5975948,5.1717193 32.2856993,5.24702191 C31.6033464,5.41226191 30.9978562,5.74433843 30.4341961,6.15836974 C29.2002092,7.06466191 28.2224314,8.22692974 27.2859608,9.43044104 C27.1612549,9.59089148 27.1625621,9.75826017 27.2012549,9.94265843 C27.3735425,10.7651332 27.4922353,11.596921 27.5957647,12.4305715 C27.6166797,12.5990045 27.693281,12.7834028 27.569098,12.9497071 C27.3458301,12.9731228 27.127268,12.9744532 26.9458301,12.8078828 C26.7275294,12.0532602 26.5991634,11.2765523 26.4077908,10.5150115 C26.1434771,9.46450017 25.8770719,8.41478713 25.5847843,7.37225843 C25.491451,7.03964974 25.4538039,7.02075757 25.1173333,7.09206887 C22.5097516,7.6423367 19.8974641,8.1705193 17.2922353,8.73329322 C17.2715817,8.7378167 17.2511895,8.74154191 17.2307974,8.74606539 C16.8846536,8.82030365 16.8809935,8.82935061 17.0935425,9.10208974 C17.5740654,9.71808104 18.0587712,10.3308793 18.5413856,10.9452741 C18.6982484,11.1445732 18.8470065,11.3494602 18.9915817,11.5580723 C19.1468758,11.7826497 19.284915,12.0274497 19.5751111,12.107808 C19.6250458,12.1216445 19.6574641,12.1714028 19.6221699,12.233401 C19.4002092,12.355535 19.1842614,12.2890132 18.9688366,12.2126463 C18.7055686,12.0596463 18.5581176,11.792495 18.3711895,11.5673854 C17.6357647,10.6829123 16.8898824,9.80801843 16.1408627,8.93578539 C15.739817,8.46906887 15.7487059,8.41931061 16.3322353,8.27429322 C19.2551111,7.54734365 22.1824314,6.83822191 25.1058301,6.11313496 C25.5060915,6.01388452 25.7991634,5.79303235 26.0854379,5.52455061 C26.2373333,5.38219409 26.1288366,5.29970713 26.0349804,5.21775235 C25.520732,4.76673496 25.032366,4.28698017 24.5259608,3.827448 C23.7779869,3.14866017 23.0336732,2.46588104 22.2911895,1.78097322 C22.0206013,1.53138365 21.7285752,1.30520974 21.4817778,1.02874539 C21.3016471,0.826785391 21.1424314,0.93614713 20.998902,1.0774393 C20.6459608,1.42468278 20.2705359,1.74638191 19.9053072,2.07978887 C19.2600784,2.66837322 18.5949804,3.23513843 17.9675294,3.84234887 C17.0713203,4.70952626 16.4151111,5.75072452 15.8909281,6.8895767 C15.2653072,8.24848278 14.8692288,9.67550713 14.5824314,11.1395176 C14.4922353,11.5995819 14.491451,11.6102254 14.958902,11.6647732 C15.4992941,11.7275697 16.0339346,11.8244254 16.5670065,11.9289976 C16.6475294,11.9446967 16.8585098,11.8925437 16.7779869,12.1227089 C16.5045229,12.2222254 16.2208627,12.1490515 15.9434771,12.1775228 C15.8394248,12.1879002 15.7063529,12.122975 15.6436078,12.2735802 C15.6370719,12.3071071 15.6284444,12.3398358 15.6195556,12.3725645 C15.5772026,12.4853854 15.5777255,12.6194932 15.4634771,12.6963923 C14.9962876,12.7402967 14.539817,12.5763871 14.0728889,12.621888 C13.9544575,12.6269437 13.8360261,12.6194932 13.7181176,12.6194932 C12.4101438,12.5737263 11.1753725,12.9196393 9.96203922,13.3632063 C9.48073203,13.5390897 9.00909804,13.7429123 8.55210458,13.9789315 C8.28203922,14.1186271 8.27498039,14.1460341 8.5060915,14.3402776 C9.27053595,14.9831437 10.0302745,15.6318637 10.794719,16.2744637 C12.4038693,17.6275158 14.0059608,18.9893489 15.6028235,20.3573019 C15.8020392,20.5278637 15.992366,20.7106654 16.2148497,20.8522237 C16.3155033,20.9464184 16.3662222,21.058175 16.3306667,21.1994671 C16.1586405,21.3383645 16.0582484,21.1704637 15.956549,21.0911697 C14.9118431,20.2758793 13.8721046,19.4539367 12.8271373,18.6389123 C11.9479216,17.9532063 11.0721046,17.2632428 10.2046536,16.5621037 C10.0464837,16.4343819 9.90766013,16.413095 9.72099346,16.5163367 C7.84099346,17.5559384 6.30007843,18.9781732 5.06975163,20.755368 C4.27524183,21.9032671 3.47341176,23.0458445 2.58295425,24.1195054 C2.4294902,24.3047019 2.42033987,24.3789402 2.64465359,24.5103871 C4.55550327,25.6290167 6.46739869,26.7457837 8.38138562,27.8590915 C8.78033987,28.0911193 9.18086275,28.3215506 9.57249673,28.5660845 C9.7764183,28.6932741 9.89118954,28.6783732 10.0096209,28.4426202 C10.5369412,27.3953019 11.3220392,26.5528706 12.1578562,25.7628584 C13.4386405,24.5524289 14.8517124,23.5080376 16.2621699,22.462848 C16.3939346,22.3651941 16.5126275,22.227095 16.7050458,22.2654115 C16.8671373,22.3758376 16.9361569,22.5296358 16.9128889,22.7262741 C16.5900131,23.1182202 16.1837386,23.4194306 15.8051765,23.7483141 C14.6545882,24.7472045 13.4768105,25.7165593 12.4352418,26.8365193 C11.7473987,27.576241 11.0655686,28.3274045 10.683085,29.2975576 C10.5748497,29.5721593 10.3225621,29.7004132 10.0836078,29.8331906 C9.99053595,29.8850776 9.89981699,29.8520828 9.8164183,29.8020584 C8.80935948,29.197775 7.82243137,28.5602306 6.82269281,27.9437071 C6.75942484,27.9048584 6.70478431,27.8548341 6.68857516,27.7752741" id="Fill-7" fill="#5F9D45"></path>
                                <path d="M6.77231373,15.3110426 C6.85649673,15.4084304 6.94094118,15.5058183 7.02512418,15.6032061 C7.01911111,15.7532791 6.88760784,15.7777591 6.79401307,15.8320409 C6.07819608,16.248467 5.37649673,16.6883087 4.69675817,17.16354 C4.61414379,17.2212809 4.508,17.2545417 4.44996078,17.3968983 C5.03427451,17.5985922 5.61649673,17.7893765 6.19427451,17.992933 C6.35715033,18.0501417 6.54826144,18.0591887 6.65858824,18.2278878 C6.58721569,18.2920148 6.51610458,18.3564078 6.44473203,18.4208009 C6.30852288,18.4966357 6.1804183,18.4349035 6.05335948,18.3923296 C5.5783268,18.2329435 5.10538562,18.0679696 4.62956863,17.9115104 C4.37518954,17.8279591 4.35662745,17.8473835 4.41466667,18.11826 C4.53257516,18.6671974 4.65649673,19.2145383 4.78486275,19.7610809 C4.82329412,19.9247243 4.88081046,20.0883678 4.82329412,20.2605261 C4.72264052,20.4513104 4.59505882,20.6221383 4.44499346,20.7756704 C4.17701961,19.675667 3.90930719,18.5756635 3.64081046,17.47566 C3.60917647,17.3452774 3.69022222,17.2840774 3.77911111,17.2210148 C4.748,16.5371713 5.73100654,15.8770096 6.77231373,15.3110426" id="Fill-9" fill="#8F4A51"></path>
                                <path d="M31.1650458,14.9400908 C31.5783791,14.2080856 31.9043922,13.4276525 32.3504052,12.7137412 C32.6016471,12.3116838 32.8774641,11.9290508 33.2413856,11.6217203 C34.8118431,11.4474334 36.3880523,11.388096 37.9658301,11.4484977 C41.5697516,11.5865969 45.0194248,12.3502664 48.1990327,14.151409 C51.7250458,16.1486577 54.2024314,19.1434664 56.0191634,22.7508073 C57.2743268,25.2432438 58.029098,27.8918734 58.3336732,30.6748769 C58.3553725,30.8747082 58.3856993,31.0694838 58.0934118,31.0633638 C57.9945882,31.1471812 57.8761569,31.1775151 57.7527582,31.195343 C57.6656993,31.2022612 57.583085,31.2315308 57.4983791,31.2496247 C57.3898824,31.2703795 57.2847843,31.3012456 57.1906667,31.3635099 C57.0740654,31.4130021 56.9632157,31.4779273 56.8374641,31.504536 C56.6772026,31.5215656 56.5417778,31.5907482 56.4298824,31.7083586 C56.3287059,31.801223 56.224915,31.8914264 56.1229542,31.9834925 C55.9909281,32.0819447 55.9399477,32.263416 55.7796863,32.333663 C55.2076601,33.2772073 55.0709281,34.3027064 55.2999477,35.3673203 C55.4534118,36.0796351 55.9258301,36.5769517 56.540732,36.9335082 C56.9143268,37.1506351 57.3083137,37.3225273 57.7357647,37.3847917 C57.9655686,37.4183186 58.012366,37.5079899 57.9613856,37.7338977 C57.547268,39.5632456 56.9336732,41.3162264 56.0507974,42.967296 C55.8962876,43.2560003 55.7284444,43.5377864 55.5666144,43.8224995 C55.5331503,43.9119047 55.4821699,43.9927951 55.444,44.0800717 C54.8217778,44.7841377 54.0552418,45.3040717 53.2850458,45.8146925 C51.8029542,46.7976177 50.1702745,47.4596421 48.5232157,48.0849464 C46.8058301,48.7368595 45.0539346,49.2685012 43.2555033,49.6367656 C41.9017778,49.9142943 40.5396863,50.1130612 39.1572026,50.1779864 C38.604,50.204063 38.0513203,50.2442421 37.4981176,50.228809 C34.6079216,50.148983 31.8353725,49.5596003 29.2476601,48.2049517 C27.4324967,47.2547551 25.8667451,45.9738125 24.488183,44.4486021 C24.4387712,44.3937882 24.3875294,44.3395064 24.3778562,44.2604786 C25.3982484,43.4411969 26.3386405,42.5394282 27.151451,41.5035517 C27.5564183,40.9881412 27.949098,40.4634177 28.2855686,39.8993134 C28.4071373,39.6952247 28.5085752,39.6646247 28.7279216,39.7614803 C30.0003399,40.3258508 31.3226928,40.5339308 32.7056993,40.3120143 C34.5645229,40.0131986 36.2377255,38.4430195 36.6575948,36.5793464 C36.7574641,36.1363117 36.7702745,35.6919464 36.6217778,35.2587569 C36.3888366,34.5794369 35.7436078,34.2101082 34.9893595,34.3372977 C34.6199477,34.3998282 34.2602092,34.5200995 33.8921046,34.5927412 C33.4364183,34.6829447 32.9783791,34.668576 32.5224314,34.5711882 C32.4212549,34.5496351 32.3391634,34.530743 32.3577255,34.3958369 C32.4808627,33.4858195 32.1328889,32.676649 31.7943268,31.8805169 C30.612366,29.102569 28.7553725,26.8690351 26.404,25.0391551 C26.1451765,24.8377273 26.0387712,25.0261169 25.8873987,25.1559673 C25.5318431,25.528223 25.140732,25.8509864 24.6685752,26.0622595 C23.7085752,26.2376108 22.7480523,26.3275482 21.774719,26.1692264 C20.2850458,25.9268212 19.1459608,25.1413325 18.284,23.8989725 C17.4913203,22.756129 17.0521046,21.464543 16.7331503,20.1237308 C16.368183,18.5889412 16.2121046,17.0267447 16.1373333,15.4501795 C16.1028235,14.7269551 16.0941961,14.0053273 16.0910588,13.2829012 C16.0887059,12.7882456 16.1815163,12.6980421 16.6536732,12.6961795 C17.5211242,12.6929864 18.3898824,12.6645151 19.2560261,12.7017673 C20.9036078,12.7728125 22.5545882,12.7720143 24.1995556,12.896543 C25.6573333,13.006969 27.1124967,13.1479951 28.5572026,13.3930612 C29.9446536,13.6282821 30.8374641,14.4214873 31.2905359,15.757776 C31.675634,16.893169 31.7493595,18.0596943 31.6366797,19.2475064 C31.5927582,19.7115621 31.5219085,20.1710943 31.4583791,20.6314247 C31.4348497,20.7367951 31.4319739,20.849616 31.3775948,20.938489 C31.4406013,20.8575986 31.4353725,20.7450438 31.4602092,20.6433986 C31.6021699,19.827576 31.7051765,19.0032386 31.6970719,18.1786351 C31.6876601,17.202096 31.6170719,16.2223638 31.2191634,15.3062264 C31.1692288,15.1910108 31.1077908,15.0734003 31.1650458,14.9400908" id="Fill-11" fill="#F4A3C5"></path>
                                <path d="M24.7150065,26.0019376 C25.1058562,25.7198854 25.4967059,25.4380993 25.8872941,25.1560471 C28.1220654,26.8800245 29.9037647,28.9847723 31.0909542,31.5855063 C31.4075556,32.279461 31.6859869,32.9888489 31.8242876,33.7471967 C31.8614118,33.9507532 31.9241569,34.2115184 31.7557908,34.3030523 C31.6208889,34.3767584 31.4127843,34.1992784 31.2818039,34.0555915 C30.4083399,33.0974123 29.544549,32.129388 28.6619346,31.1799897 C27.9380131,30.4014193 27.3178824,29.519075 26.4820654,28.851995 C25.4195817,28.0039758 24.1743529,27.539388 22.8967059,27.1607463 C21.1602353,26.6466663 19.3819346,26.3632837 17.5837647,26.1884645 C16.6595817,26.0987932 15.7367059,26.0014054 14.8070327,26.0011393 C14.4444183,25.9771915 14.077098,26.043181 13.7178824,25.9492523 C14.0117386,26.0280141 14.3262484,25.9535097 14.6164444,26.0607428 C15.216183,26.107308 15.232915,25.9686767 15.0734379,26.6817897 C14.7978824,27.9121758 14.6224575,29.1577289 14.5351373,30.4197793 C14.3016732,33.8020106 14.847817,37.0543915 16.0407582,40.2067237 C16.0854641,40.324068 16.1751373,40.4611028 15.9317386,40.434228 C15.7385359,40.4209237 15.5466405,40.3996367 15.3586667,40.3469515 C15.3163137,40.3477497 15.3471634,40.4033619 15.3440261,40.360788 C15.3432418,40.3498784 15.3539608,40.3437584 15.3733072,40.3512089 C15.536183,40.4121428 15.7241569,40.3799463 15.8734379,40.4914367 C17.2512157,40.7423567 18.6397124,40.8804558 20.0399739,40.8785932 C22.4486013,40.8756663 24.708732,40.3041115 26.7774902,39.0250315 C26.9623268,38.9108802 27.1006275,38.8773532 27.2823268,39.0213063 C27.428732,39.1375863 27.5989281,39.2299184 27.7699085,39.3060193 C27.9772288,39.3983515 27.9986667,39.4976019 27.8663791,39.6854593 C27.4708235,40.2469028 27.0632418,40.7990332 26.6172288,41.3192332 C25.5905621,42.5168906 24.4616732,43.5969376 23.1346144,44.4540037 C22.1981438,45.0585532 21.1604967,45.3390089 20.0893856,45.5508141 C19.0980131,45.7466541 18.1134379,45.978948 17.1259869,46.1952767 C17.1074248,46.2296019 17.0506928,46.2213532 17.0454641,46.2705793 C17.112915,46.2503567 17.1866405,46.3139515 17.2514771,46.2551463 C17.7377516,46.1979376 18.226902,46.1590889 18.7089935,46.076868 C19.0282092,46.0225863 19.2465098,46.070748 19.4486013,46.3650402 C19.8428497,46.9395219 20.2820654,47.4818071 20.7450719,48.0020071 C20.8164444,48.0818332 20.9351373,48.1494193 20.8114771,48.2904454 C20.0538301,49.1541637 19.2433725,49.9556176 18.136183,50.3300019 C17.0488627,50.697468 16.1531765,50.2485793 15.3576209,49.5325393 C14.311085,48.5900593 13.5688627,47.4057063 12.8587974,46.1998002 C11.2739608,43.5072663 10.2964444,40.5568941 9.35788235,37.5932176 C8.36337255,34.4515289 7.49801307,31.2712576 6.69539869,28.0734245 C6.67082353,27.9760367 6.59343791,27.8767863 6.68860131,27.7754071 C7.67709804,28.3892697 8.66402614,29.0055271 9.65566013,29.6143341 C9.77356863,29.6867097 9.89173856,29.8564732 10.0321307,29.7806384 C10.2389281,29.669148 10.504549,29.5664384 10.5882092,29.3399984 C10.9748758,28.2929463 11.7048105,27.5034663 12.4441569,26.7246297 C13.8180131,25.2768506 15.3714771,24.032628 16.8695163,22.7256089 C17.0927843,22.8062332 17.1429804,23.0316089 17.2446797,23.2074923 C17.8402353,24.2388454 18.5618039,25.143275 19.6148758,25.7286663 C20.4776209,26.2076228 21.3965752,26.4119776 22.3798431,26.385635 C23.1782745,26.3640819 23.9489935,26.2076228 24.7150065,26.0019376" id="Fill-13" fill="#ED3438"></path>
                                <path d="M18.0741438,26.4465423 C19.6636863,26.6272153 21.2192418,26.9755231 22.7496993,27.4417075 C23.5499608,27.6854431 24.3240784,27.9983614 25.0704837,28.3836553 C25.9627712,28.8442518 26.6825098,29.5038814 27.313098,30.2875075 C27.9282614,31.0517092 28.5789804,31.7863753 29.2124444,32.5354101 C29.264732,32.5971423 29.342902,32.645304 29.3423791,32.7991023 C28.822902,32.3991736 28.4069542,31.9388431 27.9713987,31.500864 C27.7664314,31.3885753 27.6513987,31.1850188 27.4984575,31.0197788 C27.4364967,30.8899283 27.3091765,30.8127631 27.2393725,30.6890327 C27.2137516,30.6499179 27.1959739,30.604417 27.1559739,30.5759457 C27.1964967,30.6126657 27.216366,30.6637544 27.2453856,30.7087231 C27.323817,30.8239388 27.443817,30.9053614 27.5023791,31.0368083 C27.6388497,31.2124257 27.8265621,31.3475979 27.9104837,31.5655231 C28.8877386,32.7315162 29.9873464,33.7477023 31.3476078,34.4379318 C32.3661699,34.9549388 33.4226405,35.1247023 34.5327059,34.772137 C34.7727059,34.6960362 35.0223791,34.6707579 35.2751895,34.6792727 C35.8919216,34.6997614 36.2877386,35.0885144 36.3235556,35.7159475 C36.3740131,36.5943005 36.0323137,37.3385457 35.5162353,38.0024327 C34.6927059,39.0611927 33.6074771,39.649511 32.2848627,39.8046397 C30.747085,39.9850466 29.3274771,39.5869805 27.9546667,38.9358657 C26.9091765,38.4393475 25.9455163,37.8079231 25.0357124,37.0886901 C24.9627712,37.0309492 24.8882614,36.975337 24.7732288,36.8872623 C24.7959739,37.0596866 24.8981961,37.1192901 24.9708758,37.1913997 C25.4581961,37.6740814 25.9732288,38.1243005 26.5329673,38.5178431 C26.6634248,38.609377 26.6890458,38.664457 26.5366275,38.7583857 C25.0744052,39.6601544 23.515451,40.2899823 21.8100915,40.5113666 C21.7792418,40.5153579 21.7476078,40.5111005 21.7162353,40.5108344 C21.5141438,40.5856049 21.4027712,40.4629388 21.3052549,40.3131318 C21.0040784,39.8520031 20.728,39.3746431 20.4699608,38.8882362 C19.3698301,36.8146205 18.5635556,34.6327075 18.1214641,32.3134936 C17.7967582,30.610537 17.7463007,28.8921475 17.7910065,27.1663075 C17.7959739,26.9853683 17.8378039,26.8078883 17.8600261,26.6285457 C17.8746667,26.5106692 17.900549,26.3818831 18.0741438,26.4465423" id="Fill-15" fill="#F4A4C5"></path>
                                <path d="M24.3777516,44.260585 C24.7631111,44.5567398 25.0726536,44.933519 25.4138301,45.276239 C27.0883399,46.956312 29.0462484,48.1678059 31.2472941,48.9948042 C32.6208889,49.5110129 34.0381438,49.8348407 35.4854641,50.004072 C36.5288627,50.1259398 37.5824575,50.1975172 38.635268,50.1421711 C41.2187974,50.0067329 43.7476863,49.5549172 46.2232418,48.7819346 C47.9089935,48.2558807 49.5589281,47.6345677 51.1644183,46.8961763 C52.7419346,46.1708233 54.1743529,45.2129103 55.4486013,44.0160511 C55.4736993,43.9806616 55.4998431,43.9795972 55.5275556,44.0128581 C55.3233725,44.4835659 54.9965752,44.8715207 54.6888627,45.2685224 C52.8091242,47.6931068 50.4901699,49.5456042 47.6663791,50.692705 C47.3042876,50.8398511 47.1696471,51.0548494 47.0193203,51.3358372 C46.4214118,52.4536685 45.835268,53.5789503 45.1066405,54.6177537 C45.0444183,54.6417016 44.9808889,54.6382424 44.9238954,54.609239 C43.9625882,54.1169781 42.995268,54.2979172 42.0323922,54.5924755 C41.4689935,54.7648998 40.9560523,55.0474842 40.477098,55.3952598 C40.3615425,55.4788111 40.260366,55.6022755 40.0930458,55.5735381 C39.8598431,54.8330181 39.7419346,54.0685503 39.6428497,53.3014216 C39.5973595,52.9485903 39.8906928,52.7051207 39.963634,52.387679 C40.077098,52.0140929 40.2726536,51.677759 40.428732,51.3241294 C40.4365752,51.2969885 40.4480784,51.270912 40.4559216,51.243239 C40.4475556,51.2565433 40.4397124,51.273839 40.4308235,51.2977868 C40.2491242,51.6375798 40.1615425,52.0250024 39.9001046,52.3190285 C39.3421961,53.3522442 38.7895163,54.3886529 38.1610196,55.380359 C38.0768366,55.5131363 37.9814118,55.6384633 37.8909542,55.7672494 C37.828732,55.7909311 37.7652026,55.787472 37.7084706,55.7584685 C36.7471634,55.2662077 35.7801046,55.4471468 34.8167059,55.741705 C34.2433725,55.9175885 33.7218039,56.2060268 33.2365752,56.5633816 C33.1299085,56.6421433 33.0326536,56.7523033 32.8776209,56.7230337 C32.6054641,55.851865 32.5042876,54.9469033 32.3578824,54.0504563 C32.321281,53.8272094 32.4049412,53.5616546 32.1850719,53.3849729 C31.8933072,53.2144111 31.5560523,53.2351659 31.2418039,53.1665155 C30.3657255,52.975465 29.5011503,52.7522181 28.6632418,52.4283903 C28.6211503,52.412425 28.5824575,52.4148198 28.5424575,52.430785 C26.7824575,51.7711555 25.2046797,50.7927537 23.7589281,49.5868477 C22.5095163,48.544585 21.4368366,47.3275033 20.4180131,46.0590668 C20.3798431,46.0117033 20.3505621,45.9576877 20.3008889,45.8818529 C20.7372288,45.8022929 21.1489935,45.7496077 21.5495163,45.649825 C22.4616732,45.4228529 23.2818039,44.9840755 24.0606275,44.4601503 C24.1644183,44.3904355 24.2718693,44.3268407 24.3777516,44.260585" id="Fill-17" fill="#EC8FB7"></path>
                                <path d="M18.0741438,26.4465423 C17.8030327,26.6101857 17.8947974,26.9159197 17.892183,27.125064 C17.8764967,28.3211249 17.8506144,29.5158553 17.9823791,30.7135127 C18.2100915,32.7823388 18.7316601,34.7641544 19.5185882,36.675191 C20.0385882,37.9385718 20.6613333,39.1516623 21.399634,40.3006257 C21.4791111,40.4243562 21.5575425,40.5230744 21.7162353,40.5108344 C21.208,40.6499979 20.6830327,40.6401527 20.1648627,40.671551 C19.1936209,40.7306223 18.2231634,40.677937 17.2547974,40.5813475 C17.1094379,40.5667127 17.0393725,40.5134953 16.9810719,40.3783231 C16.1672157,38.4901701 15.6231634,36.5280449 15.3502222,34.4823683 C14.991268,31.794624 15.2263007,29.1435997 15.7476078,26.5034849 C15.7975425,26.2504362 15.8825098,26.148791 16.155451,26.1881718 C16.7938824,26.2807701 17.4412026,26.308177 18.0741438,26.4465423" id="Fill-19" fill="#EC8FB7"></path>
                                <path d="M43.6602092,11.9386831 C44.5919739,10.3437579 45.8021699,9.0548327 47.2628235,8.00325704 C48.0066144,7.46789009 48.7987712,7.01846922 49.6225621,6.62279791 C49.793281,6.54084313 49.8638693,6.55255096 49.9370719,6.7433353 C50.6795556,8.68257704 51.267268,10.6598692 51.3504052,12.7571666 C51.3836078,13.5902849 51.2973333,14.4130257 50.9906667,15.1990466 C50.9213856,15.3765266 50.8745882,15.4646014 50.6701438,15.307344 C48.6285752,13.7342379 46.3475294,12.666697 43.8743268,12.0129214 C43.8141961,11.9972223 43.7564183,11.9722101 43.6602092,11.9386831" id="Fill-21" fill="#F4A4C5"></path>
                                <path d="M56.0864052,31.9103984 C56.1998693,31.8398854 56.2720261,31.7087045 56.4142484,31.6810315 C56.5222222,31.5314906 56.7018301,31.5110019 56.8487582,31.4325063 C56.9496732,31.3909967 57.0503268,31.3494871 57.1509804,31.3077115 C57.2495425,31.263275 57.3619608,31.2662019 57.4579085,31.2140489 C57.5533333,31.2201689 57.6396078,31.1842471 57.7271895,31.1539132 C57.8508497,31.1602993 57.9698039,31.1028245 58.0947712,31.1262402 C58.5750327,31.1076141 59.0547712,31.0975028 59.5284967,31.202075 C60.9611765,31.5181863 61.7637908,32.472108 61.8513725,33.9635254 C61.948366,35.611668 60.9538562,36.7827167 59.3303268,36.9266697 C58.5279739,36.997715 57.7488889,36.9112367 57.007451,36.5618645 C56.064183,36.1177654 55.5820915,35.3650054 55.512549,34.3163567 C55.4678431,33.6463497 55.5454902,33.0032176 55.8346405,32.3938784 C55.8701961,32.2065532 56.0173856,32.0796297 56.0864052,31.9103984" id="Fill-23" fill="#F4A4C5"></path>
                                <path d="M40.0929935,55.5734583 C40.9756078,54.8614096 41.9693333,54.3973539 43.0875033,54.2531348 C43.7884183,54.1626652 44.4838431,54.2086983 45.1065882,54.6176739 C44.5099869,55.5854322 43.8498562,56.4986426 42.9549542,57.209627 C42.8890719,57.2620461 42.8213595,57.3120704 42.7510327,57.3578374 C41.8025359,57.9738287 41.0827974,57.7918252 40.5416209,56.7908061 C40.3348235,56.4084391 40.1826667,56.0021243 40.0929935,55.5734583" id="Fill-25" fill="#F4A4C5"></path>
                                <path d="M32.8776732,56.7230337 C33.7600261,56.0104529 34.7540131,55.5469294 35.8719216,55.4027103 C36.5728366,55.3122407 37.2682614,55.3580077 37.8910065,55.7672494 C37.2946667,56.7350077 36.6345359,57.6484842 35.7393725,58.3589363 C35.6734902,58.4116216 35.6060392,58.461912 35.5357124,58.507679 C34.5861699,59.1242024 33.8659085,58.9419329 33.3260392,57.9403816 C33.1195033,57.5577485 32.9673464,57.1514337 32.8776732,56.7230337" id="Fill-27" fill="#F4A4C5"></path>
                                <path d="M57.1255163,23.8276346 C58.4217255,24.3387877 59.5273464,24.9324277 59.9242092,26.3432207 C60.093098,26.9435129 60.0219869,27.5456677 59.903817,28.1395737 C59.7268235,29.0280381 59.3846013,29.860092 58.9856471,30.6876224 C58.6831634,28.3428642 58.0998954,26.081125 57.1255163,23.8276346" id="Fill-29" fill="#ED3438"></path>
                                <path d="M58.7033464,37.4959096 C59.071451,37.8056348 59.4102745,38.0698591 59.7253072,38.3609583 C60.1621699,38.7646122 60.1749804,39.3146139 59.7867451,39.7736139 C59.3443922,40.2954104 58.7558954,40.5915652 58.1590327,40.8749478 C58.0298824,40.9364139 57.894719,40.9843096 57.7130196,41.0588139 C58.1467451,39.887233 58.4602092,38.7300209 58.7033464,37.4959096" id="Fill-31" fill="#ED3438"></path>
                                <path d="M28.5425098,52.4308117 C28.6700915,52.3201195 28.7832941,52.4329403 28.8886536,52.4699264 C30.0008105,52.8621386 31.1448627,53.1149212 32.3239477,53.2953282 C32.2661699,53.3325803 32.2256471,53.3586569 32.1851242,53.3849995 C30.9291765,53.2317334 29.7197647,52.8946012 28.5425098,52.4308117" id="Fill-35" fill="#EE9EBE"></path>
                                <path d="M39.8999739,52.3190817 C40.0714771,51.9598643 40.2429804,51.600913 40.4147451,51.2419617 C40.4652026,51.2310522 40.5007582,51.2339791 40.4657255,51.3005009 C40.3159216,51.67116 40.1721307,52.0450122 39.9635033,52.3877322 L39.8999739,52.3190817 Z" id="Fill-37" fill="#9E555F"></path>
                                <path d="M14.6164706,26.0601808 C14.2941176,26.105975 13.9837908,26.0053867 13.6666667,25.9717691 C14.0475817,25.966475 14.4290196,25.892622 14.8070588,26.0008867 C14.7416993,26.0146514 14.6653595,25.9929455 14.6164706,26.0601808" id="Fill-39" fill="#A2494C"></path>
                                <path d="M27.9103529,31.5625835 C27.735451,31.4175246 27.6081307,31.2303776 27.4737516,31.0498482 C27.4465621,30.9847305 27.4771503,30.9757305 27.5310065,30.9892305 C27.6779346,31.158907 27.8246013,31.3285835 27.971268,31.4982599 C27.9511373,31.5197011 27.9307451,31.5411423 27.9103529,31.5625835" id="Fill-41" fill="#9D565F"></path>
                                <path d="M15.8733595,40.4906885 C15.6945359,40.4525709 15.5039477,40.4589238 15.3449935,40.3421885 C15.5460392,40.3421885 15.7452549,40.3443062 15.9316601,40.4337768 C15.9123137,40.4525709 15.8927059,40.4718944 15.8733595,40.4906885" id="Fill-43" fill="#AE4648"></path>
                                <path d="M56.0864052,31.9103984 C56.079085,32.1118396 55.9300654,32.2373102 55.8346405,32.391369 C55.8163399,32.3715161 55.7980392,32.3513984 55.7797386,32.3315455 C55.8521569,32.1690161 55.9460131,32.0221043 56.0864052,31.9103984" id="Fill-45" fill="#A45C65"></path>
                                <path d="M58.0946928,31.125861 C57.9757386,31.1973316 57.8444967,31.1777434 57.7161307,31.1785375 C57.7025359,31.1668904 57.6980915,31.1557728 57.7033203,31.1449198 C57.7082876,31.1343316 57.7132549,31.1293022 57.7182222,31.1293022 L58.0933856,31.0633904 C58.0941699,31.0843022 58.0944314,31.105214 58.0946928,31.125861" id="Fill-47" fill="#944E56"></path>
                                <path d="M17.2513987,46.2548874 C17.1546667,46.3374756 17.0417255,46.3115344 16.9225098,46.3070344 C16.9520523,46.1865932 17.0443399,46.2008874 17.1259085,46.1950638 C17.1677386,46.2151815 17.2095686,46.2350344 17.2513987,46.2548874" id="Fill-49" fill="#A7484A"></path>
                                <path d="M55.5275294,44.0119491 L55.4485752,44.0151255 C55.4616471,43.9343902 55.4875294,43.8615961 55.5667451,43.8224197 C55.684915,43.9134785 55.584,43.9579491 55.5275294,44.0119491" id="Fill-51" fill="#D57E9B"></path>
                                <path d="M16.6865098,22.2992045 C16.1442876,22.5769993 15.6927843,22.9894341 15.207817,23.3497158 C13.9453333,24.2876723 12.7089935,25.2634132 11.6206275,26.4107802 C10.9913464,27.0736028 10.3793203,27.7606393 10.0041569,28.619568 C9.92467974,28.8013054 9.85356863,28.8135454 9.67840523,28.7108358 C7.23239216,27.2729019 4.78036601,25.8453454 2.33016993,24.4143297 C2.31448366,24.4052828 2.30533333,24.3842619 2.28520261,24.3589837 C3.492,22.9548428 4.47422222,21.3742863 5.60415686,19.9094776 C6.63657516,18.5710602 7.91134641,17.5029871 9.35160784,16.6249002 C9.83735948,16.3287454 10.1340915,16.3822289 10.5599739,16.7278758 C12.3989281,18.2195593 14.2705621,19.6697332 16.1314771,21.1334776 C16.1793203,21.1709958 16.239451,21.1925489 16.2938301,21.2215523 C16.5618039,21.5288828 16.6833725,21.8918254 16.6865098,22.2992045" id="Fill-53" fill="#74BF4F"></path>
                                <path d="M16.808183,12.0835675 C16.2636078,11.9042249 15.6960261,11.8326475 15.1331503,11.7749066 C14.3935425,11.6990718 14.3995556,11.7291397 14.5357647,10.9886197 C14.8149804,9.4697953 15.2555033,8.00205965 15.9253072,6.61521443 C16.5088366,5.40664748 17.2609935,4.32447183 18.2863529,3.44292574 C19.1854379,2.66994313 20.0419085,1.84560574 20.9138039,1.04016052 C21.2722353,0.709148348 21.263085,0.716598783 21.6160261,1.04335357 C22.6024314,1.95629791 23.6003399,2.85647009 24.5906667,3.76568922 C25.1247843,4.25582139 25.6487059,4.7573953 26.1843922,5.24593096 C26.3391634,5.38695704 26.2834771,5.43831183 26.1592941,5.58093443 C25.5226928,6.3118753 24.6058301,6.30256226 23.7885752,6.5138353 C21.1883137,7.18650313 18.574719,7.80648574 15.9666144,8.44748922 C15.9485752,8.4520127 15.9328889,8.4661153 15.8941961,8.48846661 C16.911451,9.71087009 17.9250458,10.9295483 18.9386405,12.1479605 C18.8787712,12.2190057 18.7961569,12.232044 18.7122353,12.2339066 C18.1305359,12.2477431 17.549098,12.2501379 16.9713203,12.1684492 C16.9085752,12.1594023 16.8507974,12.1349223 16.808183,12.0835675" id="Fill-55" fill="#74BF4F"></path>
                                <path d="M27.599268,12.9036475 C27.5378301,12.5300614 27.4505098,12.1583379 27.4212288,11.782091 C27.3765229,11.210004 27.2599216,10.6504231 27.144366,10.0937692 C27.0706405,9.73774487 27.1231895,9.49454139 27.3558693,9.20796574 C27.9605752,8.46292226 28.559268,7.71388748 29.2541699,7.05372574 C30.0661961,6.28207357 30.9289412,5.5835953 32.0133856,5.23608574 C32.4740392,5.08840748 32.8797908,5.07084574 33.3320784,5.37338661 C34.8128627,6.36349617 36.3286797,7.299324 37.8306405,8.25643878 C37.8567843,8.27293617 37.8787451,8.29555357 37.9315556,8.33945791 C37.416,8.48394313 36.9179608,8.602884 36.4332549,8.76333443 C34.9255425,9.26198139 33.6071111,10.0719501 32.5543007,11.292757 C31.910902,12.0385988 31.5247582,12.9323849 31.1689412,13.8434666 C31.0868497,14.0536753 31.0682876,14.3056597 30.8607059,14.4530718 C30.7323399,14.4663762 30.6818824,14.3567483 30.6149542,14.2830423 C30.0706405,13.6816857 29.3924706,13.3440214 28.611817,13.1817083 C28.2703791,13.1106631 27.9025359,13.1234353 27.599268,12.9036475" id="Fill-57" fill="#74BF4F"></path>
                                <path d="M0.909490196,10.3077297 C3.60596078,9.38760104 6.29406536,8.47093148 8.98138562,7.55266539 C9.40622222,7.40738191 9.83341176,7.266888 10.249098,7.09792278 C10.4470065,7.01756452 10.5643922,7.07450713 10.6757647,7.22670887 C10.9060915,7.54202191 11.1162876,7.86984104 11.2982484,8.21708452 C11.8590327,9.28622191 12.3202092,10.4016584 12.7936732,11.5117732 C12.8927582,11.7443332 12.8164183,11.7954219 12.5941961,11.835335 C10.6710588,12.178321 8.8964183,12.9111245 7.25145098,13.9768028 C7.22635294,13.9930341 7.20543791,14.0159176 7.15550327,14.0592897 C8.02373856,14.745528 8.88334641,15.4245819 9.78086275,16.1339697 C9.29877124,16.3830271 8.84648366,16.6137245 8.42060131,16.8912532 C8.26321569,16.9934306 8.22766013,16.8313837 8.16935948,16.7433089 C7.73223529,16.0844776 7.27994771,15.4384184 6.79262745,14.8152428 C5.93981699,13.7240202 4.92805229,12.8259767 3.7688366,12.0883837 C2.91132026,11.5431715 2.06713725,10.9761402 1.16465359,10.5083593 C1.07288889,10.4607297 0.981908497,10.4117697 0.909490196,10.3077297" id="Fill-59" fill="#74BF4F"></path>
                                <path d="M19.629098,12.197905 C19.3595556,12.170232 19.1977255,12.0055242 19.0460915,11.7862685 C18.3862222,10.833145 17.6429542,9.94574504 16.9247843,9.0389207 C16.7185098,8.77842157 16.7284444,8.767512 17.0738039,8.69540243 C19.2406013,8.24199026 21.4068758,7.78565113 23.5734118,7.33011026 C24.1328889,7.21249983 24.6952418,7.10792765 25.2500131,6.97009461 C25.4910588,6.90995896 25.580732,6.97781113 25.6411242,7.21037113 C26.0343268,8.72493809 26.4536732,10.2325868 26.7799477,11.7644494 C26.852366,12.1045085 26.9713203,12.436585 26.9741961,12.7907468 C26.8913203,12.8748303 26.7859608,12.8782894 26.6821699,12.8644529 C25.0311895,12.6433346 23.3734118,12.4985833 21.7106667,12.4115729 C21.1056993,12.3540981 20.4996863,12.314185 19.8921046,12.3003485 C19.7940654,12.2934303 19.6926275,12.295825 19.629098,12.197905" id="Fill-61" fill="#74BF4F"></path>
                                <path d="M14.0380654,12.5341325 C14.5259085,12.5022021 15.0040784,12.5817621 15.4822484,12.6613221 C15.6184575,12.8012838 15.584732,12.9776995 15.572183,13.1432056 C15.4916601,14.2136734 15.5123137,15.2822786 15.5690458,16.3540769 C15.6213333,17.342856 15.7423791,18.3193951 15.9167582,19.2911447 C15.9899608,19.6987899 16.1002876,20.0976543 16.1936209,20.500776 C16.2239477,20.632223 16.2801569,20.7673951 16.1904837,20.8993743 C15.8069542,20.718169 15.5303529,20.393809 15.212183,20.1279882 C13.9648627,19.0862577 12.7303529,18.0280299 11.4919216,16.9751238 C10.428915,16.0712264 9.37087582,15.1617412 8.30185621,14.2655603 C8.12407843,14.1168177 8.18342484,14.074776 8.34081046,13.9965464 C9.73322876,13.3012612 11.1708758,12.7608386 12.7269542,12.5838908 C13.0508758,12.5469047 13.3695686,12.5306734 13.6924444,12.5407847 C13.6181961,12.8587586 13.4048627,13.1014299 13.2511373,13.3757656 C13.1894379,13.4856595 13.0623791,13.4976334 12.9444706,13.5034873 C12.7776732,13.5114699 12.6093072,13.4928438 12.4435556,13.5181221 C11.9379346,13.5947551 11.7418562,14.0087864 11.9967582,14.4552803 C12.0550588,14.5569256 12.132183,14.6442021 12.2001569,14.7381308 C12.3426405,14.9353012 12.2553203,15.1106525 12.1248627,15.2556699 C11.991268,15.4041464 11.8571503,15.2870682 11.7353203,15.206976 C11.6176732,15.1298108 11.540549,15.0167238 11.4783268,14.8913969 C11.4453856,14.8248751 11.4140131,14.7575551 11.3771503,14.6934282 C11.2749281,14.5146177 11.123817,14.3488456 10.9274771,14.4760351 C10.7083922,14.6181256 10.8848627,14.8035882 10.9868235,14.9353012 C11.168,15.1686595 11.3776732,15.3794003 11.6268235,15.5409151 C11.818719,15.6651777 11.8660392,15.8181777 11.7593725,16.0273221 C11.6825098,16.1784595 11.6307451,16.3413047 11.5902222,16.5068108 C11.5659085,16.605263 11.5656471,16.7045134 11.6738824,16.752409 C11.7915294,16.804296 11.8744052,16.7436282 11.9347974,16.6427812 C12.0111373,16.5147934 12.0636863,16.375896 12.1178039,16.2375308 C12.2171503,15.9847482 12.3876078,15.870863 12.6608105,15.9403117 C12.7818562,15.9711777 12.9055163,16.0033743 13.0315294,16.0009795 C13.2231634,15.9972543 13.3789804,15.9152995 13.462902,15.7348925 C13.5415948,15.5656612 13.4555817,15.427296 13.3520523,15.2998403 C13.3055163,15.2423656 13.2513987,15.191543 13.2004183,15.1383256 C12.8984575,14.8230125 12.8976732,14.8134334 13.1395033,14.4403795 C13.4059085,14.0298073 13.4134902,14.0276786 13.8581961,14.2256473 C13.896366,14.2426769 13.8472157,14.2256473 13.8869542,14.2384195 C14.0448627,14.2895082 14.2459085,14.3850334 14.3410719,14.2075534 C14.4398954,14.0234212 14.2477386,13.9079395 14.1117908,13.8134786 C13.7402876,13.5559064 13.7036863,13.4646386 14.0200261,13.1743377 C14.2825098,12.9337951 14.1201569,12.7485986 14.0380654,12.5341325" id="Fill-63" fill="#74BF4F"></path>
                                <path d="M16.1904575,20.8995073 C15.9433987,19.9019473 15.7201307,18.9006621 15.6014379,17.8762273 C15.4186928,16.3001943 15.3750327,14.7217664 15.4717647,13.138549 C15.4814379,12.9799612 15.479085,12.820309 15.4824837,12.6614551 C15.5044444,12.5542221 15.5264052,12.446989 15.548366,12.3400221 C15.6613072,12.238643 15.8003922,12.2519473 15.9352941,12.250883 C17.4265359,12.2397073 18.9183007,12.244763 20.4087582,12.2860064 C20.8440523,12.2982464 21.2827451,12.272436 21.7169935,12.3339021 C23.0100654,12.3522621 24.2937255,12.498876 25.5784314,12.630589 C26.0443137,12.6784847 26.5088889,12.7370238 26.9742484,12.7905073 C27.1823529,12.8282917 27.3909804,12.866076 27.5993464,12.9038603 C27.9860131,12.9807595 28.3734641,13.0552638 28.7596078,13.1356221 C29.6168627,13.3144325 30.320915,13.7484203 30.8607843,14.4530186 C30.9622222,14.6155977 31.0636601,14.7779108 31.165098,14.9402238 C32.0006536,16.8209264 31.864183,18.756443 31.4780392,20.705796 C31.4542484,20.7257525 31.4315033,20.7233577 31.4098039,20.7020708 C31.4722876,20.1105595 31.556732,19.521709 31.5844444,18.9262064 C31.6343791,17.866116 31.5575163,16.8219908 31.2233987,15.8100621 C30.7363399,14.3340777 29.6866667,13.6246899 28.2011765,13.4176743 C26.2730719,13.1494586 24.3397386,12.9863473 22.3972549,12.905723 C20.4437908,12.8245664 18.4895425,12.783589 16.5345098,12.7968934 C16.3405229,12.7982238 16.1956863,12.7995543 16.1922876,13.070963 C16.1564706,15.8896221 16.3227451,18.683269 17.1818301,21.3901717 C17.5583007,22.575323 18.0984314,23.6716012 18.9543791,24.5832151 C20.0696732,25.7712934 21.4699346,26.1933073 23.0424837,26.1659003 C23.6053595,26.155789 24.1543791,26.0224795 24.714902,26.0019908 C24.3535948,26.2329543 23.9373856,26.2800517 23.5324183,26.3553543 C21.9054902,26.6584273 20.3773856,26.4444934 19.0082353,25.4330969 C18.1248366,24.7803856 17.519085,23.8964447 17.0014379,22.9390638 C16.9616993,22.8653577 16.9135948,22.7964412 16.8694118,22.725396 C16.8526797,22.5636151 16.7820915,22.4260482 16.6864052,22.2993908 C16.5556863,21.9399073 16.4247059,21.5806899 16.2937255,21.2214725 C16.2814379,21.106789 16.2586928,20.9955647 16.1904575,20.8995073" id="Fill-65" fill="#8F4A50"></path>
                                <path d="M14.0380654,12.5341325 C14.3795033,12.789576 14.3876078,12.9101134 14.0906144,13.1855134 C14.0296993,13.2416577 13.9878693,13.3185569 13.9340131,13.3829499 C13.8174118,13.5229117 13.8278693,13.6205656 14.0168889,13.6700577 C14.1758431,13.7115673 14.2958431,13.8142769 14.3902222,13.9451917 C14.4652549,14.0489656 14.5334902,14.1639151 14.456366,14.2964264 C14.3855163,14.4180282 14.2642092,14.4044577 14.1483922,14.3964751 C13.9768889,14.3845012 13.8145359,14.3294212 13.6872157,14.2179308 C13.5164967,14.0683899 13.4145359,14.1229377 13.3272157,14.2996195 C13.3225098,14.3091986 13.3151895,14.3171812 13.3091765,14.325696 C12.9925752,14.7881551 12.9925752,14.7881551 13.3823791,15.200856 C13.5423791,15.3703534 13.6655163,15.555816 13.5418562,15.7971569 C13.4134902,16.0478108 13.193098,16.1119377 12.9316601,16.072823 C12.3311373,15.9828856 12.3324444,15.984216 12.0723137,16.5648177 C12.0336209,16.6510299 11.9815948,16.7329847 11.923817,16.807223 C11.8263007,16.9314856 11.707085,16.8984908 11.5844706,16.8434108 C11.4615948,16.7883308 11.4511373,16.6949343 11.4817255,16.5813151 C11.4872157,16.5608264 11.492183,16.5400717 11.4992418,16.5201151 C11.5894379,16.2630751 11.793098,15.9762334 11.7376732,15.757776 C11.6866928,15.5576786 11.3392418,15.4536386 11.1575425,15.2604595 C11.020549,15.1143777 10.8764967,14.9749482 10.782902,14.7932108 C10.7227712,14.6761325 10.6738824,14.5532003 10.7795033,14.4395812 C10.8749281,14.3366056 10.9978039,14.3363395 11.128,14.3664073 C11.3102222,14.4087151 11.4132288,14.5295186 11.4767582,14.6982177 C11.5402876,14.8679812 11.6051242,15.0454612 11.772183,15.1340682 C11.8642092,15.1827621 11.9541438,15.387649 12.0736209,15.219216 C12.1630327,15.0928247 12.3206797,14.9262543 12.1117908,14.750903 C12.064732,14.711256 12.0307451,14.6540473 11.9944052,14.6018943 C11.8323137,14.3696003 11.7023791,14.1274612 11.8446013,13.8358299 C11.9917908,13.5335551 12.2592418,13.3898682 12.5651242,13.4300473 C13.0325752,13.4915134 13.3091765,13.3113725 13.4592418,12.8736595 C13.5036863,12.743543 13.5891765,12.633649 13.6924444,12.5410508 C13.8077386,12.538656 13.9230327,12.5365273 14.0380654,12.5341325" id="Fill-67" fill="#FEFEFD"></path>
                                <path d="M6.65856209,18.2278612 C5.86823529,17.9596456 5.07764706,17.691696 4.22849673,17.4035238 C5.14457516,16.7132943 6.08679739,16.1614299 7.0248366,15.6031795 C7.4020915,16.0169447 7.70039216,16.4916438 8.02405229,16.9466525 C8.08784314,17.0363238 8.10509804,17.1076351 8.00104575,17.186929 C7.55137255,17.5307134 7.10562092,17.8803517 6.65856209,18.2278612" id="Fill-69" fill="#4C2120"></path>
                                <path d="M4.82339869,20.260393 C4.63934641,19.4703809 4.45477124,18.6806348 4.27202614,17.8903565 C4.22261438,17.6769548 4.34235294,17.7243183 4.46183007,17.7639652 C5.12248366,17.983753 5.78366013,18.2019443 6.4448366,18.4204017 C5.87751634,19.0095183 5.33084967,19.6169948 4.82339869,20.260393" id="Fill-71" fill="#ED3438"></path>
                                <path d="M19.629098,12.1973065 L19.8772026,12.2216595 C19.8685752,12.3436889 19.7736732,12.3042477 19.711451,12.3042477 C18.3543268,12.3058359 16.9969412,12.308483 15.6395556,12.3050418 C15.6058301,12.3050418 15.5802092,12.2878359 15.5519739,12.2753948 C15.5208627,12.1120712 15.6055686,12.0805712 15.7459608,12.0826889 C16.0999477,12.0887771 16.4539346,12.0840124 16.808183,12.083483 C17.5174641,12.1313948 18.227268,12.1668654 18.9386405,12.1475418 C19.1668758,12.1917477 19.395634,12.2256301 19.629098,12.1973065" id="Fill-73" fill="#8E4C51"></path>
                                <path d="M15.5519216,12.2762268 C16.8842092,12.2762268 18.2164967,12.2772856 19.5490458,12.2746385 C19.6591111,12.2743738 19.779634,12.3143444 19.8771503,12.2224915 C20.4925752,12.2230209 21.1059085,12.2563738 21.7168889,12.3334032 C19.6606797,12.3352562 17.604732,12.3373738 15.5482614,12.3394915 C15.5495686,12.318315 15.5508758,12.2974032 15.5519216,12.2762268" id="Fill-75" fill="#8D5451"></path>
                                <path d="M44.1547451,19.1200508 C44.4815425,19.172736 44.7429804,18.9622612 45.0323922,18.8765812 C46.1450719,18.5476977 47.279451,18.3970925 48.4274248,18.4819743 C50.7944837,18.6567934 52.8572288,19.5391377 54.4499085,21.3828543 C55.3293856,22.4014351 55.8679477,23.591376 56.0276863,24.9516125 C56.1048105,25.6064525 56.1301699,26.2543743 55.9667712,26.8988369 C55.7573595,27.6545238 55.3144837,28.276369 54.8133072,28.8431343 C53.1947451,30.6735464 51.1536993,31.654609 48.755268,31.9105847 C46.9814118,32.0997725 45.2893856,31.8089395 43.6953987,31.0162664 C41.7042876,30.0261569 40.2880784,28.4948264 39.6899085,26.2828456 C39.4689935,25.4662247 39.321281,24.622729 39.5819346,23.7731134 C39.7923922,23.0392456 40.2057255,22.4168682 40.6582745,21.8242925 C41.3419346,20.9286438 42.1986667,20.2330925 43.1672941,19.6772369 C43.4404967,19.3885325 43.8065098,19.2709221 44.1547451,19.1200508" id="Fill-77" fill="#EE6CA2"></path>
                                <path d="M39.5818824,23.7731932 C39.4663268,24.8878315 39.600183,25.969475 40.010902,27.0104071 C40.4341699,28.0830037 41.088549,28.9845063 41.9481569,29.7433863 C43.1371765,30.7930993 44.5186144,31.4189358 46.0498562,31.7190819 C47.1737778,31.9391358 48.3047582,31.9420628 49.4331242,31.7416993 C50.9251503,31.4769428 52.2924706,30.9075167 53.5013595,29.9706245 C54.5382222,29.1670419 55.366719,28.1873097 55.9060654,26.9691637 C55.9180915,26.9420228 55.9463268,26.9223323 55.966719,26.8991828 C55.8412288,27.9592732 55.4140392,28.9004228 54.8103791,29.7532315 C53.3546928,31.8092854 51.3468497,32.9627723 48.9120784,33.3509932 C46.3335163,33.7620976 43.9512941,33.2560002 41.8506405,31.6286123 C40.3374379,30.4567654 39.3975686,28.907341 39.166719,26.9811376 C39.0362614,25.8944384 39.1094641,24.797628 39.5818824,23.7731932" id="Fill-79" fill="#BE5F8D"></path>
                                <path d="M28.1084706,17.5279461 C27.9777516,19.2183965 27.3649412,20.7175304 26.3563137,22.053553 C25.8054641,22.7831635 25.1508235,23.4039443 24.4002353,23.9222817 C24.1560523,24.091247 23.9233725,24.1266365 23.6410196,24.0643722 C22.3931765,23.7889722 21.4852026,23.0330191 20.7879477,21.9854348 C19.8750065,20.6132243 19.4271634,19.060607 19.1293856,17.4534417 C19.0093856,16.8060522 18.936183,16.1522765 18.8799739,15.4961061 C18.8629804,15.296807 18.9136993,15.2276243 19.1257255,15.2084661 C20.4593203,15.0871304 21.7931765,15.027793 23.1291242,15.1539183 C24.4946144,15.2827043 25.8357908,15.5229809 27.0946144,16.1128957 C27.1042876,16.1772887 27.0635033,16.2033652 27.0140915,16.2230557 C26.8614118,16.2565826 26.7272941,16.1860696 26.5889935,16.1418991 C25.5076863,15.7970504 24.4020654,15.6235617 23.2697778,15.5392122 C22.0637647,15.4495409 20.8750065,15.5543791 19.681281,15.6722557 C19.5136993,15.688753 19.4059869,15.7238765 19.4360523,15.9391409 C19.6922614,17.78472 20.1238954,19.5733565 21.0948758,21.1821183 C21.5620654,21.9564313 22.1693856,22.5905165 22.9874248,22.9904452 C23.0815425,23.0364783 23.1780131,23.0766574 23.2747451,23.1165704 C23.660366,23.2754243 23.9895163,23.2477513 24.3476863,22.971553 C26.2002353,21.5421339 27.3505621,19.6670191 27.8750065,17.3760104 C27.9076863,17.2333878 27.8789281,17.0423374 28.0865098,16.9949739 C28.1733072,17.1692609 28.1280784,17.3491357 28.1084706,17.5279461" id="Fill-81" fill="#8F4A51"></path>
                                <path d="M34.5586405,29.129364 C34.6462222,28.5040597 34.7949804,27.8973814 35.1372026,27.3609501 C35.4778562,26.8277118 35.9026928,26.7571988 36.4135425,27.1294544 C36.6548497,27.3053379 36.8626928,27.5378979 36.9986405,27.7874875 C36.7536732,27.8782231 36.5105359,27.9700231 36.2660915,28.0580979 C36.1502745,28.0996075 36.1285752,28.1589449 36.198902,28.2672423 C37.6519739,30.4965188 39.2982484,32.4847205 42.0279216,33.1281188 C42.4151111,33.2193866 42.8056993,33.2811188 43.203085,33.3016075 C43.2985098,33.306397 43.4148497,33.2624927 43.5006013,33.3880857 C42.8169412,33.5543901 42.1400784,33.4830788 41.4768105,33.3755797 C38.7026928,32.9250944 36.7745882,31.3626318 35.6974641,28.7233153 C35.5931503,28.4668075 35.5181176,28.4258301 35.2987712,28.6065031 C35.0287059,28.8286857 34.794719,29.0820005 34.5662222,29.3438301 C34.5175948,29.2741153 34.5236078,29.2022718 34.5586405,29.129364" id="Fill-83" fill="#8F4A51"></path>
                                <path d="M36.9697778,12.7235598 C37.6327843,12.724092 37.9972288,12.917005 38.1386667,13.3235859 C38.2599739,13.6721598 38.1692549,13.9063163 37.8437647,14.0877877 C37.4286013,14.3190172 36.9567059,14.2844259 36.5133072,14.3828781 C35.9072941,14.5177842 35.2785359,14.5494485 34.7086013,14.8450711 C34.4275556,14.9906207 34.1086013,14.866092 33.9483399,14.5981424 C33.7930458,14.3376433 33.8814118,13.9927946 34.1705621,13.7549129 C34.8197124,13.2211424 35.5872941,12.9646346 36.3872941,12.7906137 C36.5896471,12.7467094 36.7935686,12.6913633 36.9697778,12.7235598" id="Fill-85" fill="#F1C1D9"></path>
                                <path d="M40.504549,18.8283663 C40.4987974,18.5569576 40.559451,18.237121 40.7586667,17.9603906 C41.0198431,17.597448 41.4049412,17.6001089 41.6695163,17.9603906 C42.012,18.4273732 42.0067712,19.3711837 41.6595817,19.8259263 C41.3978824,20.1683802 41.0282092,20.167848 40.7662484,19.8248619 C40.5968366,19.6024132 40.5061176,19.2796497 40.504549,18.8283663" id="Fill-87" fill="#8F4A51"></path>
                                <path d="M44.1547451,19.1200508 C43.875268,19.3970473 43.4846797,19.469689 43.1672941,19.6772369 C42.7466405,19.1831134 42.6483399,18.416783 42.9372288,17.838576 C43.0546144,17.6038873 43.2133072,17.394743 43.4980131,17.3982021 C43.7814118,17.4016612 43.9351373,17.6108056 44.0504314,17.8489534 C44.2483399,18.2587273 44.2373595,18.686329 44.1547451,19.1200508" id="Fill-89" fill="#8F4A51"></path>
                                <path d="M38.955085,13.7851936 C38.9629281,13.3847327 39.3514248,13.0358927 39.780183,13.0438753 C40.1678954,13.0513257 40.5307712,13.4355553 40.5242353,13.8312266 C40.5171765,14.2479188 40.144366,14.5893083 39.7116863,14.5752057 C39.2573072,14.560837 38.9461961,14.2356788 38.955085,13.7851936" id="Fill-91" fill="#F1C1D9"></path>
                                <path d="M27.0142222,16.1856898 C27.0411503,16.1613368 27.067817,16.1369839 27.0944837,16.1128957 C27.3689935,16.1944251 27.6095163,16.3437192 27.846902,16.4991015 C27.8534379,16.560778 27.8142222,16.578778 27.7648105,16.5872486 C27.5028497,16.4760721 27.1901699,16.4615133 27.0142222,16.1856898" id="Fill-93" fill="#9C555D"></path>
                                <path d="M27.7811765,16.5571544 C27.8031373,16.5385283 27.8248366,16.5196362 27.8467974,16.5010101 C28.2175163,16.7199997 28.2598693,16.8865701 28.1084967,17.5278397 C28.0585621,17.3570118 28.1623529,17.1670257 28.0462745,17.0044466 C28.0057516,16.8259023 27.8423529,16.7229266 27.7811765,16.5571544" id="Fill-95" fill="#9F5760"></path>
                                <path d="M56.8487582,31.4325595 C56.7300654,31.5620007 56.5598693,31.5987948 56.4142484,31.6797948 C56.4921569,31.4765007 56.6670588,31.4487065 56.8487582,31.4325595" id="Fill-97" fill="#B46A77"></path>
                                <path d="M31.4098824,20.7021506 C31.4326275,20.7034741 31.4553725,20.704533 31.4781176,20.7058565 C31.4590327,20.8051212 31.4402092,20.9041212 31.4104052,21.0608271 C31.3366797,20.89618 31.3568105,20.7985035 31.4098824,20.7021506" id="Fill-99" fill="#904B52"></path>
                                <path d="M57.465098,31.2384385 C57.3712418,31.310968 57.2622222,31.313615 57.1511111,31.3072621 C57.2332026,31.2066738 57.3607843,31.2304974 57.465098,31.1905268 C57.4854902,31.201115 57.4922876,31.2117033 57.4854902,31.2225562 C57.4789542,31.2331444 57.4718954,31.2384385 57.465098,31.2384385" id="Fill-101" fill="#A05961"></path>
                                <path d="M57.465098,31.2381223 L57.465098,31.1902105 C57.5495425,31.1700929 57.6339869,31.1497105 57.7181699,31.1295929 C57.7189542,31.1460046 57.7181699,31.1626811 57.7160784,31.1788282 C57.6457516,31.256387 57.5550327,31.2447399 57.465098,31.2381223" id="Fill-103" fill="#A05861"></path>
                                <path d="M34.5586405,29.129364 C34.5612549,29.2005699 34.5638693,29.2717758 34.5662222,29.3427169 C34.558902,29.3760699 34.5395556,29.4393346 34.5121046,29.3784522 C34.4770719,29.3000993 34.4982484,29.2042758 34.5586405,29.129364" id="Fill-105" fill="#A85F6A"></path>
                                <path d="M27.531085,30.9875603 C27.512,31.0076779 27.492915,31.0280603 27.4738301,31.0481779 L27.2210196,30.7334426 C27.1909542,30.6670015 27.223634,30.6598544 27.2772288,30.6720309 C27.3619346,30.7771191 27.4463791,30.882472 27.531085,30.9875603" id="Fill-107" fill="#A45C66"></path>
                                <path d="M27.2773072,30.6707046 C27.2584837,30.6910869 27.2396601,30.711734 27.221098,30.7321163 C27.139268,30.6304693 27.0574379,30.5288222 26.9756078,30.4269104 C27.1397908,30.4412046 27.2064575,30.5579398 27.2773072,30.6707046" id="Fill-109" fill="#B06773"></path>
                                <path d="M40.4657516,51.2994143 C40.4487582,51.2800907 40.4315033,51.2607672 40.4147712,51.241179 C40.4359477,51.1863849 40.4620915,51.0757378 40.4968627,51.0995613 C40.5844444,51.1591202 40.520915,51.2380025 40.4657516,51.2994143" id="Fill-111" fill="#B26374"></path>
                                <path d="M10.6126797,22.9603774 C10.5831373,23.1687235 10.5648366,23.4254974 10.5060131,23.67216 C10.4633987,23.8501722 10.5256209,23.920153 10.6717647,23.9824174 C10.9980392,24.1213148 11.3227451,24.2650017 11.6411765,24.4209287 C11.8356863,24.5164539 11.9070588,24.6806296 11.8275817,24.899087 C11.7496732,25.1124887 11.6482353,25.2271722 11.3865359,25.1449513 C11.0678431,25.0449026 10.7339869,24.9799774 10.440915,24.819527 C10.2210458,24.6989896 10.1528105,24.7777513 10.0500654,24.966673 C9.78470588,25.4549426 9.43019608,25.8750939 8.98496732,26.2053078 C8.79098039,26.3489948 8.57686275,26.5046557 8.33633987,26.2923183 C8.16222222,26.1387861 8.17267974,25.7707878 8.34130719,25.5225287 C8.44091503,25.3761809 8.58784314,25.2990157 8.74366013,25.2314296 C8.95620915,25.1393635 9.15124183,25.0300017 9.29424837,24.82884 C9.60222222,24.3953843 9.60196078,24.3863374 9.11673203,24.1681461 C9.00457516,24.1175896 8.93084967,24.1245078 8.84143791,24.2093896 C8.70392157,24.3395061 8.55960784,24.4640348 8.40666667,24.574727 C7.72901961,25.0648591 6.98522876,24.7519409 6.82575163,23.91696 C6.76954248,23.6221357 6.76143791,23.3241183 6.77111111,23.0268991 C6.77633987,22.8661826 6.72457516,22.775447 6.58183007,22.7062643 C6.29921569,22.5694957 6.02705882,22.4109078 5.74705882,22.2688174 C5.52065359,22.1541339 5.43830065,21.9668087 5.44928105,21.7217426 C5.46026144,21.4835948 5.54313725,21.2970678 5.75960784,21.1709426 C5.98810458,21.0381652 6.15908497,21.1041548 6.29869281,21.2970678 C6.36065359,21.3830139 6.41581699,21.4681617 6.50313725,21.5320226 C6.9324183,21.8468035 6.93424837,21.8494643 7.13006536,21.373967 C7.22732026,21.1376817 7.3875817,20.9612661 7.60248366,20.8391322 C7.88640523,20.6781496 8.13738562,20.8207722 8.14130719,21.1515183 C8.14522876,21.4790713 8.04379085,21.7834748 7.84823529,22.0426435 C7.70392157,22.23396 7.73058824,22.3425235 7.94052288,22.4529496 C8.17163399,22.5748174 8.3896732,22.7240922 8.6048366,22.8738991 C8.73267974,22.9630383 8.82156863,22.959313 8.92169935,22.8323896 C9.04588235,22.6753983 9.18679739,22.5317113 9.32091503,22.3827026 C9.59490196,22.0788313 9.87490196,21.980113 10.1496732,22.0905391 C10.4636601,22.2166643 10.6281046,22.5085617 10.6126797,22.9603774" id="Fill-113" fill="#FEFEFE"></path>
                                <path d="M19.4962092,4.91310939 C19.6162092,4.56932504 19.3769935,4.47539635 19.0839216,4.41419635 C18.9422222,4.38439461 18.8013072,4.34022417 18.6669281,4.28541026 C18.5197386,4.2255407 18.4779085,4.11085722 18.5189542,3.94854417 C18.5610458,3.78250591 18.6653595,3.76467809 18.8013072,3.78436852 C18.8216993,3.78729548 18.8431373,3.78516678 18.8637908,3.78915809 C19.1171242,3.837852 19.4135948,3.99111809 19.6109804,3.90623635 C19.7908497,3.82880504 19.8564706,3.48847983 19.9856209,3.27215113 C20.0943791,3.09067983 20.2261438,2.92304504 20.3952941,2.79452504 C20.496732,2.71762591 20.6109804,2.6465807 20.7385621,2.73758243 C20.8522876,2.81820678 20.8836601,2.94379983 20.8684967,3.07604504 C20.8481046,3.25591983 20.7586928,3.39215635 20.5973856,3.47863461 C20.4287582,3.56963635 20.2729412,3.68139287 20.204183,3.87111287 C20.1715033,3.96184852 20.0230065,4.08132157 20.1751634,4.15422939 C20.3027451,4.21542939 20.467451,4.36071287 20.619085,4.15502765 C20.6935948,4.05391461 20.7858824,3.96397722 20.8805229,3.88122417 C21.2562092,3.55260678 21.7380392,3.65904157 21.9299346,4.12602417 C22.0052288,4.30882591 22.0546405,4.51397896 22.0635294,4.71141548 C22.0732026,4.92428504 22.1746405,5.00570765 22.3505882,5.06025548 C22.5197386,5.11267461 22.6870588,5.17547113 22.8478431,5.24997548 C23.1166013,5.37450417 23.1717647,5.73398765 22.9618301,5.93967287 C22.8295425,6.06925722 22.6938562,6.09267287 22.5513725,5.95776678 C22.5058824,5.91492678 22.4669281,5.86277374 22.4164706,5.82738417 C22.1411765,5.6331407 22.0729412,5.65629026 21.9688889,5.97293374 C21.9592157,6.00300157 21.9550327,6.03679461 21.939085,6.06313722 C21.8300654,6.24381026 21.7228758,6.47823287 21.4739869,6.4042607 C21.2143791,6.32682939 21.3275817,6.071652 21.3239216,5.88139983 C21.3236601,5.86064504 21.3315033,5.83962417 21.3335948,5.8186033 C21.3484967,5.66453896 21.5566013,5.49477548 21.448366,5.39472678 C21.2781699,5.23800157 21.0305882,5.16722243 20.8143791,5.06344852 C20.7273203,5.02167287 20.6794771,5.08553374 20.6355556,5.14726591 C20.5563399,5.25928852 20.4802614,5.37343983 20.3992157,5.484132 C20.2677124,5.6637407 20.1084967,5.80396852 19.8711111,5.735052 C19.619085,5.66187809 19.5064052,5.4679007 19.496732,5.20819983 C19.4935948,5.12331809 19.4962092,5.03817026 19.4962092,4.91310939" id="Fill-115" fill="#FDFEFD"></path>
                                <path d="M33.3267712,8.09497722 C33.5100392,8.27777896 33.6857255,8.44594591 33.7257255,8.70564678 C33.7432418,8.81873374 33.7338301,8.92330591 33.6423268,8.99435113 C33.5495163,9.06672678 33.441281,9.04677026 33.3461176,8.99408504 C33.1683399,8.89589896 33.0224575,8.758332 32.9288627,8.574732 C32.8585359,8.43769722 32.7756601,8.41614417 32.6593203,8.51166939 C32.6512157,8.51832157 32.6418039,8.52337722 32.632915,8.52869896 C32.1011503,8.84427809 32.0987974,8.84534243 32.3100392,9.42594417 C32.3884706,9.64120852 32.4067712,9.84689374 32.2237647,10.0118677 C32.0373595,10.1800346 31.8237647,10.1651337 31.6104314,10.0608277 C31.563634,10.0379442 31.5204967,10.0073442 31.4765752,9.97860678 C31.0164444,9.67766243 31.0164444,9.67766243 30.6180131,10.0805181 C30.327817,10.3737459 30.1916078,10.4008868 30.0224575,10.2074416 C29.9432418,10.1167059 29.908732,10.0336868 30.0057255,9.93629896 C30.0130458,9.92884852 30.0182745,9.91926939 30.0253333,9.91155287 C30.2190588,9.69203113 30.5526536,9.48182243 30.5675556,9.25059287 C30.5824575,9.015372 30.2899085,8.75513896 30.1921307,8.47388504 C30.1437647,8.33418939 30.1024575,8.19103461 30.0718693,8.0462833 C30.0397124,7.89487983 30.0420654,7.74054939 30.207817,7.66365026 C30.3649412,7.59074243 30.4901699,7.67961548 30.6018039,7.78046243 C30.7202353,7.88769548 30.7479477,8.03191461 30.7385359,8.1870433 C30.7272941,8.37011113 30.7275556,8.55823461 30.8496471,8.70245374 C30.9147451,8.77988504 30.9053333,9.009252 31.0833725,8.90015635 C31.2140915,8.82006417 31.401281,8.7482207 31.3113464,8.48772157 C31.197098,8.15697548 31.104549,7.79243635 31.4334379,7.51703635 C31.7584052,7.24482939 32.1121307,7.35019983 32.4323922,7.52315635 C32.6917386,7.66338417 32.8886013,7.64821722 33.0891242,7.4324207 C33.1808889,7.33370243 33.3021961,7.2629233 33.4099085,7.17910591 C33.5563137,7.0652207 33.7029804,7.09182939 33.8475556,7.18017026 C33.9934379,7.26930939 34.0718693,7.39703113 34.0567059,7.57663983 C34.0402353,7.77274591 33.896183,7.78950939 33.7489935,7.82702765 C33.5963137,7.86561026 33.4726536,7.9709807 33.3267712,8.09497722" id="Fill-117" fill="#FEFEFD"></path>
                                <path d="M7.84575163,11.1418591 C7.84575163,11.3092278 7.85281046,11.4055513 7.84444444,11.5002783 C7.81228758,11.8701391 7.48915033,12.0465548 7.16183007,11.8781217 C6.99581699,11.7927078 6.88235294,11.6468922 6.79503268,11.4938922 C6.64496732,11.2296678 6.46875817,11.2195565 6.23137255,11.3611148 C6.08888889,11.4462626 5.93254902,11.5135826 5.77490196,11.5644052 C5.61333333,11.6165583 5.50797386,11.5497704 5.4345098,11.3789426 C5.35869281,11.202527 5.46379085,11.1469148 5.57071895,11.0835861 C5.80366013,10.945753 6.14091503,10.8685878 6.24627451,10.6650313 C6.34143791,10.4814313 6.17254902,10.1639896 6.14248366,9.90322435 C6.1220915,9.72494609 6.1296732,9.54134609 6.14509804,9.36226957 C6.15764706,9.21219652 6.19973856,9.05014957 6.37777778,9.02726609 C6.57568627,9.00198783 6.68287582,9.14806957 6.74901961,9.31038261 C6.80732026,9.4532713 6.77594771,9.60094957 6.72156863,9.74490261 C6.66091503,9.90482087 6.61385621,10.0711252 6.68732026,10.2400904 C6.72732026,10.3318904 6.67163399,10.5261339 6.85202614,10.4777061 C6.9924183,10.4401878 7.20705882,10.4346 7.18875817,10.1815513 C7.1827451,10.0974678 7.19398693,10.0115217 7.20052288,9.92690609 C7.25019608,9.28457217 7.75320261,9.03232174 8.29019608,9.3798313 C8.31660131,9.39686087 8.34928105,9.4104313 8.36653595,9.43464522 C8.68993464,9.8859287 9.08026144,9.8308487 9.50379085,9.60334435 C9.7103268,9.49265217 9.88522876,9.5634313 10.0248366,9.74623304 C10.1265359,9.87927652 10.1247059,10.0237617 10.0698039,10.1687791 C10.0128105,10.3191183 9.88235294,10.3103374 9.75267974,10.3047496 C9.67058824,10.3012904 9.58718954,10.3122 9.50562092,10.3241739 C9.29176471,10.3555722 9.19084967,10.4181026 9.33803922,10.6650313 C9.49150327,10.9223374 9.43477124,11.2855461 9.27895425,11.3664365 C9.10745098,11.4555757 8.89647059,11.2722417 8.75006536,10.9348435 C8.69856209,10.8161687 8.74143791,10.5854713 8.58823529,10.5939861 C8.34457516,10.6072904 8.08810458,10.6783357 7.87163399,10.792753 C7.74379085,10.8603391 7.85777778,11.0697496 7.84575163,11.1418591" id="Fill-119" fill="#FEFEFD"></path>
                                <path d="M24.1030327,9.56327165 C24.2844706,9.7458073 24.4622484,9.913176 24.5027712,10.1726108 C24.520549,10.2848995 24.5111373,10.3900038 24.4204183,10.4621134 C24.3278693,10.5358195 24.219634,10.516129 24.1244706,10.463976 C23.9459085,10.3665882 23.8002876,10.2287551 23.7059085,10.0454212 C23.6366275,9.91024904 23.5555817,9.88204383 23.4376732,9.97969774 C23.4295686,9.98634991 23.4201569,9.99140557 23.4110065,9.9967273 C22.876366,10.3128386 22.8742745,10.3136369 23.0860392,10.8931743 C23.1644706,11.1079064 23.1846013,11.3149221 23.0015948,11.4793638 C22.8039477,11.6568438 22.5835556,11.6294369 22.3600261,11.5171482 C22.1678693,11.4205586 22.0180654,11.1680421 21.8034248,11.2151395 C21.6010719,11.2593099 21.4646013,11.4833551 21.3056471,11.6366212 C21.2157124,11.7236317 21.1137516,11.8122386 20.9783268,11.798136 C20.7725752,11.776849 20.6810719,11.5275256 20.8212026,11.3580282 C21.0010719,11.1406351 21.3161046,10.9514473 21.3466928,10.7194195 C21.3741438,10.5094769 21.0821176,10.2662734 20.9953203,10.0028473 C20.9425098,9.84213078 20.8868235,9.68168035 20.848915,9.51723861 C20.8141438,9.36689948 20.8175425,9.2115047 20.9822484,9.13354122 C21.139634,9.05877078 21.2651242,9.14764383 21.3767582,9.24795861 C21.495451,9.35465948 21.5242092,9.49861252 21.5147974,9.6540073 C21.503817,9.83680904 21.5035556,10.0251986 21.6248627,10.1699499 C21.6904837,10.2479134 21.6821176,10.4759499 21.8580654,10.3700473 C21.9887843,10.2912856 22.177281,10.219176 22.0878693,9.95841078 C21.9741438,9.6276647 21.8808105,9.26312557 22.2083922,8.9869273 C22.533098,8.713656 22.887085,8.81849426 23.2076078,8.99145078 C23.4664314,9.13088035 23.6632941,9.11890643 23.8643399,8.90257774 C23.9561046,8.80359339 24.0776732,8.73308035 24.1851242,8.64899687 C24.3310065,8.53484557 24.4776732,8.55959165 24.6225098,8.64819861 C24.7681307,8.73707165 24.8476078,8.86426122 24.8332288,9.04386991 C24.8175425,9.24024209 24.6747974,9.25860209 24.527085,9.29532209 C24.3738824,9.33337252 24.2507451,9.43954122 24.1030327,9.56327165" id="Fill-121" fill="#FEFEFD"></path>
                                <path d="M12.8065621,13.95549 C12.7529673,14.0595194 12.7192418,14.1487253 12.6646013,14.2220489 C12.6277386,14.2718136 12.632183,14.42799 12.5095686,14.3295194 C12.4381961,14.2726077 12.392183,14.1789018 12.463817,14.0791077 C12.537281,13.9766665 12.6358431,13.9353724 12.8065621,13.95549" id="Fill-123" fill="#85C55F"></path>
                                <path d="M12.6948758,15.3045235 C12.7811503,15.3481999 12.8540915,15.3863176 12.8428497,15.4731411 C12.8313464,15.5596999 12.7772288,15.6367294 12.6841569,15.6393764 C12.6342222,15.6409647 12.540366,15.6174058 12.563634,15.5366705 C12.5876863,15.4527588 12.6501699,15.3802294 12.6948758,15.3045235" id="Fill-125" fill="#82C35A"></path>
                                <path d="M42.9468497,25.7032283 C41.7899869,25.7072197 41.1641046,24.9619101 41.3314248,23.7791536 C41.596,21.9098927 43.8135163,19.9006701 45.6441046,19.8716666 C46.8814902,19.8519762 47.5329935,20.6430527 47.3081569,21.8915327 C46.9677647,23.7815483 44.7763922,25.6971083 42.9468497,25.7032283" id="Fill-127" fill="#8F4A50"></path>
                                <path d="M49.9668758,19.8767489 C51.3843922,20.0906828 52.7373333,20.8692532 53.5161569,22.462848 C54.0126275,23.4790341 53.4748497,24.2754323 52.3619085,24.2738358 C52.1548497,24.2735697 51.9417778,24.2570723 51.7417778,24.2065158 C50.4105359,23.8691176 49.3396863,23.1504167 48.614719,21.9445106 C48.4215163,21.6228115 48.296549,21.2678515 48.3247843,20.886815 C48.372366,20.2396915 48.8777255,19.8743541 49.9668758,19.8767489" id="Fill-129" fill="#8F4A50"></path>
                                <path d="M27.7811765,16.5571544 C27.9218301,16.6739666 28.1573856,16.7327718 28.0462745,17.0044466 C27.8075817,18.1544744 27.4394771,19.2544779 26.8462745,20.2703979 C26.1576471,21.4494292 25.2627451,22.4288953 24.1545098,23.2103927 C23.9741176,23.3373162 23.8047059,23.3631266 23.5986928,23.3077805 C22.507451,23.0145527 21.7275817,22.3070275 21.1205229,21.3765214 C20.2983007,20.1160675 19.8643137,18.7012831 19.568366,17.2356762 C19.4763399,16.7788049 19.4175163,16.3147492 19.3359477,15.8554831 C19.3058824,15.6865179 19.3359477,15.6138762 19.5278431,15.5915249 C21.256732,15.3914275 22.9843137,15.3339527 24.7124183,15.5968466 C25.4988235,15.7163197 26.2619608,15.9289231 27.0141176,16.1859631 C27.2698039,16.3096936 27.5254902,16.433424 27.7811765,16.5571544" id="Fill-131" fill="#E386AD"></path>
                                <path d="M7.54985621,23.3020863 C7.79613072,23.4077039 8.00528105,23.5056451 8.2029281,23.6536157 C8.07351634,23.7719392 7.9608366,23.8923804 7.7890719,23.8201157 C7.58750327,23.7348804 7.56266667,23.5458804 7.54985621,23.3020863" id="Fill-133" fill="#79C152"></path>
                                <path d="M10.0137255,23.38759 C9.96640523,23.4659429 9.98130719,23.6202665 9.85712418,23.5805606 C9.7345098,23.5413841 9.54810458,23.5239135 9.53424837,23.3523841 C9.52640523,23.2594723 9.63254902,23.1541194 9.74522876,23.1660312 C9.86862745,23.1787371 9.9724183,23.2539135 10.0137255,23.38759" id="Fill-135" fill="#7CC155"></path>
                                <path d="M21.0630588,4.52589265 C21.3284183,4.28315735 21.4042353,4.30856912 21.5179608,4.66433382 C21.3522092,4.67280441 21.2264575,4.58280441 21.0630588,4.52589265" id="Fill-137" fill="#7DC255"></path>
                                <path d="M20.0421961,4.9834654 C19.9637647,4.94508305 19.8675556,4.93025952 19.8743529,4.81881834 C19.8782745,4.76031834 19.8824575,4.67217128 19.9734379,4.70578893 C20.0518693,4.73464187 20.183634,4.71452422 20.1841569,4.84528893 C20.1844183,4.91967128 20.1164444,4.96917128 20.0421961,4.9834654" id="Fill-139" fill="#86C55F"></path>
                                <path d="M32.240915,8.03506065 C32.1729412,8.09250183 32.114902,8.15338418 32.0461438,8.19653124 C31.9828758,8.23623712 31.9352941,8.34688418 31.8406536,8.27938418 C31.8105882,8.257943 31.807451,8.18276653 31.8100654,8.13300183 C31.8152941,8.03453124 31.8900654,7.9921783 31.9724183,7.96570771 C32.0688889,7.93473712 32.1509804,7.97232535 32.240915,8.03506065" id="Fill-141" fill="#87C661"></path>
                                <path d="M31.7201046,9.36553211 C31.7031111,9.48570858 31.6301699,9.53441446 31.531085,9.53679682 C31.467817,9.53864976 31.3982745,9.49285564 31.4074248,9.43038505 C31.423634,9.31762035 31.5253333,9.26176741 31.6228497,9.24270858 C31.7015425,9.22709094 31.6787974,9.3335027 31.7201046,9.36553211" id="Fill-143" fill="#8BC765"></path>
                                <path d="M8.23981699,10.007897 C8.13001307,10.052897 8.06543791,10.0904852 7.99589542,10.1047793 C7.92138562,10.1201323 7.84321569,10.219397 7.77315033,10.1301911 C7.74648366,10.0965735 7.76216993,10.0026029 7.79066667,9.95627934 C7.84452288,9.86786758 7.93654902,9.84033816 8.03511111,9.88507346 C8.09001307,9.90969111 8.13968627,9.94701463 8.23981699,10.007897" id="Fill-145" fill="#84C45C"></path>
                                <path d="M7.31484967,11.069449 C7.32269281,11.1761255 7.25079739,11.2182137 7.16766013,11.2412431 C7.06282353,11.2703607 6.99694118,11.2028607 6.99171242,11.114449 C6.98360784,10.9799784 7.11798693,11.0043313 7.19511111,10.9709784 C7.28321569,10.9331255 7.29550327,11.009096 7.31484967,11.069449" id="Fill-147" fill="#96CB74"></path>
                                <path d="M23.0415686,9.48486536 C22.9539869,9.56004183 22.9053595,9.61907125 22.8431373,9.65057125 C22.7691503,9.68789477 22.7239216,9.8239536 22.6141176,9.7432183 C22.5845752,9.72151242 22.5796078,9.6442183 22.587451,9.59630654 C22.6073203,9.47083595 22.7066667,9.42954183 22.814902,9.42557125 C22.8737255,9.4237183 22.9335948,9.4552183 23.0415686,9.48486536" id="Fill-149" fill="#87C661"></path>
                                <path d="M22.3265882,11.0090555 C22.2484183,10.9979379 22.1694641,10.9719967 22.1861961,10.8841144 C22.2050196,10.787232 22.2993987,10.7387908 22.3846275,10.7125849 C22.4693333,10.6869085 22.4766536,10.7811438 22.485281,10.8298496 C22.506719,10.9505555 22.4133856,10.9812614 22.3265882,11.0090555" id="Fill-151" fill="#8BC765"></path>
                            </g>
                        </g>
                    </g>
                </g>
            </g>
        </g>
    </g>
</svg>