<?xml version="1.0" encoding="UTF-8"?>
<svg width="43px" height="66px" viewBox="0 0 43 66" version="1.1" xmlns="http://www.w3.org/2000/svg" xmlns:xlink="http://www.w3.org/1999/xlink">
    <!-- Generator: Sketch 47.1 (45422) - http://www.bohemiancoding.com/sketch -->
    <title>trashCan-red</title>
    <desc>Created with Sketch.</desc>
    <defs></defs>
    <g id="AMZN-desktop-PC" stroke="none" stroke-width="1" fill="none" fill-rule="evenodd">
        <g id="PCAMZN-DESK-ebay.A-5" transform="translate(-386.000000, -424.000000)">
            <g id="Group-13" transform="translate(316.000000, 214.000000)">
                <g id="Group-18-+-Group-11-+-Group-17-Mask" transform="translate(26.000000, 75.000000)">
                    <g id="Group-10" transform="translate(7.000000, -44.000000)">
                        <g id="Group-18" transform="translate(2.000000, 149.000000)">
                            <g id="Group-19" transform="translate(35.000000, 27.000000)">
                                <g id="trashCan-red" transform="translate(0.000000, 3.000000)">
                                    <rect id="Rectangle-3" fill="#FF5A63" x="0" y="0" width="43" height="66" rx="5.72631553"></rect>
                                    <g id="Group-12" transform="translate(13.578947, 21.052632)" stroke="#FFFFFF" stroke-width="1.83242086" stroke-linecap="round">
                                        <path d="M14.6641574,9.76750141 L14.6641574,23.4411743 C14.6641574,25.0470863 13.3759676,26.3489362 11.7869062,26.3489362 L4.82563581,26.3489362 C3.23657439,26.3489362 1.94838455,25.0470863 1.94838455,23.4411743 L1.94838455,9.76750141" id="Stroke-1"></path>
                                        <path d="M0,6.33684211 L16.612542,6.33684211" id="Stroke-3"></path>
                                        <path d="M12.3055867,4.14535869 L12.3055867,1.82271422 C12.3055867,0.816013858 11.4981351,0 10.5019978,0 L6.11054415,0 C5.11440691,0 4.30695533,0.816013858 4.30695533,1.82271422 L4.30695533,4.14535869" id="Stroke-5"></path>
                                    </g>
                                </g>
                            </g>
                        </g>
                    </g>
                </g>
            </g>
        </g>
    </g>
</svg>