<?xml version="1.0" encoding="UTF-8"?>
<svg width="80px" height="88px" viewBox="0 0 80 88" version="1.1" xmlns="http://www.w3.org/2000/svg" xmlns:xlink="http://www.w3.org/1999/xlink">
    <!-- Generator: Sketch 47.1 (45422) - http://www.bohemiancoding.com/sketch -->
    <title>walm-addedToCard</title>
    <desc>Created with Sketch.</desc>
    <defs></defs>
    <g id="AMZN-desktop-PC" stroke="none" stroke-width="1" fill="none" fill-rule="evenodd">
        <g id="PCAMZN-DESK-walm.A-3" transform="translate(-909.000000, -307.000000)">
            <g id="Group-13" transform="translate(316.000000, 214.000000)">
                <g id="Group-18-+-Group-11-+-Group-17-Mask" transform="translate(26.000000, 75.000000)">
                    <g id="Group-15">
                        <g id="Group-9" transform="translate(21.000000, 18.000000)">
                            <g id="walm-addedToCard" transform="translate(546.000000, 0.000000)">
                                <g id="Group-4" transform="translate(0.000000, 16.579710)">
                                    <g id="Group-2" transform="translate(3.000000, 0.027135)" stroke="#00C8E5" stroke-width="3.48480043" stroke-linecap="round">
                                        <path d="M53.4836323,18.3385265 C56.8357921,18.3385265 60.3446555,18.3385265 67.0489751,18.3385265 C70.8678561,18.3385265 73.6727199,22.0988046 72.7538166,25.9863871 C72.3125943,27.8528101 71.9816775,29.2526274 71.7610663,30.185839 M65.5064776,56.6434938 C65.1294214,58.2384865 64.5369767,60.7445983 63.7291434,64.1618291 C63.0792651,66.9116029 60.7256946,68.8428724 58.024302,68.8428724 L15.0873608,68.8428724 C12.3859681,68.8428724 10.0327956,66.9116029 9.38251928,64.1618291 C8.5709704,60.7287293 7.97590018,58.2114005 7.59730864,56.6098425 M1.37014983,30.2670578 C1.14528188,29.3157976 0.807979954,27.8889074 0.358244052,25.9863871 C-0.561057226,22.0988046 2.24380659,18.3385265 6.06308553,18.3385265 C13.2429886,18.3385265 16.9180725,18.3385265 20.1270898,18.3385265" id="Stroke-1"></path>
                                        <path d="M63.8779122,16.1862282 L59.6237226,0.473671838" id="Stroke-3"></path>
                                        <path d="M9.23390867,16.1862282 L13.4880983,0.473671838" id="Stroke-5"></path>
                                    </g>
                                    <g id="Group-15" transform="translate(0.000000, 33.000000)" fill="#00C8E5">
                                        <path d="M70.41843,6.07745289 C70.8648464,6.07745289 71.2323549,5.85834904 71.2820478,5.57430161 L71.7232765,0.859501687 C71.7232765,0.393405684 71.1460751,0.0105872222 70.4197952,0.0105872222 C69.6948805,0.0105872222 69.1184983,0.393405684 69.1184983,0.859501687 L69.5587713,5.57430161 C69.607372,5.85834904 69.9752901,6.07745289 70.4200683,6.07745289 L70.41843,6.07745289" id="Fill-22"></path>
                                        <path d="M67.7238225,7.55049702 C67.9478498,7.18523785 67.9305119,6.77440199 67.694744,6.5922243 L63.5969966,3.87414866 C63.1713311,3.64097154 62.5321502,3.92166205 62.1695563,4.51622495 C61.8058703,5.11001318 61.8703072,5.77365126 62.2958362,6.00644104 L66.832628,8.00445645 C67.1167235,8.1043895 67.5027986,7.91304482 67.7254608,7.54791477 L67.7238225,7.55049702" id="Fill-23"></path>
                                        <path d="M73.1149488,7.54791477 C73.33843,7.91304482 73.7232765,8.1043895 74.007372,8.00445645 L78.5448464,6.00644104 C78.9721502,5.77365126 79.0334471,5.11001318 78.6722184,4.51622495 C78.3079863,3.92166205 77.6681229,3.64097154 77.2432765,3.87414866 L73.1453925,6.5922243 C72.9109898,6.77440199 72.8936519,7.18523785 73.116587,7.55049702 L73.1149488,7.54791477" id="Fill-24"></path>
                                        <path d="M70.41843,11.9666598 C70.8648464,11.9666598 71.2323549,12.1847308 71.2820478,12.46852 L71.7232765,17.1830617 C71.7232765,17.6499323 71.1460751,18.0319761 70.4197952,18.0319761 C69.6948805,18.0319761 69.1184983,17.6499323 69.1184983,17.1830617 L69.5587713,12.46852 C69.607372,12.1847308 69.9752901,11.9666598 70.4200683,11.9666598 L70.41843,11.9666598" id="Fill-25"></path>
                                        <path d="M73.1149488,10.4942612 C73.33843,10.1284856 73.7232765,9.93843208 74.007372,10.0395271 L78.5448464,12.0352185 C78.9721502,12.2690412 79.0334471,12.9329375 78.6722184,13.5273713 C78.3079863,14.1199975 77.6681229,14.4015918 77.2432765,14.1691894 L73.1453925,11.4533086 C72.9109898,11.268936 72.8936519,10.8583584 73.116587,10.4934866 L73.1149488,10.4942612" id="Fill-26"></path>
                                        <path d="M67.7238225,10.4934866 C67.9478498,10.8583584 67.9305119,11.268936 67.694744,11.4533086 L63.5969966,14.1691894 C63.1713311,14.4015918 62.5321502,14.1199975 62.1695563,13.5273713 C61.8058703,12.9329375 61.8703072,12.2690412 62.2958362,12.0352185 L66.832628,10.0395271 C67.1167235,9.93843208 67.5027986,10.1284856 67.7257338,10.4942612 L67.7238225,10.4934866" id="Fill-27"></path>
                                        <path d="M44.5714676,11.4440125 C44.5714676,11.5890058 44.5579522,11.7385181 44.5157679,11.869309 C44.3419795,12.4136472 43.745802,12.8736749 43.0004096,12.8736749 C42.3788396,12.8736749 41.8851877,12.5401774 41.8851877,11.8345778 C41.8851877,10.7553267 43.1414334,10.4569477 44.5714676,10.4639198 L44.5714676,11.4440125 Z M46.8150171,9.56361859 C46.8150171,7.78302857 46.0109215,6.21689436 43.2936519,6.21689436 C41.89843,6.21689436 40.7909898,6.58757625 40.1866212,6.91758771 L40.6290785,8.34854117 C41.1811604,8.01904616 42.0617065,7.74623152 42.894471,7.74623152 C44.272901,7.74287459 44.4989761,8.48398015 44.4989761,8.95924314 L44.4989761,9.07170009 C41.4936519,9.06743938 39.5948123,10.0510182 39.5948123,12.0561347 C39.5948123,13.2803792 40.5619113,14.4276725 42.243413,14.4276725 C43.2771331,14.4276725 44.1425256,14.0373655 44.6600683,13.4120739 L44.7112628,13.4120739 C44.7112628,13.4120739 45.054471,14.7699497 46.9464846,14.2506593 C46.8469625,13.6855341 46.8150171,13.0830953 46.8150171,12.3573541 L46.8150171,9.56361859 L46.8150171,9.56361859 Z" id="Fill-28"></path>
                                        <path d="M0,3.79254958 C0,3.79254958 1.96327645,11.4014054 2.27658703,12.6364953 C2.64232082,14.078036 3.30129693,14.60843 5.20122867,14.2506593 L6.42730375,9.53288982 C6.73788396,8.36106508 6.94648464,7.52583654 7.1462116,6.33387025 L7.18129693,6.33387025 C7.32163823,7.53758577 7.52163823,8.36480934 7.77733788,9.53715054 C7.77733788,9.53715054 8.27631399,11.6786099 8.53187713,12.8033086 C8.78812287,13.9278782 9.50116041,14.6364474 11.3621843,14.2506593 L14.283413,3.79254958 L11.9249147,3.79254958 L10.9275085,8.31393903 C10.6593857,9.6299824 10.4162457,10.6584923 10.2286689,11.8624661 L10.1952218,11.8624661 C10.0245734,10.6701124 9.80778157,9.6827894 9.53515358,8.4005735 L8.49665529,3.79254958 L6.03945392,3.79254958 L4.9287372,8.28450139 C4.61406143,9.64947838 4.31959044,10.7515824 4.13242321,11.9147566 L4.09870307,11.9147566 C3.90703072,10.8193664 3.6516041,9.4342479 3.37515358,8.11291092 C3.37515358,8.11291092 2.71522184,4.8999472 2.48368601,3.79254958 L0,3.79254958" id="Fill-30"></path>
                                        <path d="M18.7427986,11.4440125 C18.7427986,11.5890058 18.7295563,11.7385181 18.687099,11.869309 C18.5133106,12.4136472 17.9171331,12.8736749 17.1717406,12.8736749 C16.5503072,12.8736749 16.0566553,12.5401774 16.0566553,11.8345778 C16.0566553,10.7553267 17.3127645,10.4569477 18.7427986,10.4639198 L18.7427986,11.4440125 Z M20.9859386,9.56361859 C20.9859386,7.78302857 20.1819795,6.21689436 17.4651195,6.21689436 C16.0696246,6.21689436 14.9619113,6.58757625 14.3580887,6.91758771 L14.8,8.34854117 C15.352628,8.01904616 16.2323549,7.74623152 17.065529,7.74623152 C18.4449147,7.74287459 18.6705802,8.48398015 18.6705802,8.95924314 L18.6705802,9.07170009 C15.6648464,9.06743938 13.7662799,10.0510182 13.7662799,12.0561347 C13.7662799,13.2803792 14.7328328,14.4276725 16.4133788,14.4276725 C17.4479181,14.4276725 18.3130375,14.0373655 18.8315358,13.4120739 L18.8823208,13.4120739 C18.8823208,13.4120739 19.225802,14.7699497 21.1175427,14.2506593 C21.018157,13.6855341 20.9859386,13.0830953 20.9859386,12.3573541 L20.9859386,9.56361859 L20.9859386,9.56361859 Z" id="Fill-32"></path>
                                        <polyline id="Fill-33" points="24.7292833 12.0301831 24.7292833 3.79254958 22.4838225 3.79254958 22.4838225 14.2506593 24.7292833 14.2506593 24.7292833 12.0301831"></polyline>
                                        <path d="M54.1090785,3.79254958 C54.1090785,4.79588255 54.1090785,11.5075359 54.1090785,11.5075359 C54.1090785,12.5711644 54.3208191,13.3164015 54.7736519,13.7716521 C55.1692833,14.1698349 55.8208874,14.4276725 56.6017747,14.4276725 C57.2656655,14.4276725 57.9189078,14.3085017 58.2267577,14.2000472 L58.1978157,12.5405647 C57.9687372,12.5938882 57.705256,12.6364953 57.3448464,12.6364953 C56.5799317,12.6364953 56.323413,12.1731106 56.323413,11.2180657 L56.323413,8.26655476 L58.2790444,8.26655476 L58.2790444,6.26556976 L56.323413,6.26556976 L56.323413,3.79254958 L54.1090785,3.79254958" id="Fill-34"></path>
                                        <path d="M48.3123549,6.39416577 L48.3123549,14.2506593 L50.6288055,14.2506593 L50.6288055,10.2277731 C50.6288055,10.0107351 50.6427304,9.82145619 50.6790444,9.64792903 C50.8503754,8.80521196 51.5320137,8.26655476 52.5101706,8.26655476 C52.7787031,8.26655476 52.970785,8.29405571 53.1787031,8.32246045 L53.1787031,6.26556976 C53.0043686,6.23225874 52.8851877,6.21689436 52.6682594,6.21689436 C51.8038225,6.21689436 50.8203413,6.74470612 50.4075085,7.87598955 L50.3445734,7.87598955 L50.3445734,6.39416577 L48.3123549,6.39416577" id="Fill-35"></path>
                                        <path d="M26.3019795,6.39416577 L26.3019795,14.2506593 L28.5593174,14.2506593 L28.5593174,9.64315187 C28.5593174,9.42714671 28.585529,9.19887587 28.665256,9.00017179 C28.8522867,8.5362707 29.3085324,7.993611 30.0371331,7.993611 C30.9479863,7.993611 31.374198,8.72193442 31.374198,9.77303901 L31.374198,14.2506593 L33.629215,14.2506593 L33.629215,9.5875044 C33.629215,9.38131179 33.6591126,9.13302852 33.7232765,8.95072171 C33.9086689,8.42303907 34.4005461,7.993611 35.0778157,7.993611 C36.0012287,7.993611 36.4445051,8.70915229 36.4445051,9.9459206 C36.4445051,9.9459206 36.4445051,13.2647565 36.4445051,14.2506593 L38.7010239,14.2506593 L38.7010239,9.62352678 C38.7010239,7.18317205 37.3909898,6.21689436 35.9119454,6.21689436 C35.2569283,6.21689436 34.7399317,6.37221665 34.2724915,6.64361106 C33.8795904,6.87162367 33.5277816,7.19556685 33.2203413,7.62215444 L33.1870307,7.62215444 C32.8301706,6.77543488 31.9909898,6.21689436 30.8976109,6.21689436 C29.4924232,6.21689436 28.8611604,6.89034498 28.4782253,7.46166764 L28.4447782,7.46166764 L28.4447782,6.39416577 L26.3019795,6.39416577" id="Fill-36"></path>
                                        <path d="M79.4440956,14.153157 L79.4936956,14.153157 C79.5517756,14.153157 79.5986556,14.1339987 79.5986556,14.087607 C79.5986556,14.0465987 79.5682556,14.0195237 79.5020156,14.0195237 C79.4744956,14.0195237 79.4551356,14.022057 79.4440956,14.024907 L79.4440956,14.153157 Z M79.4417747,14.340982 L79.3523549,14.340982 L79.3523549,13.9692545 C79.3877133,13.9623755 79.4369966,13.9554966 79.5006143,13.9554966 C79.5736519,13.9554966 79.6065529,13.9670056 79.6348123,13.9852613 C79.6558362,14.0011357 79.6724915,14.0309004 79.6724915,14.0650305 C79.6724915,14.1082885 79.6394539,14.140302 79.5924915,14.1539276 L79.5924915,14.1585577 C79.6300341,14.1699344 79.6511945,14.1995668 79.6629352,14.249836 C79.6748123,14.3067195 79.6819113,14.3296053 79.6911945,14.340982 L79.5946758,14.340982 C79.5829352,14.3273564 79.5759727,14.2954751 79.5642321,14.2520849 C79.5571331,14.2110758 79.5335154,14.1928201 79.4842321,14.1928201 L79.4417747,14.1928201 L79.4417747,14.340982 Z M79.5006143,13.8483438 C79.3311945,13.8483438 79.203959,13.9828801 79.203959,14.1470487 C79.203959,14.3135985 79.3311945,14.4458859 79.505256,14.4458859 C79.6748123,14.448267 79.7994539,14.3135985 79.7994539,14.1470487 C79.7994539,13.9828801 79.6748123,13.8483438 79.5029352,13.8483438 L79.5006143,13.8483438 Z M79.505256,13.7730723 C79.7265529,13.7730723 79.89843,13.9396221 79.89843,14.1470487 C79.89843,14.3592376 79.7265529,14.5235385 79.5029352,14.5235385 C79.2816382,14.5235385 79.1051195,14.3592376 79.1051195,14.1470487 C79.1051195,13.9396221 79.2816382,13.7730723 79.5029352,13.7730723 L79.505256,13.7730723 L79.505256,13.7730723 Z" id="Fill-37"></path>
                                    </g>
                                </g>
                                <path d="M37.620053,28.2864797 C38.439192,29.7559713 40.9821907,30.1058704 41.7062828,28.2864797 C45.715213,18.2139353 51.3158837,7.15527362 60.9712333,2.24489772 C63.7193125,0.847406933 61.4072613,-0.624883024 58.3358746,0.276647827 C45.4255215,4.0661679 39.3374507,20.7944983 39.1328678,20.5258488 C35.6348984,15.9324687 33.4472924,14.6115953 29.4653068,12.6615303 C26.5703765,11.24382 24.2178504,14.5645323 26.7987102,16.2845534 C31.7308972,19.5717515 34.6270603,22.918414 37.620053,28.2864797 Z" id="Fill-3" fill="#7ED321"></path>
                            </g>
                        </g>
                    </g>
                </g>
            </g>
        </g>
    </g>
</svg>